<svg xmlns="http://www.w3.org/2000/svg" xmlns:xlink="http://www.w3.org/1999/xlink" viewBox="0 0 460.77 443.33"><defs><style>.cls-1,.cls-3,.cls-8,.cls-9{fill:none;}.cls-2{clip-path:url(#clip-path);}.cls-3,.cls-8,.cls-9{stroke:#35809f;stroke-width:0.43px;}.cls-3{stroke-miterlimit:10;}.cls-4{fill:#231f20;}.cls-5{fill:#fff;}.cls-6{fill:#35809f;}.cls-7{fill:#37809f;}.cls-8{stroke-linecap:round;stroke-linejoin:round;}.cls-9{stroke-miterlimit:22.93;}.cls-10{fill:#95c5da;}</style><clipPath id="clip-path" transform="translate(-162 -57.67)"><rect class="cls-1" width="841.89" height="595.28"/></clipPath></defs><title>Asset 1</title><g id="Layer_2" data-name="Layer 2"><g id="Layer_1-2" data-name="Layer 1"><g class="cls-2"><g class="cls-2"><path class="cls-3" d="M526.91,260.27a14.12,14.12,0,0,0-11.57-.9,11.77,11.77,0,0,0-6.07,4.78,8.94,8.94,0,0,0-1.11,6.86,10.49,10.49,0,0,0,4.55,6.16c-.41,1.19-.81,2.37-1.19,3.57,1.37-.71,2.73-1.46,4.09-2.18a15.15,15.15,0,0,0,5.11.73,8.8,8.8,0,0,1-.35-4.12,8.18,8.18,0,0,1,2.89-4.77,12.1,12.1,0,0,1,9-2.46A12,12,0,0,0,526.91,260.27Z" transform="translate(-162 -57.67)"/><path class="cls-3" d="M540.11,273.48a9.23,9.23,0,0,0-4.32-4.39,11.88,11.88,0,0,0-10.65,0,8.84,8.84,0,0,0-4.72,5.81,7.47,7.47,0,0,0,.95,5.53,10.19,10.19,0,0,0,6.94,4.53,12.69,12.69,0,0,0,6.06-.4c1.17.46,2.22,1.19,3.36,1.74-.29-1-.6-2-.94-2.93a9.57,9.57,0,0,0,3.13-3.46A7.5,7.5,0,0,0,540.11,273.48Z" transform="translate(-162 -57.67)"/><circle class="cls-3" cx="365.34" cy="216.08" r="1.44"/><circle class="cls-3" cx="372.2" cy="216.08" r="1.44"/><circle class="cls-3" cx="353.89" cy="207.64" r="1.77"/><circle class="cls-3" cx="362.33" cy="207.64" r="1.77"/><rect class="cls-3" x="352.08" y="286.67" width="21.85" height="29"/><rect class="cls-3" x="355.83" y="291.66" width="4.77" height="4.77"/><rect class="cls-3" x="355.83" y="298.81" width="4.77" height="4.77"/><rect class="cls-3" x="355.83" y="305.96" width="4.77" height="4.77"/><polyline class="cls-3" points="356.79 294.2 358.06 295.81 360.6 291.66"/><line class="cls-3" x1="362.29" y1="296.42" x2="370.63" y2="296.42"/><line class="cls-3" x1="362.29" y1="303.58" x2="370.63" y2="303.58"/><line class="cls-3" x1="362.29" y1="310.73" x2="370.63" y2="310.73"/><circle class="cls-3" cx="427.73" cy="292.46" r="4.59"/><circle class="cls-3" cx="444.67" cy="300.88" r="4.59"/><circle class="cls-3" cx="427.73" cy="309.29" r="4.59"/><line class="cls-3" x1="431.99" y1="293.77" x2="440.51" y2="298.36"/><line class="cls-3" x1="431.99" y1="307.32" x2="440.51" y2="302.73"/><path class="cls-4" d="M510.32,208.79c0,.5,0,1,0,1.49h1.56v.29l-.06,1.39a9.41,9.41,0,0,1-.26,1.82.8.8,0,0,1-.69.57,3.34,3.34,0,0,1-.77,0l-.1-.45a.52.52,0,0,1,0-.12,4.81,4.81,0,0,0,.79.1c.26-.07.3-.32.34-.54a14.26,14.26,0,0,0,.23-2.5h-1a5.78,5.78,0,0,1-.66,2.81,6.69,6.69,0,0,1-.65.9c-.17-.09-.3-.26-.47-.36a3.94,3.94,0,0,0,1-1.73,9.88,9.88,0,0,0,.2-2.29v-1.33h-.85v-.5h3.37v.5Zm.36-.58a2.5,2.5,0,0,0-.93-1.25c.12-.1.3-.19.44-.29a2.63,2.63,0,0,1,1,1.22c-.16.1-.33.22-.5.31m2.49.22a6.13,6.13,0,0,1-.91,1.5l-.45-.32a5,5,0,0,0,1.18-2.7l0-.22.5.17a7.75,7.75,0,0,1-.18,1.07h2.94v.5ZM516,214.5a3.24,3.24,0,0,1-.44-.31,4.26,4.26,0,0,1-1.45-2.93c0-.43-.06-.85-.07-1.26l-.81.13v3.55l1.1-.54v.56c-.54.24-1,.5-1.59.75l-.33-.37a.57.57,0,0,0,.26-.43v-4a6.47,6.47,0,0,0,2.47-.62l.36-.22.44.38a5.47,5.47,0,0,1-1.39.63,10.31,10.31,0,0,0,.09,1.52s.05,0,.06,0a2.86,2.86,0,0,0,1-1l.39.33a3,3,0,0,1-1.23,1.1l-.14.07a3.41,3.41,0,0,0,1.29,1.95,2.43,2.43,0,0,0,.36.25Z" transform="translate(-162 -57.67)"/><path class="cls-4" d="M517.66,214.47l-.44-.27a3.07,3.07,0,0,1,.19-.31,7.36,7.36,0,0,0,1-3l.45.25a6.92,6.92,0,0,1-1.18,3.37m1-4.16a2.77,2.77,0,0,0-1.37-1.14l.31-.37a2.77,2.77,0,0,1,1.44,1.15Zm0-1.75a2.48,2.48,0,0,0-1.33-1.08l.32-.37a2.58,2.58,0,0,1,1.38,1.05Zm3.81,0a4.42,4.42,0,0,1-.81,1.22l-.44-.28a3.8,3.8,0,0,0,.47-.57h-1.53l0,1.32h1.55a21.57,21.57,0,0,1-.43,3.44.92.92,0,0,1-.38.64,1.62,1.62,0,0,1-1,0l-.18-.59a4.29,4.29,0,0,0,.82.15.2.2,0,0,0,.18-.11,3.62,3.62,0,0,0,.22-1l.07-.55.14-1.51h-1a6.09,6.09,0,0,1-.75,3,6.72,6.72,0,0,1-.57.82l-.41-.36a4.9,4.9,0,0,0,1.16-2.86c.05-.79.09-1.62.09-2.47h-.57v-.5h2.67v.42a5.84,5.84,0,0,0,.73-2.07l.46.17a6.07,6.07,0,0,1-.27,1.1h2.13v.5Zm-2.18-.2a2.6,2.6,0,0,0-.66-1.3l.42-.26a2.71,2.71,0,0,1,.68,1.3ZM523.5,212v1.89a.56.56,0,0,1-.57.64h-.77L522,214h.74c.16,0,.22-.06.24-.16V212H521.7v-.5H523v-.74a3.37,3.37,0,0,0,.92-.88H522v-.5h2.5v.48a4.14,4.14,0,0,1-1,1.17v.49h1.39v.5Z" transform="translate(-162 -57.67)"/><path class="cls-4" d="M526.83,207.63v3a5.75,5.75,0,0,1-.85,3.79l-.42-.37a5.25,5.25,0,0,0,.76-3.42v-3.43h3.19v.48Zm.77,6.31-.26-.51,0-.07v-5h2c0,.56,0,1.49,0,1.83a3,3,0,0,1-.22,1.32.67.67,0,0,1-.54.28,2.65,2.65,0,0,1-.47-.07,2.86,2.86,0,0,1-.15-.54c.18,0,.51.19.62.13.26-.15.26-.46.3-.72,0-.48,0-1.2,0-1.75h-1.08v4.38c.53-.2,1.21-.61,1.76-.88v.53c-.59.31-1.14.71-2,1.13m3.87-1.73a3.68,3.68,0,0,1-1.9,2.22l-.34-.41a7.33,7.33,0,0,0,.9-.58c1.23-.94,1-2.58,1-4h.47a13.25,13.25,0,0,1-.16,2.74m.26-4.57a4.69,4.69,0,0,1-.36.83h1.48v4h-.49v-3.49h-1.91v3.65H530v-4.13h.88a3.33,3.33,0,0,0,.39-.84h-1.55v-.47h3.58v.48Zm1.28,6.72a5.24,5.24,0,0,0-1.35-1.6l.38-.27a5.34,5.34,0,0,1,1.37,1.56Z" transform="translate(-162 -57.67)"/><path class="cls-4" d="M534.82,208.28h.51v6.2h-.51Zm2,.19a3.76,3.76,0,0,0-1.27-1.07l.32-.36a5.45,5.45,0,0,1,1.33,1Zm2.23,4v-.34h-2v.53h-.51v-3.35h3v3.16Zm0-2.65h-1.94v1.81H539Zm1.78,4.56h-.91l-.19-.52.88,0a.33.33,0,0,0,.19-.15v-6h-3v-.49h3.56v6.46a.67.67,0,0,1-.49.68" transform="translate(-162 -57.67)"/><path class="cls-4" d="M504.86,389.61l-.41-.32a10.43,10.43,0,0,0,1.5-2.86l.42.19a8.11,8.11,0,0,1-1.51,3m.86-4.15a3.79,3.79,0,0,0-1.09-1l.25-.35a3.53,3.53,0,0,1,1.17,1Zm.36-1.8a3.38,3.38,0,0,0-1.15-1l.31-.32a3.28,3.28,0,0,1,1.17,1Zm4.28,1.14v.66h1.42V389a.65.65,0,0,1-.22.55c-.23.16-.42.16-.93.16l-.18-.51.59,0c.08,0,.21,0,.21-.23v-1.22l-.31.3a3.63,3.63,0,0,0-.88-.79,4.1,4.1,0,0,1-1,1.46l-.4-.33a5.21,5.21,0,0,0,.7-.82,2.44,2.44,0,0,0-.68-.6,4.55,4.55,0,0,1-1,1.69l-.34-.29v1.41h-.54v-4.32h1.6v-.66h-1.84v-.51H512v.5Zm.1-1.48V384H510v-.72h-1.33V384h-.52v-.72h-1.47v-.49h1.47v-.68h.52v.68H510v-.66h.52v.66H512v.49ZM507.33,386v2.29a3.52,3.52,0,0,0,1-2.28Zm1.55,0a3.74,3.74,0,0,1-.08.54,3.73,3.73,0,0,1,.83.62,3.66,3.66,0,0,0,.2-1.16Zm1-1.16h-.93v.66h.93Zm1.43,1.16h-.94a6,6,0,0,1-.11.87,3.84,3.84,0,0,1,1,.88Z" transform="translate(-162 -57.67)"/><path class="cls-4" d="M513.28,389.41l-.3-.48a2.82,2.82,0,0,0,1.55-.93l.35.35a3.84,3.84,0,0,1-1.6,1.06m-.09-4.6v-.51h2.5c0-.11-.15-.19-.23-.28a1.78,1.78,0,0,0-.53-.36l.4-.29-1.56,0v-.5h2.71a2,2,0,0,0-.63-.47l.5-.32a3,3,0,0,1,.71.78h2.71v.5h-1.68l.4.15a2.69,2.69,0,0,1-.55.79h2.43v.51Zm3.44,2.81a3.48,3.48,0,0,1,1,.73l-.42.35a2.3,2.3,0,0,0-1.05-.76l.34-.32h-2.13V385.3h4.79v2.33Zm2-1.87H514.9v.45h3.73Zm0,.86H514.9v.51h3.73Zm-.64,2.92-.29,0h-1.9a.67.67,0,0,1-.55-.43,4.88,4.88,0,0,1-.06-1.06h.53v.76a.27.27,0,0,0,.2.23h1.83c.23,0,.33-.41.41-.69l.48.19c-.09.33-.23.85-.66,1m-2.53-6.16a2.07,2.07,0,0,1,.77.94h1.07a2.43,2.43,0,0,0,.65-.94Zm4.78,6a3,3,0,0,0-1.34-1.11l.41-.34a3.1,3.1,0,0,1,1.33,1.07Z" transform="translate(-162 -57.67)"/><path class="cls-4" d="M522.71,383.59l0,2.76a6.46,6.46,0,0,1-.58,3.1,3.89,3.89,0,0,1-.26.44c-.17-.09-.3-.25-.47-.36a3.63,3.63,0,0,0,.68-1.7,15.85,15.85,0,0,0,.08-1.59v-1.49c0-.49,0-1.14,0-1.67h3.23a1.93,1.93,0,0,0-.71-.65l.51-.28a6.77,6.77,0,0,1,.84.93h2.87v.49Zm6.1,6.25a10.45,10.45,0,0,1-3.09-.82c-.28.13-.54.25-.83.35a8.65,8.65,0,0,1-2,.49l-.36-.49a10.29,10.29,0,0,0,2.7-.65,5.15,5.15,0,0,1-1.37-1.4h-.64v-.48h4.71v.48a2.43,2.43,0,0,1-.47.55,5.8,5.8,0,0,1-1.14.87,6,6,0,0,0,1,.33,11.06,11.06,0,0,0,1.79.28,4.76,4.76,0,0,1-.3.5m-1.51-4.78v1.19h-3.15v-1.2H523v-.48h1.16v-.67h.56v.67h2.06v-.68h.55v.68h1.43v.49Zm-2.86,2.24a3.63,3.63,0,0,0,.89.9,1.34,1.34,0,0,0,.39.25,4.73,4.73,0,0,0,1.55-1.14Zm.26-2.24v.71h2v-.71Z" transform="translate(-162 -57.67)"/><path class="cls-4" d="M531.39,389.37l-.32-.46a.59.59,0,0,0,.28-.43v-3.32h-1.13v-.49h1.66v3.83l.92-.53v.55Zm.36-5.57a3.38,3.38,0,0,0-1-1.15l.36-.32a3.14,3.14,0,0,1,1,1.1Zm4.83,6h-.77l-.18-.51c.29,0,.58,0,.9,0a.29.29,0,0,0,.27-.31v-5.89h-3.21v2.36a16.24,16.24,0,0,1-.12,2.8,3.76,3.76,0,0,1-.82,1.75l-.42-.32a3.38,3.38,0,0,0,.76-1.8,22,22,0,0,0,.08-2.53v-2.75h4.27v6.37a.73.73,0,0,1-.75.82m-2.79-3.84v-.48h1.16v-.85h-1v-.48h1v-.83h.49v.84h1v.47h-1v.85h1.16v.48Zm.36.4h2.06v2.22h-2.06Zm1.56.47h-1.07v1.27h1.07Z" transform="translate(-162 -57.67)"/><path class="cls-4" d="M546,386.27a13.09,13.09,0,0,1-3.32-2.54h-.09v1.59H542v-1.59a6.5,6.5,0,0,1-1.88,1.79l4.54,0v2.8h-4.84v-2.59c-.32.19-.63.39-1,.56l-.1,0-.36-.37a8.1,8.1,0,0,0,3-2.25h-2.65v-.49H542v-1h.54v1h3.3v.49h-2.54a10.67,10.67,0,0,0,3.08,2.13Zm-7.33,3.13v-.49H546v.49Zm5.52-3.37h-3.77v.65h3.77Zm0,1.15h-3.77v.67h3.77Z" transform="translate(-162 -57.67)"/><path class="cls-4" d="M574.32,384.14c0,.5,0,1,0,1.49h1.56v.29l-.06,1.39a9.41,9.41,0,0,1-.26,1.82.8.8,0,0,1-.69.57,3.4,3.4,0,0,1-.77,0l-.1-.45a.52.52,0,0,1,0-.12,4.8,4.8,0,0,0,.79.1c.26-.07.3-.31.34-.53a14.27,14.27,0,0,0,.23-2.5h-1a5.78,5.78,0,0,1-.66,2.81,6.75,6.75,0,0,1-.65.9c-.17-.09-.3-.26-.47-.36a4,4,0,0,0,1-1.73,9.88,9.88,0,0,0,.2-2.29v-1.33h-.85v-.5h3.37v.5Zm.36-.58a2.5,2.5,0,0,0-.93-1.25c.12-.1.3-.19.44-.29a2.63,2.63,0,0,1,1,1.22c-.16.1-.33.22-.5.31m2.49.22a6.13,6.13,0,0,1-.91,1.5l-.45-.32a5,5,0,0,0,1.18-2.7l0-.22.5.17a7.76,7.76,0,0,1-.18,1.07h2.94v.5Zm2.83,6.07a3.33,3.33,0,0,1-.44-.31,4.26,4.26,0,0,1-1.45-2.93c0-.43-.06-.85-.07-1.26l-.81.13V389l1.1-.53v.56c-.54.24-1,.5-1.59.75l-.33-.37a.57.57,0,0,0,.26-.43v-4a6.48,6.48,0,0,0,2.47-.62l.36-.22.44.38a5.51,5.51,0,0,1-1.39.63,10.29,10.29,0,0,0,.09,1.52s.05,0,.06,0a2.86,2.86,0,0,0,1-1l.39.33a2.94,2.94,0,0,1-1.23,1.1l-.14.07a3.4,3.4,0,0,0,1.29,1.95,2.29,2.29,0,0,0,.36.25Z" transform="translate(-162 -57.67)"/><path class="cls-4" d="M588.86,389.6h-3.66a3.46,3.46,0,0,1-2.39-1.15,13.07,13.07,0,0,1-1.27,1.12l-.35-.4a7.67,7.67,0,0,0,1.32-1.2v-2.24h-1.16v-.51H583V388a3.08,3.08,0,0,0,2.17,1.14c1,.05,2.23,0,3.88-.07Zm-6.21-5.3A4.58,4.58,0,0,0,581.6,383l.42-.34a6.33,6.33,0,0,1,1.1,1.31Zm1.15,3.93-.36-.45a3.21,3.21,0,0,0,1.61-1.27l.36.36a3.61,3.61,0,0,1-1.61,1.36m4.68-3.42a3.33,3.33,0,0,1-.93-.41v.42h-1.15v.94h2v.5h-2v2a.56.56,0,0,1-.57.62h-.77l-.2-.56c.27,0,.53,0,.75,0s.26,0,.26-.24v-1.81h-2.06v-.5h2.06v-.94h-1.29v-.37a4.21,4.21,0,0,1-.71.36l-.42-.45a4.58,4.58,0,0,0,2.54-2.22l.45.27-.06.09a4.87,4.87,0,0,0,2.43,1.82ZM586.12,383a6.19,6.19,0,0,1-1.41,1.34l2.75,0a5.31,5.31,0,0,1-1.34-1.36m2.07,5.32a3.2,3.2,0,0,0-1.47-1.39l.42-.38a4,4,0,0,1,1.49,1.43Z" transform="translate(-162 -57.67)"/><path class="cls-4" d="M590.26,389.78l-.42-.31a4.5,4.5,0,0,0,.91-1,4.37,4.37,0,0,0,.32-.59,3.92,3.92,0,0,1,.41.25,4.58,4.58,0,0,1-1.22,1.66m1.88-2.4v-.54h-1.21v.53h-.5v-4.66h2.23v4.65Zm0-2.36h-1.21v1.34h1.22Zm0-1.8h-1.19v1.31h1.2Zm.77,6.45a3.25,3.25,0,0,0-.75-1.48l-.07-.08a3.32,3.32,0,0,1,.49-.18,3.88,3.88,0,0,1,.81,1.55Zm3.71-5.31a.71.71,0,0,1-.51.48,1.67,1.67,0,0,1-.65,0l-.4-.09-.13-.54a2.68,2.68,0,0,0,1,.2c.25-.07.21-.36.3-.54s.12-.52.14-.79H595a3.18,3.18,0,0,1-.41,1.14,2.69,2.69,0,0,1-1.49,1.13l-.33-.49a2.08,2.08,0,0,0,1.4-.92,2.18,2.18,0,0,0,.28-.86h-1.22v-.49h3.67a8.88,8.88,0,0,1-.3,1.82m0,3.31h-.54v-.46H594v.48h-.54v-2.43h3.16Zm-1.7,2a3.34,3.34,0,0,0-.57-1.16,2.11,2.11,0,0,0-.38-.39l.49-.21a4,4,0,0,1,.93,1.55,4.73,4.73,0,0,0-.48.21m1.15-3.93h-2v1h2Zm.8,4.05a3.34,3.34,0,0,0-1.15-1.67,2.09,2.09,0,0,1,.51-.22,4.93,4.93,0,0,1,1.1,1.62c-.15.08-.3.2-.47.27" transform="translate(-162 -57.67)"/><path class="cls-4" d="M600.33,385v1.59H604v3.3h-.54v-2.79h-3.16a4.37,4.37,0,0,1-.51,1.76,4.94,4.94,0,0,1-1.08,1.12l-.43-.44a2.81,2.81,0,0,0,1.44-2.07l0-.69v-4h.53v1.69h2.21v-2.29h.54v2.29h2.46V385Z" transform="translate(-162 -57.67)"/><path class="cls-4" d="M607.24,385.79l-.42-.42a5.13,5.13,0,0,0,2.67-2.77l.47.27a5.7,5.7,0,0,1-2.72,2.92m5.32,1.81a9.58,9.58,0,0,1-.2,1.28.92.92,0,0,1-.58.66,3.07,3.07,0,0,1-1.33-.08l-.31-.05-.16-.62a7.63,7.63,0,0,0,1.39.26.44.44,0,0,0,.29-.12,2.08,2.08,0,0,0,.25-.79,14.47,14.47,0,0,0,.24-2.2h-1.79a5,5,0,0,1-1.23,2.87,4.79,4.79,0,0,1-1.8,1.1l-.37-.48a4,4,0,0,0,2.46-2.07,6.74,6.74,0,0,0,.38-1.43h-1.46v-.53h4.39c0,.75-.08,1.49-.17,2.18m1.34-1.83a6.21,6.21,0,0,1-2.64-2.9l.47-.28a5.53,5.53,0,0,0,2.51,2.69Z" transform="translate(-162 -57.67)"/><path class="cls-4" d="M619.43,388.27v1c0,.37-.18.53-.55.53H618l-.24-.56a6.1,6.1,0,0,0,1,0c.13,0,.19-.07.19-.23v-.78h-3.48v-.5h3.48v-.41a6.73,6.73,0,0,0,1.81-.59H616.4v-.51h5.22v.5a6.34,6.34,0,0,1-2.18.94v.08h3.33v.5Zm-3.77-4.86v-.5h3.16a1.05,1.05,0,0,0-.21-.27,1.89,1.89,0,0,0-.41-.31l.52-.28a2.33,2.33,0,0,1,.68.85h3.07v.51Zm1.08,2.29v-1.79h4.67v1.77Zm4.14-1.28h-3.61v.77h3.61Z" transform="translate(-162 -57.67)"/><path class="cls-4" d="M588.62,212a10.61,10.61,0,0,1-1.95-1v.36h-3.05v-.37a7.28,7.28,0,0,1-2,.84c-.09-.15-.2-.3-.3-.46a6.36,6.36,0,0,0,3.2-1.7c.2-.19.41-.4.59-.61l-.33-.31a4.57,4.57,0,0,0,.85-1,6,6,0,0,0,.44-1l.39.22a5.34,5.34,0,0,1-.25.67h2.66v.46h-1.53a3.61,3.61,0,0,1,.64.83l-.47.21a3,3,0,0,0-.81-1H586a8.65,8.65,0,0,1-.58.77l.35.19-.21.21a7.38,7.38,0,0,0,3.52,2.2Zm-4.84-3.87a3.72,3.72,0,0,1,.64.91l-.45.25a3.28,3.28,0,0,0-.77-1.17h-.37a3.64,3.64,0,0,1-1.1,1.2l-.37-.35a5,5,0,0,0,1.63-2.3l.42.25c-.13.31-.25.51-.35.74h2.13v.47Zm-2.35,5.93v-.49h4.49a6.22,6.22,0,0,0,1.06-2l.52.31a8.4,8.4,0,0,1-1,1.66h2.26v.5Zm2.13-.65a4.08,4.08,0,0,0-1-1.42l.42-.24a3.55,3.55,0,0,1,1,1.42Zm1.69-3.71a8.86,8.86,0,0,1-1.44,1.22l2.74,0a5.43,5.43,0,0,1-1.3-1.23m-.06,3.72a5.06,5.06,0,0,0-1-1.61l.47-.25a4.27,4.27,0,0,1,1,1.61Z" transform="translate(-162 -57.67)"/><path class="cls-4" d="M590.78,213.84a2.78,2.78,0,0,0-.32-.45.47.47,0,0,0,.26-.38v-3h-.83v-.51h1.41V213c.35-.19.77-.37,1.11-.55V213c-.58.33-1,.53-1.63.85m.67-5.38a3.85,3.85,0,0,0-1.16-1l.37-.37a5.28,5.28,0,0,1,1.18,1Zm.4,5.67v-.52h1v-4.14h.53v4.15h1.26V207.9h-2.24v-.5H597a4.54,4.54,0,0,1,0,.49h-1.92v2.31h1.74v.49h-1.74v2.92h2.17v.51Z" transform="translate(-162 -57.67)"/><path class="cls-4" d="M598.52,210.6l-.23-.53a5.36,5.36,0,0,0,2.35-.93l.19.52a5.52,5.52,0,0,1-2.31.93m2.07-2a3.47,3.47,0,0,0-2-.83l.28-.46a3.43,3.43,0,0,1,2,.79Zm3.37,5.9v-.58h-3.78v.64h-.55v-3.16h4.89v3.1Zm1.49-3.35A3.63,3.63,0,0,1,603,209.7a4.07,4.07,0,0,1-2.61,1.49l-.31-.55a3.35,3.35,0,0,0,2.43-1.19,2,2,0,0,0,.38-1.29h-.83a3.16,3.16,0,0,1-.76,1.18l-.48-.32a3.54,3.54,0,0,0,1-2.29l.5.15a4,4,0,0,1-.14.75h3.14a5.69,5.69,0,0,1-.48,1.67l-.53-.14a4.35,4.35,0,0,0,.38-1h-1.26a3.39,3.39,0,0,1-.17,1,3.26,3.26,0,0,0,2.53,1.45Zm-1.49.77h-3.78v1.47H604Z" transform="translate(-162 -57.67)"/><path class="cls-4" d="M608.24,214.34l-.31-.46a.61.61,0,0,0,.2-.43v-3.69h-1.2v-.51h1.74v4.29l1.22-.67v.57Zm.2-6a3.79,3.79,0,0,0-1-1.22l.36-.32a3.61,3.61,0,0,1,1.1,1.21Zm5.28,4.61c-.07.53,0,1.26-.7,1.45a3,3,0,0,1-1,0l-.21-.56a4,4,0,0,0,.9.1c.38,0,.42-.58.47-.93a36.31,36.31,0,0,0,.25-4.68h-2.58a5.77,5.77,0,0,1-.48,1h2.29v4h-.54v-.58h-1.41v.58h-.54v-3.71a4.56,4.56,0,0,1-.56.62l-.43-.34a4.88,4.88,0,0,0,1.51-3.14l.48.14c-.06.31-.1.61-.19.92h3c0,1.91-.09,3.9-.26,5.16m-1.6-3.17h-1.41v.94h1.41Zm0,1.43h-1.41v1h1.41Z" transform="translate(-162 -57.67)"/><path class="cls-4" d="M499.25,297.55a8.27,8.27,0,0,1-.55,1.1h3.66v.49c-.55.6-1.16,1.21-1.64,1.7a6.65,6.65,0,0,1,1.21.9l-.35.43c-.2-.16-.39-.35-.6-.5a9.18,9.18,0,0,0-2.79-1.38l.33-.4a15.06,15.06,0,0,1,1.69.68c.38-.38,1-1,1.36-1.41h-3.53v-.5a5.42,5.42,0,0,0,.64-1.1h-2.46v-.5h2.66a7.42,7.42,0,0,0,.28-1h-2.45v-.49h2.53c.06-.35.1-.71.14-1.08l.52.14a6.49,6.49,0,0,1-.11.94h2.89v.49h-3c-.09.31-.13.69-.26,1h4.08v.49Z" transform="translate(-162 -57.67)"/><path class="cls-4" d="M505.93,301.58l-.31-.46a.5.5,0,0,0,.2-.42v-2.91h-1.24v-.5h1.77v3.5l1.24-.67v.57Zm.55-5.18a3.8,3.8,0,0,0-1-1.22l.36-.31a3.6,3.6,0,0,1,1.1,1.21Zm5.24,5.74a7.8,7.8,0,0,1-2.1-1.16,8.6,8.6,0,0,1-2.1,1.19l-.35-.44a6.8,6.8,0,0,0,2-1.11,6.13,6.13,0,0,1-1.11-1.89h-.39v-.5h3.62a4.24,4.24,0,0,1-1.34,2.39,6.49,6.49,0,0,0,2.2,1.09Zm-.79-4.61a.55.55,0,0,1-.58-.63v-1.44H508.8v.88a2,2,0,0,1-.58,1.43,2.18,2.18,0,0,1-.64.41l-.37-.43a1.55,1.55,0,0,0,1.08-1.72v-1.06h2.57v1.9c0,.1,0,.19.23.19H512v.48Zm-2.26,1.21a4.9,4.9,0,0,0,.94,1.54,4.44,4.44,0,0,0,1-1.54Z" transform="translate(-162 -57.67)"/><path class="cls-4" d="M514.49,297.82v4.45H514v-3.82a4.14,4.14,0,0,1-.68.6l-.47-.31a6.06,6.06,0,0,0,1.88-2.23l.38.27a6.77,6.77,0,0,1-.59,1m-1.13-1-.43-.34a5.37,5.37,0,0,0,1.62-1.93l.43.23a5.46,5.46,0,0,1-1.61,2m3.67,4.49-.4-.3a1,1,0,0,0,.23-.74v-.69H516a5.56,5.56,0,0,1-.1,1.18,3,3,0,0,1-.78,1.4l-.42-.35a2.42,2.42,0,0,0,.68-1.07,3.54,3.54,0,0,0,.09-.94V299h1.91v1.44l.86-.51v.55Zm3.25.87a7,7,0,0,1-1.25-1.57,6.79,6.79,0,0,1-1.32,1.63l-.42-.38a6.18,6.18,0,0,0,1.48-1.85,8.3,8.3,0,0,1-.48-1.89l-.36.61-.23-.18h-2.77V298h2.74a7.58,7.58,0,0,0,.86-3.54l.46.11a11.6,11.6,0,0,1-.14,1.63h1.54v.51H520a9.26,9.26,0,0,1-.68,3.26,6,6,0,0,0,1.4,1.78Zm-5.1-4.71v-2.12h.53v1.61h.52v-2.38h.54v2.38h.52v-1.61h.54v2.12Zm3.57-.71-.09.37a7.93,7.93,0,0,0,.4,2.17,9,9,0,0,0,.45-2.53Z" transform="translate(-162 -57.67)"/><path class="cls-4" d="M523.17,296.42v5.81h-.53v-4.89a6.07,6.07,0,0,1-.82,1.23l-.48-.33a6.65,6.65,0,0,0,1.1-1.63l.06-.09a14.28,14.28,0,0,0,.78-2l.52.2a14.18,14.18,0,0,1-.65,1.67m.48-.17v-.5h2.72a3.68,3.68,0,0,0-1-1l.38-.31.06,0a3.69,3.69,0,0,1,1,1l-.25.29h2.59v.5Zm.5.82h4.3v.49h-4.3Zm0,1.27h4.29v.49h-4.29Zm3.63,3.86v-.49h-3v.51h-.54v-2.55h4v2.53Zm0-2h-3v1h3Z" transform="translate(-162 -57.67)"/><path class="cls-4" d="M537.2,302.13a8.92,8.92,0,0,1-3.36-1.68h0a8.59,8.59,0,0,1-3.34,1.72l-.35-.54a7.76,7.76,0,0,0,3-1.33l.31-.29a6.22,6.22,0,0,1-1.18-1.93l.48-.21a6.69,6.69,0,0,0,1.08,1.76l0,0a6.55,6.55,0,0,0,1.07-1.85l.48.26a7,7,0,0,1-1.19,2,8,8,0,0,0,3.36,1.56Zm-5.8-3.86a6,6,0,0,1-.65.36l-.38-.42a5.35,5.35,0,0,0,2.18-1.69l.38.32a4.85,4.85,0,0,1-1.53,1.44m-1-2v-.52h3.34A2.19,2.19,0,0,0,533,295l-.28-.17.44-.31a1.73,1.73,0,0,1,.44.27,2.57,2.57,0,0,1,.66.7l-.34.23,3.28,0v.53Zm6.27,2.45a4.89,4.89,0,0,0-2.21-1.83l.49-.34a5.15,5.15,0,0,1,2.18,1.8Z" transform="translate(-162 -57.67)"/><path class="cls-4" d="M539.72,298.27a2.41,2.41,0,0,0-1.36-1.19l.4-.37a2.65,2.65,0,0,1,1.39,1.23ZM539,302l-.46-.35a4.44,4.44,0,0,0,1.37-2.67l.05-.29.49.21A5.55,5.55,0,0,1,539,302m1.1-5.8a2.11,2.11,0,0,0-1.26-1l.38-.37a2.51,2.51,0,0,1,1.27,1Zm1.16,5.35a2.75,2.75,0,0,1-.91.61l-.4-.47a2.49,2.49,0,0,0,1-.69,3,3,0,0,0,.47-2v-.54h.53c0,1.23,0,2.33-.71,3M543.1,296a4.66,4.66,0,0,1-1.27,1.67h.28l2.47-.26a2.17,2.17,0,0,0-.76-.47l.48-.32c.1,0,.08,0,.16.08a3.18,3.18,0,0,1,1.25,1.34l-.47.32a3.88,3.88,0,0,0-.32-.53l-1.26.13-1.7.21-.94.15c-.1-.18-.26-.31-.37-.48a3.42,3.42,0,0,0,1.22-.89,6.15,6.15,0,0,0,.63-1h-1.86v-.51H543a2.21,2.21,0,0,0-1-.75l.44-.31a2.07,2.07,0,0,1,1,.88l-.27.16,2.61,0v.5Zm-.34,2.58h.53v3.53h-.53Zm3.23,2.86a.69.69,0,0,1-.5.48c-.35,0-.79.11-1-.2a.49.49,0,0,1-.17-.27v-2.86h.54v2.57a.27.27,0,0,0,.11.23c.11.09.25.05.37.05a.23.23,0,0,0,.2-.12,3.59,3.59,0,0,0,.16-1l.5.18a3.9,3.9,0,0,1-.18,1" transform="translate(-162 -57.67)"/><path class="cls-4" d="M553.09,300v2.14h-.53V300H550.9v-.5h1.65v-1.33h-1.11v-.5h1.11v-1.26h-1.33v.29h-.54v1.45h-2a5.14,5.14,0,0,1-.27.71h2.16v3.28H550a5.07,5.07,0,0,0,0-.51h-1.63v.52h-.54v-2.43a3.26,3.26,0,0,1-.67.65c-.15-.09-.27-.26-.42-.36a3.11,3.11,0,0,0,1.11-1.27,3.6,3.6,0,0,0,.26-.58h-.73v-.5h.84a7,7,0,0,0,.13-1H547v-.49h1.42c0-.3,0-.58,0-.88h-1v-.5h3.23v1.38h.47v-.3h1.12a2.52,2.52,0,0,0-.53-.91,1.53,1.53,0,0,0-.43-.35l.43-.27a2.9,2.9,0,0,1,.59.57l.42.65c-.13.11-.28.2-.42.32h.58a2.91,2.91,0,0,0,.8-1.56,4.52,4.52,0,0,1,.47.28,3,3,0,0,1-.63,1.28h.94v.5h-1.4v1.27h1.12v.5h-1.13v1.33h1.63v.5Zm-3.05-.64h-1.63v1.75H550Zm-1.12-2.67a5.75,5.75,0,0,1-.11.94h1.33v-1Zm1.23-1.38h-1.22v.88h1.22Z" transform="translate(-162 -57.67)"/><path class="cls-4" d="M578.93,298.16v4h-.53v-3.42a11.12,11.12,0,0,1-1,.74,6.15,6.15,0,0,1-.46-.42,8.66,8.66,0,0,0,2.62-2.56l.43.29a10.83,10.83,0,0,1-1.05,1.38M577.5,297s0,0-.06-.05l-.38-.33a7.89,7.89,0,0,0,2.13-2.25l.41.31A8.63,8.63,0,0,1,577.5,297m5.5.65v3.76a.76.76,0,0,1-.35.58,1,1,0,0,1-.54.1h-.92c-.05-.18-.13-.35-.17-.54a10.92,10.92,0,0,0,1.15,0,.3.3,0,0,0,.26-.27v-3.65h-2.24v-.52h4.38v.51ZM580.39,295H584v.52h-3.64Z" transform="translate(-162 -57.67)"/><path class="cls-4" d="M585.71,296.18v-.5H588a3,3,0,0,0-1-1l.52-.31a4.36,4.36,0,0,1,1,1.32H590a3.83,3.83,0,0,0,.85-1.35l.5.28a4,4,0,0,1-.71,1.07H593v.5Zm2.95,5.8h-.76l-.18-.5.86,0c.11,0,.2-.05.2-.22v-1.1H587v1.89h-.54V297h2.82v4.32a.65.65,0,0,1-.65.68m.12-4.5H587v.84h1.75Zm0,1.32H587v.92h1.75Zm1.46-1.53h.53v3.31h-.53Zm1.39,4.86h-.77l-.17-.51a5.49,5.49,0,0,0,.82,0c.16,0,.22-.14.22-.31v-4.65h.53v4.71a.67.67,0,0,1-.63.73" transform="translate(-162 -57.67)"/><path class="cls-4" d="M595.38,301.44l-.32-.46a.53.53,0,0,0,.21-.42v-3h-1.09v-.5h1.63v3.56L597,300v.57Zm.48-5.15a3.8,3.8,0,0,0-1-1.22l.37-.31a3.62,3.62,0,0,1,1.1,1.21Zm5.31,5.2a.6.6,0,0,1-.56.32H600a.72.72,0,0,1-.75-.65V299h-.66a3.31,3.31,0,0,1-1.61,3,3.24,3.24,0,0,1-.39.19l-.35-.47a2.66,2.66,0,0,0,1.64-1.67,4,4,0,0,0,.16-1.05h-.94v-2.58h3.64V299h-1v2.07a.24.24,0,0,0,.26.25h.43a.32.32,0,0,0,.31-.2,5.62,5.62,0,0,0,.28-1l.48.26a5.07,5.07,0,0,1-.38,1.14m-3-5.32a3.46,3.46,0,0,0-1-1.55l.44-.24a3.6,3.6,0,0,1,1,1.53Zm2,.75h-2.55v1.58h2.55Zm-.38-.7-.48-.24a4.74,4.74,0,0,0,1-1.62l.42.22a4.53,4.53,0,0,1-1,1.63" transform="translate(-162 -57.67)"/><path class="cls-4" d="M605.09,300.31v-.55h-1.48v.56h-.51v-4.93h2.5v4.93Zm-1.48-4.42v1.37h1.45v-1.38Zm1.47,1.88h-1.47v1.49h1.47Zm4.52,3.65a.86.86,0,0,1-.6.58c-.31,0-.57,0-.89,0l-.18-.54a4.28,4.28,0,0,0,.93,0,.29.29,0,0,0,.2-.2v-1.9H607a3.7,3.7,0,0,1-1.35,2.52,2.45,2.45,0,0,1-.36.28c-.15-.13-.28-.27-.43-.4a3.5,3.5,0,0,0,1.33-1.42s0,0,0-.06a5.13,5.13,0,0,0,.3-2.18v-3.25h3.13Zm-.53-6h-2v1.45h2Zm0,1.95H607v1.53h2.06Z" transform="translate(-162 -57.67)"/><path class="cls-4" d="M618.26,298.64a13.7,13.7,0,0,1-3.55-3.25,9.59,9.59,0,0,1-1.56,1.9h3.28v.49h-3.34v-.43a9.51,9.51,0,0,1-1.72,1.28l-.41-.41a8.29,8.29,0,0,0,1.61-1.08,10.24,10.24,0,0,0,2.11-2.68l.46.18a2.48,2.48,0,0,1-.17.31,11.19,11.19,0,0,0,2.74,2.68l.92.6Zm-.71,3.31a3.88,3.88,0,0,0-.45-.5l-3.39.43-1.27.2-.37-.66a15.11,15.11,0,0,0,2.46-2.14h-2.93v-.48h6.34v.48h-3.27l.36.29a11.81,11.81,0,0,1-2.21,1.92l3.75-.45a3.51,3.51,0,0,0-.89-.55l.34-.34a6.3,6.3,0,0,1,1,.63,4.88,4.88,0,0,1,.9.84Z" transform="translate(-162 -57.67)"/><rect class="cls-3" x="425.16" y="110.83" width="21.28" height="28.24"/><polygon class="cls-5" points="444.12 134.62 424.78 139.07 424.78 110.83 444.12 106.38 444.12 134.62"/><polygon class="cls-3" points="444.12 134.62 424.78 139.07 424.78 110.83 444.12 106.38 444.12 134.62"/><line class="cls-3" x1="428" y1="132.24" x2="440.38" y2="129.26"/><path class="cls-6" d="M596.18,172.26h0a8.1,8.1,0,0,0-5.63,7.27,4.07,4.07,0,0,0,5.25,4.14h0l.37-.09h0l.43-.14h0a8.15,8.15,0,0,0,5.24-7.14c0-3.12-2.55-4.93-5.69-4m4.71,6.89-2,.56a8.29,8.29,0,0,0,.48-2.57l2.14-.61a6.52,6.52,0,0,1-.66,2.62m-4.57,4.08v-2.47l2.14-.61a10.36,10.36,0,0,1-1.92,3l-.23.08m-.47.13a4.59,4.59,0,0,1-1.92-1.91l2.08-.6v2.46l-.16,0m-5-3.76L593,179a6,6,0,0,0,.48,2.29l-2,.56a4.29,4.29,0,0,1-.66-2.24m.68-3,2-.56a8.34,8.34,0,0,0-.5,2.61l-2.14.61a6.58,6.58,0,0,1,.68-2.67m4.49-4V175l-2.06.59a10.39,10.39,0,0,1,1.9-3l.16-.05m.53-.14a4.61,4.61,0,0,1,1.9,1.87l-2.12.61v-2.42l.23-.05m2,2.14a5.72,5.72,0,0,1,.52,2.32l-2.78.8v-2.47Zm-2.57.74v2.47l-2.72.78a8.06,8.06,0,0,1,.52-2.62Zm-2.72,3.55,2.72-.78v2.43l-2.22.64a5.72,5.72,0,0,1-.5-2.28m3,1.56V178l2.78-.8a8,8,0,0,1-.5,2.57Zm3.09-3.62a6,6,0,0,0-.5-2.33l2-.56a4.23,4.23,0,0,1,.69,2.27Zm1.27-3.14-1.89.54a4.8,4.8,0,0,0-1.69-1.86,3.91,3.91,0,0,1,3.59,1.32m-5.35-.83a10.7,10.7,0,0,0-1.71,2.85l-1.9.54a7.94,7.94,0,0,1,3.61-3.39m-3.63,9.21,1.91-.55a4.8,4.8,0,0,0,1.72,1.91,3.87,3.87,0,0,1-3.63-1.36m5.4.84a10.66,10.66,0,0,0,1.71-2.88l1.9-.54a8,8,0,0,1-3.61,3.42" transform="translate(-162 -57.67)"/><path class="cls-7" d="M608.82,276a2.64,2.64,0,0,1-2-.95.23.23,0,0,1,0-.24,13.75,13.75,0,0,0,1.08-3.8.23.23,0,0,1,.15-.18,2.65,2.65,0,1,1,.83,5.17m0-4.85a2.21,2.21,0,0,0-.52.06,16.13,16.13,0,0,1-1.06,3.62,2.05,2.05,0,0,0,1.58.72,2.2,2.2,0,0,0,0-4.4" transform="translate(-162 -57.67)"/><path class="cls-7" d="M596.81,282.17c-6,0-11-5.08-11.55-11.82a1.31,1.31,0,0,1,.35-1,1.54,1.54,0,0,1,1.14-.49h20.12a1.54,1.54,0,0,1,1.14.49,1.3,1.3,0,0,1,.35,1c-.57,6.74-5.54,11.82-11.55,11.82m-10.06-12.87a1.09,1.09,0,0,0-.81.34.86.86,0,0,0-.23.66c.55,6.51,5.33,11.41,11.1,11.41s10.55-4.91,11.1-11.41a.86.86,0,0,0-.23-.66,1.09,1.09,0,0,0-.81-.34Z" transform="translate(-162 -57.67)"/><path class="cls-7" d="M593.11,266.75a.22.22,0,0,1,0-.45c1.54,0,2.8-1,2.8-2.19s-1.05-2-2.82-2.19-2.73-1.07-2.73-2.23a2.53,2.53,0,0,1,2.75-2.23.22.22,0,1,1,0,.45,2.09,2.09,0,0,0-2.3,1.79c0,1.1,1.2,1.64,2.33,1.79,2,.17,3.22,1.16,3.22,2.64s-1.46,2.64-3.25,2.64" transform="translate(-162 -57.67)"/><path class="cls-7" d="M599.33,266.75a.22.22,0,1,1,0-.45c1.54,0,2.8-1,2.8-2.19s-1.05-2-2.82-2.19-2.73-1.07-2.73-2.23a2.53,2.53,0,0,1,2.75-2.23.22.22,0,0,1,0,.45,2.09,2.09,0,0,0-2.3,1.79c0,1.1,1.2,1.64,2.33,1.79,2,.17,3.22,1.16,3.22,2.64s-1.46,2.64-3.25,2.64" transform="translate(-162 -57.67)"/><path class="cls-7" d="M596.81,284.75c-8.17,0-16.86-1-16.86-2.8a.22.22,0,0,1,.22-.22h33.27a.22.22,0,0,1,.22.22c0,1.82-8.69,2.8-16.86,2.8m-16.17-2.47c.42.33,1.53.82,4.44,1.27a92,92,0,0,0,23.46,0c2.91-.45,4-.94,4.44-1.27l.14-.11H580.5Z" transform="translate(-162 -57.67)"/><path class="cls-8" d="M526.5,194a9.06,9.06,0,0,0,5.09-2.23,10.26,10.26,0,0,0,2.84-6.73v-8.24a9.73,9.73,0,0,0-9.32-9.32H523.9a9.73,9.73,0,0,0-9.32,9.32V185" transform="translate(-162 -57.67)"/><path class="cls-8" d="M514.29,185.15a4.74,4.74,0,0,1,0-9.39" transform="translate(-162 -57.67)"/><path class="cls-8" d="M534.69,185.15a4.74,4.74,0,0,0,0-9.39" transform="translate(-162 -57.67)"/><path class="cls-8" d="M520.69,184.5a4.2,4.2,0,0,0,7.61,0" transform="translate(-162 -57.67)"/><circle class="cls-9" cx="362.49" cy="136.33" r="2"/><path class="cls-8" d="M514.41,176a10,10,0,0,0,6.77-5,10,10,0,0,0,12.08,1.75" transform="translate(-162 -57.67)"/><rect class="cls-10" width="241.33" height="443.33"/><path class="cls-3" d="M252.25,260.27a14.12,14.12,0,0,0-11.57-.9,11.77,11.77,0,0,0-6.07,4.78,8.94,8.94,0,0,0-1.11,6.86,10.49,10.49,0,0,0,4.55,6.16c-.41,1.19-.81,2.37-1.19,3.57,1.37-.71,2.73-1.46,4.09-2.18a15.15,15.15,0,0,0,5.11.73,8.8,8.8,0,0,1-.35-4.12,8.18,8.18,0,0,1,2.89-4.77,12.1,12.1,0,0,1,9-2.46A12,12,0,0,0,252.25,260.27Z" transform="translate(-162 -57.67)"/><path class="cls-3" d="M265.45,273.48a9.23,9.23,0,0,0-4.32-4.39,11.88,11.88,0,0,0-10.65,0,8.84,8.84,0,0,0-4.72,5.81,7.47,7.47,0,0,0,.95,5.53,10.19,10.19,0,0,0,6.94,4.53,12.69,12.69,0,0,0,6.06-.4c1.17.46,2.22,1.19,3.36,1.74-.29-1-.6-2-.94-2.93a9.57,9.57,0,0,0,3.13-3.46A7.5,7.5,0,0,0,265.45,273.48Z" transform="translate(-162 -57.67)"/><circle class="cls-3" cx="90.68" cy="216.08" r="1.44"/><circle class="cls-3" cx="97.54" cy="216.08" r="1.44"/><circle class="cls-3" cx="79.23" cy="207.64" r="1.77"/><circle class="cls-3" cx="87.67" cy="207.64" r="1.77"/><rect class="cls-3" x="77.42" y="286.67" width="21.85" height="29"/><rect class="cls-3" x="81.17" y="291.66" width="4.77" height="4.77"/><rect class="cls-3" x="81.17" y="298.81" width="4.77" height="4.77"/><rect class="cls-3" x="81.17" y="305.96" width="4.77" height="4.77"/><polyline class="cls-3" points="82.13 294.2 83.4 295.81 85.94 291.66"/><line class="cls-3" x1="87.63" y1="296.42" x2="95.97" y2="296.42"/><line class="cls-3" x1="87.63" y1="303.58" x2="95.97" y2="303.58"/><line class="cls-3" x1="87.63" y1="310.73" x2="95.97" y2="310.73"/><circle class="cls-3" cx="153.07" cy="292.46" r="4.59"/><circle class="cls-3" cx="170.01" cy="300.88" r="4.59"/><circle class="cls-3" cx="153.07" cy="309.29" r="4.59"/><line class="cls-3" x1="157.33" y1="293.77" x2="165.86" y2="298.36"/><line class="cls-3" x1="157.33" y1="307.32" x2="165.86" y2="302.73"/><path class="cls-5" d="M235.66,208.79c0,.5,0,1,0,1.49h1.56v.29l-.06,1.39a9.4,9.4,0,0,1-.26,1.82.8.8,0,0,1-.69.57,3.34,3.34,0,0,1-.77,0l-.1-.45a.52.52,0,0,1,0-.12,4.81,4.81,0,0,0,.79.1c.25-.07.3-.32.34-.54a14.26,14.26,0,0,0,.23-2.5h-1a5.78,5.78,0,0,1-.66,2.81,6.69,6.69,0,0,1-.65.9c-.17-.09-.3-.26-.47-.36a3.94,3.94,0,0,0,1-1.73,9.88,9.88,0,0,0,.2-2.29v-1.33h-.85v-.5h3.37v.5Zm.36-.58a2.5,2.5,0,0,0-.93-1.25c.12-.1.3-.19.44-.29a2.63,2.63,0,0,1,1,1.22c-.16.1-.33.22-.5.31m2.49.22a6.13,6.13,0,0,1-.91,1.5l-.45-.32a5,5,0,0,0,1.18-2.7l0-.22.5.17a7.75,7.75,0,0,1-.18,1.07h2.94v.5Zm2.83,6.07a3.24,3.24,0,0,1-.44-.31,4.26,4.26,0,0,1-1.45-2.93c0-.43-.06-.85-.07-1.26l-.81.13v3.55l1.1-.54v.56c-.54.24-1,.5-1.59.75l-.33-.37a.57.57,0,0,0,.25-.43v-4a6.47,6.47,0,0,0,2.47-.62l.36-.22.44.38a5.47,5.47,0,0,1-1.39.63,10.31,10.31,0,0,0,.09,1.52s.05,0,.06,0a2.86,2.86,0,0,0,1-1l.39.33a3,3,0,0,1-1.23,1.1l-.14.07a3.41,3.41,0,0,0,1.29,1.95,2.43,2.43,0,0,0,.36.25Z" transform="translate(-162 -57.67)"/><path class="cls-5" d="M243,214.47l-.44-.27a3.06,3.06,0,0,1,.19-.31,7.36,7.36,0,0,0,1-3l.45.25a6.92,6.92,0,0,1-1.18,3.37m1-4.16a2.77,2.77,0,0,0-1.37-1.14l.31-.37a2.77,2.77,0,0,1,1.44,1.15Zm0-1.75a2.48,2.48,0,0,0-1.33-1.08l.32-.37a2.58,2.58,0,0,1,1.38,1.05Zm3.81,0a4.42,4.42,0,0,1-.81,1.22l-.44-.28a3.8,3.8,0,0,0,.47-.57h-1.53l0,1.32H247a21.58,21.58,0,0,1-.43,3.44.92.92,0,0,1-.38.64,1.62,1.62,0,0,1-1,0l-.18-.59a4.29,4.29,0,0,0,.82.15.2.2,0,0,0,.18-.11,3.62,3.62,0,0,0,.22-1l.07-.55.14-1.51h-1a6.1,6.1,0,0,1-.75,3,6.71,6.71,0,0,1-.57.82l-.41-.36a4.9,4.9,0,0,0,1.16-2.86c.05-.79.09-1.62.09-2.47h-.57v-.5h2.67v.42a5.84,5.84,0,0,0,.73-2.07l.46.17A6.07,6.07,0,0,1,248,208h2.13v.5Zm-2.18-.2A2.6,2.6,0,0,0,245,207l.42-.26a2.71,2.71,0,0,1,.68,1.3Zm3.23,3.68v1.89a.56.56,0,0,1-.57.64h-.77l-.17-.54h.74c.16,0,.22-.06.24-.16V212H247v-.5h1.27v-.74a3.37,3.37,0,0,0,.92-.88h-1.86v-.5h2.5v.48a4.14,4.14,0,0,1-1,1.17v.49h1.39v.5Z" transform="translate(-162 -57.67)"/><path class="cls-5" d="M252.17,207.63v3a5.75,5.75,0,0,1-.85,3.79l-.42-.37a5.25,5.25,0,0,0,.76-3.42v-3.43h3.19v.48Zm.77,6.31-.26-.51,0-.07v-5h2c0,.56,0,1.49,0,1.83a3,3,0,0,1-.22,1.32.67.67,0,0,1-.54.28,2.65,2.65,0,0,1-.47-.07,2.86,2.86,0,0,1-.15-.54c.18,0,.51.19.62.13.26-.15.26-.46.3-.72,0-.48,0-1.2,0-1.75h-1.08v4.38c.53-.2,1.21-.61,1.76-.88v.53c-.59.31-1.14.71-2,1.13m3.87-1.73a3.68,3.68,0,0,1-1.9,2.22l-.34-.41a7.33,7.33,0,0,0,.9-.58c1.23-.94,1-2.58,1-4H257a13.25,13.25,0,0,1-.16,2.74m.26-4.57a4.68,4.68,0,0,1-.36.83h1.48v4h-.49v-3.49H255.8v3.65h-.48v-4.13h.87a3.34,3.34,0,0,0,.39-.84H255v-.47h3.58v.48Zm1.28,6.72a5.24,5.24,0,0,0-1.35-1.6l.38-.27a5.34,5.34,0,0,1,1.37,1.56Z" transform="translate(-162 -57.67)"/><path class="cls-5" d="M260.16,208.28h.51v6.2h-.51Zm2,.19a3.76,3.76,0,0,0-1.27-1.07l.32-.36a5.45,5.45,0,0,1,1.33,1Zm2.23,4v-.34h-2v.53h-.51v-3.35h3v3.16Zm0-2.65h-1.94v1.81h1.94Zm1.78,4.56h-.91l-.19-.52.88,0a.33.33,0,0,0,.19-.15v-6h-3v-.49h3.56v6.46a.67.67,0,0,1-.49.68" transform="translate(-162 -57.67)"/><path class="cls-5" d="M230.21,389.61l-.41-.32a10.43,10.43,0,0,0,1.5-2.86l.42.19a8.11,8.11,0,0,1-1.51,3m.86-4.15a3.79,3.79,0,0,0-1.09-1l.25-.35a3.53,3.53,0,0,1,1.17,1Zm.36-1.8a3.38,3.38,0,0,0-1.15-1l.31-.32a3.28,3.28,0,0,1,1.17,1Zm4.28,1.14v.66h1.42V389a.65.65,0,0,1-.22.55c-.23.16-.42.16-.93.16l-.18-.51.59,0c.08,0,.21,0,.21-.23v-1.22l-.31.3a3.63,3.63,0,0,0-.88-.79,4.1,4.1,0,0,1-1,1.46l-.4-.33a5.21,5.21,0,0,0,.7-.82,2.44,2.44,0,0,0-.68-.6,4.55,4.55,0,0,1-1,1.69l-.34-.29v1.41h-.54v-4.32h1.6v-.66h-1.84v-.51h5.5v.5Zm.1-1.48V384h-.52v-.72H234V384h-.52v-.72H232v-.49h1.47v-.68H234v.68h1.33v-.66h.52v.66h1.5v.49ZM232.67,386v2.29a3.52,3.52,0,0,0,1-2.28Zm1.55,0a3.74,3.74,0,0,1-.08.54,3.73,3.73,0,0,1,.83.62,3.66,3.66,0,0,0,.2-1.16Zm1-1.16h-.93v.66h.93Zm1.43,1.16h-.94a6,6,0,0,1-.11.87,3.84,3.84,0,0,1,1,.88Z" transform="translate(-162 -57.67)"/><path class="cls-5" d="M238.62,389.41l-.3-.48a2.82,2.82,0,0,0,1.55-.93l.35.35a3.84,3.84,0,0,1-1.6,1.06m-.09-4.6v-.51H241c0-.11-.15-.19-.23-.28a1.78,1.78,0,0,0-.53-.36l.4-.29-1.56,0v-.5h2.71a2,2,0,0,0-.63-.47l.5-.32a3,3,0,0,1,.71.78h2.71v.5h-1.68l.4.15a2.69,2.69,0,0,1-.55.79h2.43v.51Zm3.44,2.81a3.48,3.48,0,0,1,1,.73l-.42.35a2.3,2.3,0,0,0-1.05-.76l.34-.32h-2.13V385.3h4.79v2.33Zm2-1.87h-3.73v.45H244Zm0,.86h-3.74v.51H244Zm-.64,2.92-.29,0h-1.9a.67.67,0,0,1-.55-.43,4.87,4.87,0,0,1-.06-1.06h.53v.76a.27.27,0,0,0,.2.23h1.83c.23,0,.33-.41.41-.69l.48.19c-.09.33-.23.85-.66,1m-2.53-6.16a2.07,2.07,0,0,1,.77.94h1.07a2.43,2.43,0,0,0,.65-.94Zm4.78,6a3,3,0,0,0-1.34-1.11l.41-.34A3.1,3.1,0,0,1,246,389Z" transform="translate(-162 -57.67)"/><path class="cls-5" d="M248.06,383.59l0,2.76a6.46,6.46,0,0,1-.58,3.1,3.88,3.88,0,0,1-.26.44c-.17-.09-.31-.25-.47-.36a3.63,3.63,0,0,0,.68-1.7,15.85,15.85,0,0,0,.08-1.59v-1.49c0-.49,0-1.14,0-1.67h3.23a1.93,1.93,0,0,0-.71-.65l.51-.28a6.77,6.77,0,0,1,.84.93h2.87v.49Zm6.1,6.25a10.45,10.45,0,0,1-3.09-.82c-.28.13-.54.25-.82.35a8.65,8.65,0,0,1-2,.49l-.36-.49a10.29,10.29,0,0,0,2.7-.65,5.15,5.15,0,0,1-1.37-1.4h-.64v-.48h4.71v.48a2.43,2.43,0,0,1-.47.55,5.8,5.8,0,0,1-1.14.87,6,6,0,0,0,1,.33,11.06,11.06,0,0,0,1.79.28,4.77,4.77,0,0,1-.3.5m-1.51-4.78v1.19h-3.15v-1.2h-1.17v-.48h1.16v-.67H250v.67h2.06v-.68h.55v.68h1.43v.49Zm-2.86,2.24a3.63,3.63,0,0,0,.89.9,1.34,1.34,0,0,0,.39.25,4.73,4.73,0,0,0,1.55-1.14Zm.26-2.24v.71h2v-.71Z" transform="translate(-162 -57.67)"/><path class="cls-5" d="M256.73,389.37l-.31-.46a.59.59,0,0,0,.28-.43v-3.32h-1.13v-.49h1.66v3.83l.92-.53v.55Zm.36-5.57a3.38,3.38,0,0,0-1-1.15l.36-.32a3.14,3.14,0,0,1,1,1.1Zm4.83,6h-.77l-.18-.51c.29,0,.58,0,.9,0a.29.29,0,0,0,.27-.31v-5.89h-3.21v2.36a16.24,16.24,0,0,1-.12,2.8A3.76,3.76,0,0,1,258,390l-.42-.32a3.38,3.38,0,0,0,.76-1.8,22.06,22.06,0,0,0,.08-2.53v-2.75h4.27v6.37a.73.73,0,0,1-.75.82m-2.79-3.84v-.48h1.16v-.85h-1v-.48h1v-.83h.49v.84h1v.47h-1v.85h1.16v.48Zm.36.4h2.06v2.22H259.5Zm1.56.47H260v1.27h1.07Z" transform="translate(-162 -57.67)"/><path class="cls-5" d="M271.31,386.27a13.11,13.11,0,0,1-3.32-2.54h-.08v1.59h-.54v-1.59a6.52,6.52,0,0,1-1.88,1.79l4.54,0v2.8h-4.84v-2.59c-.32.19-.63.39-1,.56l-.1,0-.36-.37a8.1,8.1,0,0,0,3-2.25H264.1v-.49h3.27v-1h.54v1h3.3v.49h-2.54a10.66,10.66,0,0,0,3.08,2.13ZM264,389.4v-.49h7.33v.49Zm5.52-3.37h-3.77v.65h3.77Zm0,1.15h-3.77v.67h3.77Z" transform="translate(-162 -57.67)"/><path class="cls-5" d="M299.66,384.14c0,.5,0,1,0,1.49h1.56v.29l-.06,1.39a9.48,9.48,0,0,1-.26,1.82.8.8,0,0,1-.69.57,3.4,3.4,0,0,1-.77,0l-.1-.45a.56.56,0,0,1,0-.12,4.83,4.83,0,0,0,.79.1c.26-.07.3-.31.34-.53a14.27,14.27,0,0,0,.23-2.5h-1A5.78,5.78,0,0,1,299,389a6.76,6.76,0,0,1-.65.9c-.17-.09-.3-.26-.47-.36a4,4,0,0,0,1-1.73,9.83,9.83,0,0,0,.2-2.29v-1.33h-.85v-.5h3.37v.5Zm.36-.58a2.49,2.49,0,0,0-.93-1.25c.12-.1.3-.19.44-.29a2.63,2.63,0,0,1,1,1.22c-.16.1-.33.22-.5.31m2.49.22a6.07,6.07,0,0,1-.91,1.5l-.45-.32a5,5,0,0,0,1.18-2.7l0-.22.5.17a7.47,7.47,0,0,1-.18,1.07h2.94v.5Zm2.83,6.07a3.27,3.27,0,0,1-.44-.31,4.26,4.26,0,0,1-1.45-2.93c0-.43-.06-.85-.07-1.26l-.81.13V389l1.1-.53v.56c-.54.24-1,.5-1.59.75l-.33-.37A.57.57,0,0,0,302,389v-4a6.48,6.48,0,0,0,2.47-.62l.36-.22.44.38a5.53,5.53,0,0,1-1.39.63,10.29,10.29,0,0,0,.09,1.52s.05,0,.06,0a2.85,2.85,0,0,0,1-1l.39.33a2.94,2.94,0,0,1-1.23,1.1l-.14.07a3.41,3.41,0,0,0,1.29,1.95,2.34,2.34,0,0,0,.36.25Z" transform="translate(-162 -57.67)"/><path class="cls-5" d="M314.2,389.6h-3.66a3.46,3.46,0,0,1-2.39-1.15,12.83,12.83,0,0,1-1.27,1.12l-.35-.4a7.71,7.71,0,0,0,1.32-1.2v-2.24h-1.16v-.51h1.69V388a3.08,3.08,0,0,0,2.17,1.14c1,.05,2.23,0,3.88-.07Zm-6.21-5.3a4.57,4.57,0,0,0-1.05-1.32l.42-.34a6.36,6.36,0,0,1,1.1,1.31Zm1.15,3.93-.36-.45a3.21,3.21,0,0,0,1.61-1.27l.36.36a3.6,3.6,0,0,1-1.61,1.36m4.68-3.42a3.32,3.32,0,0,1-.93-.41v.42h-1.15v.94h2v.5h-2v2a.56.56,0,0,1-.57.62h-.77l-.2-.56c.27,0,.53,0,.75,0s.26,0,.26-.24v-1.81h-2.06v-.5h2.06v-.94h-1.29v-.37a4.21,4.21,0,0,1-.71.36l-.42-.45a4.58,4.58,0,0,0,2.54-2.22l.45.27-.06.09a4.87,4.87,0,0,0,2.43,1.82ZM311.46,383a6.19,6.19,0,0,1-1.41,1.34l2.75,0a5.35,5.35,0,0,1-1.33-1.36m2.07,5.32a3.2,3.2,0,0,0-1.47-1.39l.42-.38a4,4,0,0,1,1.5,1.43Z" transform="translate(-162 -57.67)"/><path class="cls-5" d="M315.6,389.78l-.42-.31a4.47,4.47,0,0,0,.91-1,4.38,4.38,0,0,0,.32-.59,4,4,0,0,1,.41.25,4.59,4.59,0,0,1-1.21,1.66m1.88-2.4v-.54h-1.21v.53h-.5v-4.66H318v4.65Zm0-2.36h-1.21v1.34h1.21Zm0-1.8h-1.19v1.31h1.2Zm.77,6.45a3.26,3.26,0,0,0-.75-1.48l-.07-.08a3.38,3.38,0,0,1,.49-.18,3.89,3.89,0,0,1,.81,1.55Zm3.71-5.31a.72.72,0,0,1-.51.48,1.68,1.68,0,0,1-.65,0l-.4-.09-.13-.54a2.68,2.68,0,0,0,1,.2c.25-.07.21-.36.3-.54s.12-.52.15-.79h-1.33a3.18,3.18,0,0,1-.41,1.14,2.68,2.68,0,0,1-1.5,1.13l-.33-.49a2.08,2.08,0,0,0,1.4-.92,2.18,2.18,0,0,0,.28-.86h-1.22v-.49h3.67a9,9,0,0,1-.3,1.82m0,3.31h-.54v-.46h-2.06v.48h-.54v-2.43H322Zm-1.7,2a3.34,3.34,0,0,0-.57-1.16,2.09,2.09,0,0,0-.38-.39l.49-.21a4,4,0,0,1,.94,1.55,4.72,4.72,0,0,0-.48.21m1.15-3.93h-2v1h2Zm.8,4.05a3.33,3.33,0,0,0-1.15-1.67,2.08,2.08,0,0,1,.51-.22,4.93,4.93,0,0,1,1.11,1.62c-.15.08-.3.2-.47.27" transform="translate(-162 -57.67)"/><path class="cls-5" d="M325.67,385v1.59h3.71v3.3h-.54v-2.79h-3.16a4.35,4.35,0,0,1-.51,1.76,5,5,0,0,1-1.08,1.12l-.43-.44a2.81,2.81,0,0,0,1.44-2.07l0-.69v-4h.54v1.69h2.21v-2.29h.54v2.29h2.46V385Z" transform="translate(-162 -57.67)"/><path class="cls-5" d="M332.58,385.79l-.42-.42a5.13,5.13,0,0,0,2.67-2.77l.48.27a5.7,5.7,0,0,1-2.72,2.92m5.32,1.81a9.42,9.42,0,0,1-.2,1.28.92.92,0,0,1-.58.66,3.07,3.07,0,0,1-1.33-.08l-.31-.05-.16-.62a7.62,7.62,0,0,0,1.39.26.44.44,0,0,0,.29-.12,2.09,2.09,0,0,0,.25-.79,14.47,14.47,0,0,0,.24-2.2H335.7a5,5,0,0,1-1.23,2.87,4.8,4.8,0,0,1-1.8,1.1l-.37-.48a4,4,0,0,0,2.46-2.07,6.68,6.68,0,0,0,.38-1.43h-1.46v-.53h4.39c0,.75-.08,1.49-.17,2.18m1.33-1.83a6.21,6.21,0,0,1-2.64-2.9l.47-.28a5.53,5.53,0,0,0,2.51,2.69Z" transform="translate(-162 -57.67)"/><path class="cls-5" d="M344.77,388.27v1c0,.37-.18.53-.55.53h-.91l-.24-.56a6.1,6.1,0,0,0,1,0c.13,0,.19-.07.19-.23v-.78h-3.48v-.5h3.48v-.41a6.71,6.71,0,0,0,1.81-.59h-4.32v-.51H347v.5a6.34,6.34,0,0,1-2.18.94v.08h3.33v.5ZM341,383.41v-.5h3.16a1.07,1.07,0,0,0-.21-.27,1.94,1.94,0,0,0-.41-.31l.52-.28a2.33,2.33,0,0,1,.68.85h3.07v.51Zm1.08,2.29v-1.79h4.67v1.77Zm4.14-1.28H342.6v.77h3.61Z" transform="translate(-162 -57.67)"/><path class="cls-5" d="M314,212a10.64,10.64,0,0,1-1.95-1v.36H309v-.37a7.28,7.28,0,0,1-2,.84c-.09-.15-.2-.3-.3-.46a6.36,6.36,0,0,0,3.2-1.7c.2-.19.41-.4.6-.61l-.33-.31a4.6,4.6,0,0,0,.85-1,6,6,0,0,0,.44-1l.39.22a5.51,5.51,0,0,1-.25.67h2.66v.46h-1.53a3.61,3.61,0,0,1,.64.83l-.47.21a3,3,0,0,0-.81-1h-.71a8.45,8.45,0,0,1-.58.77l.35.19-.21.21a7.38,7.38,0,0,0,3.52,2.2Zm-4.84-3.87a3.72,3.72,0,0,1,.64.91l-.45.25a3.29,3.29,0,0,0-.77-1.17h-.37a3.63,3.63,0,0,1-1.11,1.2l-.37-.35a5,5,0,0,0,1.63-2.3l.42.25c-.13.31-.25.51-.35.74h2.13v.47Zm-2.35,5.93v-.49h4.49a6.24,6.24,0,0,0,1.06-2l.52.31a8.4,8.4,0,0,1-1,1.66h2.26v.5Zm2.12-.65a4.08,4.08,0,0,0-1-1.42l.42-.24a3.54,3.54,0,0,1,1,1.42Zm1.69-3.71a8.82,8.82,0,0,1-1.44,1.22l2.74,0a5.42,5.42,0,0,1-1.3-1.23m-.06,3.72a5.06,5.06,0,0,0-1-1.61l.47-.25a4.26,4.26,0,0,1,1,1.61Z" transform="translate(-162 -57.67)"/><path class="cls-5" d="M316.12,213.84a2.84,2.84,0,0,0-.31-.45.47.47,0,0,0,.26-.38v-3h-.83v-.51h1.41V213c.35-.19.76-.37,1.11-.55V213c-.58.33-1,.53-1.63.85m.67-5.38a3.86,3.86,0,0,0-1.16-1l.37-.37a5.3,5.3,0,0,1,1.18,1Zm.4,5.67v-.52h1v-4.14h.53v4.15H320V207.9h-2.24v-.5h4.67a4.81,4.81,0,0,1,0,.49h-1.92v2.31h1.74v.49h-1.74v2.92h2.17v.51Z" transform="translate(-162 -57.67)"/><path class="cls-5" d="M323.86,210.6l-.23-.53a5.35,5.35,0,0,0,2.35-.93l.19.52a5.52,5.52,0,0,1-2.31.93m2.07-2a3.47,3.47,0,0,0-2-.83l.28-.46a3.43,3.43,0,0,1,2,.79Zm3.37,5.9v-.58h-3.78v.64H325v-3.16h4.89v3.1Zm1.49-3.35a3.63,3.63,0,0,1-2.42-1.48,4.08,4.08,0,0,1-2.61,1.49l-.32-.55a3.35,3.35,0,0,0,2.43-1.19,2,2,0,0,0,.38-1.29h-.83a3.16,3.16,0,0,1-.76,1.18l-.48-.32a3.54,3.54,0,0,0,1-2.29l.5.15a4.13,4.13,0,0,1-.14.75h3.14a5.72,5.72,0,0,1-.49,1.67l-.54-.14a4.35,4.35,0,0,0,.38-1h-1.26a3.33,3.33,0,0,1-.17,1,3.26,3.26,0,0,0,2.53,1.45Zm-1.49.77h-3.78v1.47h3.78Z" transform="translate(-162 -57.67)"/><path class="cls-5" d="M333.59,214.34l-.31-.46a.62.62,0,0,0,.2-.43v-3.69h-1.2v-.51H334v4.29l1.21-.67v.57Zm.2-6a3.8,3.8,0,0,0-1-1.22l.37-.32a3.62,3.62,0,0,1,1.1,1.21Zm5.28,4.61c-.07.53,0,1.26-.7,1.45a3,3,0,0,1-1,0l-.21-.56a4,4,0,0,0,.9.1c.38,0,.42-.58.47-.93a36.12,36.12,0,0,0,.26-4.68H336.2a5.69,5.69,0,0,1-.48,1H338v4h-.54v-.58h-1.41v.58h-.54v-3.71a4.63,4.63,0,0,1-.56.62l-.43-.34a4.89,4.89,0,0,0,1.51-3.14l.49.14c-.06.31-.1.61-.19.92h3c0,1.91-.09,3.9-.26,5.16m-1.6-3.17h-1.41v.94h1.41Zm0,1.43h-1.41v1h1.41Z" transform="translate(-162 -57.67)"/><path class="cls-5" d="M224.6,297.55a8.27,8.27,0,0,1-.55,1.1h3.66v.49c-.55.6-1.16,1.21-1.64,1.7a6.65,6.65,0,0,1,1.21.9l-.35.43c-.2-.16-.39-.35-.6-.5a9.18,9.18,0,0,0-2.79-1.38l.33-.4a15.06,15.06,0,0,1,1.69.68c.38-.38,1-1,1.36-1.41H223.4v-.5a5.42,5.42,0,0,0,.64-1.1h-2.46v-.5h2.66a7.42,7.42,0,0,0,.28-1h-2.45v-.49h2.53c.06-.35.1-.71.14-1.08l.52.14a6.49,6.49,0,0,1-.11.94H228v.49h-3c-.09.31-.13.69-.26,1h4.08v.49Z" transform="translate(-162 -57.67)"/><path class="cls-5" d="M231.27,301.58l-.31-.46a.5.5,0,0,0,.2-.42v-2.91h-1.24v-.5h1.77v3.5l1.24-.67v.57Zm.55-5.18a3.8,3.8,0,0,0-1-1.22l.37-.31a3.6,3.6,0,0,1,1.1,1.21Zm5.24,5.74A7.8,7.8,0,0,1,235,301a8.6,8.6,0,0,1-2.1,1.19l-.35-.44a6.8,6.8,0,0,0,2-1.11,6.13,6.13,0,0,1-1.11-1.89h-.39v-.5h3.62a4.24,4.24,0,0,1-1.34,2.39,6.49,6.49,0,0,0,2.2,1.09Zm-.79-4.61a.55.55,0,0,1-.58-.63v-1.44h-1.55v.88a2,2,0,0,1-.58,1.43,2.18,2.18,0,0,1-.64.41l-.37-.43a1.55,1.55,0,0,0,1.08-1.72v-1.06h2.57v1.9c0,.1,0,.19.23.19h.88v.48ZM234,298.72a4.91,4.91,0,0,0,.94,1.54,4.44,4.44,0,0,0,1-1.54Z" transform="translate(-162 -57.67)"/><path class="cls-5" d="M239.84,297.82v4.45h-.53v-3.82a4.14,4.14,0,0,1-.68.6l-.47-.31a6.06,6.06,0,0,0,1.88-2.23l.38.27a6.78,6.78,0,0,1-.59,1m-1.13-1-.43-.34a5.37,5.37,0,0,0,1.62-1.93l.43.23a5.46,5.46,0,0,1-1.61,2m3.67,4.49-.4-.3a1,1,0,0,0,.23-.74v-.69h-.86a5.56,5.56,0,0,1-.1,1.18,3,3,0,0,1-.78,1.4l-.42-.35a2.42,2.42,0,0,0,.68-1.07,3.54,3.54,0,0,0,.09-.94V299h1.91v1.44l.86-.51v.55Zm3.25.87a7,7,0,0,1-1.25-1.57,6.79,6.79,0,0,1-1.32,1.63l-.42-.38a6.18,6.18,0,0,0,1.48-1.85,8.3,8.3,0,0,1-.48-1.89l-.36.61-.23-.18h-2.77V298H243a7.58,7.58,0,0,0,.86-3.54l.46.11a11.6,11.6,0,0,1-.13,1.63h1.54v.51h-.38a9.26,9.26,0,0,1-.68,3.26,6,6,0,0,0,1.4,1.78Zm-5.1-4.71v-2.12h.53v1.61h.52v-2.38h.54v2.38h.52v-1.61h.54v2.12Zm3.57-.71-.09.37a7.93,7.93,0,0,0,.4,2.17,9,9,0,0,0,.45-2.53Z" transform="translate(-162 -57.67)"/><path class="cls-5" d="M248.51,296.42v5.81H248v-4.89a6.06,6.06,0,0,1-.82,1.23l-.48-.33a6.63,6.63,0,0,0,1.11-1.63l.06-.09a14.16,14.16,0,0,0,.78-2l.52.2a14.37,14.37,0,0,1-.65,1.67m.48-.17v-.5h2.72a3.68,3.68,0,0,0-1-1l.38-.31.06,0a3.69,3.69,0,0,1,1,1l-.26.29h2.59v.5Zm.5.82h4.3v.49h-4.3Zm0,1.27h4.29v.49H249.5Zm3.63,3.86v-.49h-3v.51h-.54v-2.55h4v2.53Zm0-2h-3v1h3Z" transform="translate(-162 -57.67)"/><path class="cls-5" d="M262.54,302.13a8.92,8.92,0,0,1-3.36-1.68h0a8.59,8.59,0,0,1-3.34,1.72l-.35-.54a7.76,7.76,0,0,0,3-1.33l.31-.29a6.22,6.22,0,0,1-1.18-1.93l.49-.21a6.69,6.69,0,0,0,1.08,1.76l0,0a6.55,6.55,0,0,0,1.07-1.85l.48.26a7,7,0,0,1-1.19,2,8,8,0,0,0,3.37,1.56Zm-5.8-3.86a6,6,0,0,1-.65.36l-.38-.42a5.35,5.35,0,0,0,2.18-1.69l.38.32a4.85,4.85,0,0,1-1.53,1.44m-1-2v-.52h3.34a2.19,2.19,0,0,0-.74-.74l-.28-.17.44-.31a1.73,1.73,0,0,1,.44.27,2.57,2.57,0,0,1,.66.7l-.34.23,3.28,0v.53Zm6.27,2.45a4.89,4.89,0,0,0-2.21-1.83l.49-.34a5.15,5.15,0,0,1,2.18,1.8Z" transform="translate(-162 -57.67)"/><path class="cls-5" d="M265.06,298.27a2.41,2.41,0,0,0-1.36-1.19l.4-.37a2.65,2.65,0,0,1,1.39,1.23Zm-.76,3.78-.46-.35a4.44,4.44,0,0,0,1.37-2.67l.05-.29.49.21a5.55,5.55,0,0,1-1.45,3.09m1.1-5.8a2.11,2.11,0,0,0-1.26-1l.38-.37a2.51,2.51,0,0,1,1.27,1Zm1.17,5.35a2.75,2.75,0,0,1-.91.61l-.4-.47a2.49,2.49,0,0,0,1-.69,3,3,0,0,0,.47-2v-.54h.53c0,1.23,0,2.33-.7,3m1.87-5.64a4.66,4.66,0,0,1-1.27,1.67h.28l2.47-.26a2.17,2.17,0,0,0-.76-.47l.48-.32c.1,0,.08,0,.16.08a3.18,3.18,0,0,1,1.25,1.34l-.47.32a3.88,3.88,0,0,0-.32-.53l-1.26.13-1.7.21-.94.15c-.1-.18-.26-.31-.37-.48a3.42,3.42,0,0,0,1.22-.89,6.15,6.15,0,0,0,.63-1H266v-.51h2.31a2.21,2.21,0,0,0-1-.75l.44-.31a2.07,2.07,0,0,1,1,.88l-.27.16,2.61,0v.5Zm-.34,2.58h.53v3.53h-.53Zm3.23,2.86a.69.69,0,0,1-.5.48c-.35,0-.79.11-1-.2a.49.49,0,0,1-.17-.27v-2.86h.54v2.57a.27.27,0,0,0,.11.23c.11.09.25.05.37.05a.23.23,0,0,0,.2-.12,3.59,3.59,0,0,0,.16-1l.5.18a3.9,3.9,0,0,1-.18,1" transform="translate(-162 -57.67)"/><path class="cls-5" d="M278.43,300v2.14h-.54V300h-1.66v-.5h1.65v-1.33h-1.11v-.5h1.11v-1.26h-1.33v.29H276v1.45h-2a5.14,5.14,0,0,1-.27.71h2.16v3.28h-.54c0-.17,0-.33,0-.51h-1.63v.52h-.54v-2.43a3.26,3.26,0,0,1-.67.65c-.15-.09-.27-.26-.42-.36a3.11,3.11,0,0,0,1.11-1.27,3.6,3.6,0,0,0,.26-.58h-.73v-.5h.84a7,7,0,0,0,.13-1h-1.41v-.49h1.42c0-.3,0-.58,0-.88h-1v-.5H276v1.38h.47v-.3h1.12a2.54,2.54,0,0,0-.53-.91,1.53,1.53,0,0,0-.43-.35l.43-.27a2.9,2.9,0,0,1,.59.57l.42.65c-.13.11-.28.2-.42.32h.58a2.91,2.91,0,0,0,.8-1.56,4.4,4.4,0,0,1,.47.28,3,3,0,0,1-.63,1.28h.94v.5h-1.4v1.27h1.12v.5h-1.13v1.33h1.63v.5Zm-3.05-.64h-1.63v1.75h1.63Zm-1.12-2.67a5.74,5.74,0,0,1-.11.94h1.33v-1Zm1.23-1.38h-1.22v.88h1.22Z" transform="translate(-162 -57.67)"/><path class="cls-5" d="M304.27,298.16v4h-.54v-3.42a11,11,0,0,1-1,.74c-.16-.15-.34-.27-.46-.42a8.65,8.65,0,0,0,2.62-2.56l.43.29a11,11,0,0,1-1.05,1.38M302.84,297s0,0-.06-.05l-.38-.33a7.89,7.89,0,0,0,2.13-2.25l.41.31a8.63,8.63,0,0,1-2.09,2.32m5.5.65v3.76a.76.76,0,0,1-.35.58,1,1,0,0,1-.54.1h-.92c-.05-.18-.13-.35-.17-.54a10.92,10.92,0,0,0,1.15,0,.3.3,0,0,0,.26-.27v-3.65h-2.24v-.52h4.38v.51ZM305.73,295h3.64v.52h-3.64Z" transform="translate(-162 -57.67)"/><path class="cls-5" d="M311.05,296.18v-.5h2.29a3,3,0,0,0-1-1l.52-.31a4.35,4.35,0,0,1,1,1.32h1.44a3.83,3.83,0,0,0,.85-1.35l.5.28a4,4,0,0,1-.71,1.07h2.33v.5Zm3,5.8h-.76l-.18-.5.86,0c.11,0,.2-.05.2-.22v-1.1h-1.75v1.89h-.54V297h2.82v4.32a.65.65,0,0,1-.65.68m.12-4.5h-1.75v.84h1.75Zm0,1.32h-1.75v.92h1.75Zm1.46-1.53h.54v3.31h-.54Zm1.39,4.86h-.77l-.17-.51a5.48,5.48,0,0,0,.82,0c.16,0,.22-.14.22-.31v-4.65h.54v4.71a.67.67,0,0,1-.63.73" transform="translate(-162 -57.67)"/><path class="cls-5" d="M320.72,301.44l-.31-.46a.53.53,0,0,0,.2-.42v-3h-1.09v-.5h1.63v3.56l1.23-.67v.57Zm.48-5.15a3.81,3.81,0,0,0-1-1.22l.36-.31a3.63,3.63,0,0,1,1.1,1.21Zm5.31,5.2a.6.6,0,0,1-.56.32h-.6a.72.72,0,0,1-.75-.65V299h-.66a3.31,3.31,0,0,1-1.61,3,3.16,3.16,0,0,1-.39.19l-.35-.47a2.66,2.66,0,0,0,1.64-1.67,4,4,0,0,0,.16-1.05h-.94v-2.58h3.64V299h-1v2.07a.24.24,0,0,0,.26.25h.43a.32.32,0,0,0,.31-.2,5.7,5.7,0,0,0,.28-1l.48.26a5,5,0,0,1-.38,1.14m-3-5.32a3.45,3.45,0,0,0-1-1.55l.44-.24a3.6,3.6,0,0,1,1,1.53Zm2,.75H323v1.58h2.55Zm-.38-.7-.48-.24a4.76,4.76,0,0,0,1-1.62l.43.22a4.51,4.51,0,0,1-1,1.63" transform="translate(-162 -57.67)"/><path class="cls-5" d="M330.43,300.31v-.55H329v.56h-.51v-4.93h2.5v4.93ZM329,295.89v1.37h1.45v-1.38Zm1.47,1.88H329v1.49h1.47Zm4.52,3.65a.86.86,0,0,1-.6.58c-.31,0-.57,0-.89,0l-.18-.54a4.28,4.28,0,0,0,.93,0,.29.29,0,0,0,.2-.2v-1.9h-2.09a3.7,3.7,0,0,1-1.35,2.52,2.4,2.4,0,0,1-.36.28c-.15-.13-.28-.27-.43-.4a3.5,3.5,0,0,0,1.33-1.42s0,0,0-.06a5.15,5.15,0,0,0,.3-2.18v-3.25H335Zm-.54-6h-2v1.45h2Zm0,1.95h-2.06v1.53h2.06Z" transform="translate(-162 -57.67)"/><path class="cls-5" d="M343.6,298.64a13.7,13.7,0,0,1-3.55-3.25,9.62,9.62,0,0,1-1.55,1.9h3.28v.49h-3.34v-.43a9.5,9.5,0,0,1-1.72,1.28l-.41-.41a8.29,8.29,0,0,0,1.61-1.08,10.24,10.24,0,0,0,2.11-2.68l.46.18a2.47,2.47,0,0,1-.17.31,11.22,11.22,0,0,0,2.74,2.68l.92.6Zm-.71,3.31a3.88,3.88,0,0,0-.45-.5l-3.39.43-1.27.2-.37-.66a15.16,15.16,0,0,0,2.46-2.14h-2.93v-.48h6.34v.48H340l.36.29a11.77,11.77,0,0,1-2.21,1.92l3.75-.45a3.51,3.51,0,0,0-.89-.55l.34-.34a6.31,6.31,0,0,1,1,.63,4.88,4.88,0,0,1,.9.84Z" transform="translate(-162 -57.67)"/><rect class="cls-3" x="150.5" y="110.83" width="21.28" height="28.24"/><polygon class="cls-10" points="169.46 134.62 150.12 139.07 150.12 110.83 169.46 106.38 169.46 134.62"/><polygon class="cls-3" points="169.46 134.62 150.12 139.07 150.12 110.83 169.46 106.38 169.46 134.62"/><line class="cls-3" x1="153.34" y1="132.24" x2="165.72" y2="129.26"/><path class="cls-6" d="M321.52,172.26h0a8.1,8.1,0,0,0-5.63,7.27,4.07,4.07,0,0,0,5.25,4.14h0l.37-.09h0l.43-.14h0a8.15,8.15,0,0,0,5.24-7.14c0-3.12-2.55-4.93-5.69-4m4.71,6.89-2,.56a8.3,8.3,0,0,0,.48-2.57l2.14-.61a6.52,6.52,0,0,1-.66,2.62m-4.57,4.08v-2.47l2.14-.61a10.36,10.36,0,0,1-1.92,3l-.23.08m-.47.13a4.59,4.59,0,0,1-1.92-1.91l2.08-.6v2.46l-.16,0m-5-3.76,2.14-.61a6,6,0,0,0,.48,2.29l-2,.56a4.29,4.29,0,0,1-.66-2.24m.68-3,2-.56a8.34,8.34,0,0,0-.5,2.61l-2.14.61a6.58,6.58,0,0,1,.68-2.67m4.49-4V175l-2.06.59a10.39,10.39,0,0,1,1.9-3l.16-.05m.53-.14a4.61,4.61,0,0,1,1.9,1.87l-2.12.61v-2.42l.23-.05m2,2.14a5.72,5.72,0,0,1,.52,2.32l-2.78.8v-2.47Zm-2.57.74v2.47l-2.72.78a8.06,8.06,0,0,1,.52-2.62Zm-2.72,3.55,2.72-.78v2.43l-2.22.64a5.74,5.74,0,0,1-.5-2.28m3,1.56V178l2.78-.8a8,8,0,0,1-.5,2.57Zm3.09-3.62a6,6,0,0,0-.5-2.33l2-.56a4.22,4.22,0,0,1,.69,2.27Zm1.27-3.14-1.89.54a4.8,4.8,0,0,0-1.69-1.86,3.91,3.91,0,0,1,3.59,1.32m-5.35-.83a10.7,10.7,0,0,0-1.71,2.85l-1.9.54a7.94,7.94,0,0,1,3.61-3.39M317,182.1l1.91-.55a4.8,4.8,0,0,0,1.72,1.91A3.87,3.87,0,0,1,317,182.1m5.4.84a10.66,10.66,0,0,0,1.71-2.88l1.9-.54a8,8,0,0,1-3.61,3.42" transform="translate(-162 -57.67)"/><path class="cls-7" d="M334.16,276a2.64,2.64,0,0,1-2-.95.23.23,0,0,1,0-.24,13.75,13.75,0,0,0,1.08-3.8.23.23,0,0,1,.15-.18,2.65,2.65,0,1,1,.83,5.17m0-4.85a2.21,2.21,0,0,0-.52.06,16.13,16.13,0,0,1-1.06,3.62,2.05,2.05,0,0,0,1.58.72,2.2,2.2,0,0,0,0-4.4" transform="translate(-162 -57.67)"/><path class="cls-7" d="M322.15,282.17c-6,0-11-5.08-11.55-11.82a1.31,1.31,0,0,1,.35-1,1.54,1.54,0,0,1,1.14-.49h20.12a1.54,1.54,0,0,1,1.14.49,1.3,1.3,0,0,1,.35,1c-.57,6.74-5.54,11.82-11.55,11.82m-10.06-12.87a1.09,1.09,0,0,0-.81.34.86.86,0,0,0-.23.66c.55,6.51,5.33,11.41,11.1,11.41s10.55-4.91,11.1-11.41a.86.86,0,0,0-.23-.66,1.09,1.09,0,0,0-.81-.34Z" transform="translate(-162 -57.67)"/><path class="cls-7" d="M318.46,266.75a.22.22,0,0,1,0-.45c1.54,0,2.8-1,2.8-2.19s-1.05-2-2.82-2.19-2.73-1.07-2.73-2.23a2.53,2.53,0,0,1,2.75-2.23.22.22,0,1,1,0,.45,2.09,2.09,0,0,0-2.3,1.79c0,1.1,1.2,1.64,2.33,1.79,2,.17,3.22,1.16,3.22,2.64s-1.46,2.64-3.25,2.64" transform="translate(-162 -57.67)"/><path class="cls-7" d="M324.67,266.75a.22.22,0,1,1,0-.45c1.54,0,2.8-1,2.8-2.19s-1.05-2-2.82-2.19-2.73-1.07-2.73-2.23a2.53,2.53,0,0,1,2.75-2.23.22.22,0,0,1,0,.45,2.09,2.09,0,0,0-2.3,1.79c0,1.1,1.2,1.64,2.33,1.79,2,.17,3.22,1.16,3.22,2.64s-1.46,2.64-3.25,2.64" transform="translate(-162 -57.67)"/><path class="cls-7" d="M322.15,284.75c-8.17,0-16.86-1-16.86-2.8a.22.22,0,0,1,.22-.22h33.27a.22.22,0,0,1,.22.22c0,1.82-8.69,2.8-16.86,2.8M306,282.28c.42.33,1.53.82,4.44,1.27a92,92,0,0,0,23.46,0c2.91-.45,4-.94,4.44-1.27l.14-.11H305.85Z" transform="translate(-162 -57.67)"/><path class="cls-8" d="M251.84,194a9.06,9.06,0,0,0,5.09-2.23,10.26,10.26,0,0,0,2.84-6.73v-8.24a9.73,9.73,0,0,0-9.32-9.32h-1.21a9.73,9.73,0,0,0-9.32,9.32V185" transform="translate(-162 -57.67)"/><path class="cls-8" d="M239.63,185.15a4.74,4.74,0,0,1,0-9.39" transform="translate(-162 -57.67)"/><path class="cls-8" d="M260,185.15a4.74,4.74,0,0,0,0-9.39" transform="translate(-162 -57.67)"/><path class="cls-8" d="M246,184.5a4.2,4.2,0,0,0,7.61,0" transform="translate(-162 -57.67)"/><circle class="cls-9" cx="87.83" cy="136.33" r="2"/><path class="cls-8" d="M239.75,176a10,10,0,0,0,6.77-5,10,10,0,0,0,12.08,1.75" transform="translate(-162 -57.67)"/></g></g></g></g></svg>