<svg width="183" height="173" viewBox="0 0 183 173" xmlns="http://www.w3.org/2000/svg"><title>ECCEF449-87D4-4FE7-A039-11E59AD8C775</title><g fill="none" fill-rule="evenodd"><path d="M92.104 62.7a59.573 59.573 0 0 1 27.089 50.04c0 21.003-10.8 39.45-27.09 50.041 9.2 5.979 20.146 9.463 31.905 9.463 32.58 0 58.995-26.64 58.995-59.504 0-32.865-26.414-59.506-58.995-59.506-11.759 0-22.705 3.485-31.904 9.465zM63.812 112.74A59.569 59.569 0 0 1 90.9 62.7c-9.202-5.981-20.147-9.466-31.906-9.466C26.414 53.234 0 79.877 0 112.74c0 32.865 26.414 59.506 58.995 59.506 11.759 0 22.704-3.485 31.906-9.465a59.569 59.569 0 0 1-27.09-50.04" fill="#A9D0E2"/><path d="M119.193 112.383a59.569 59.569 0 0 0-27.09-50.04 59.569 59.569 0 0 0-27.089 50.04 59.569 59.569 0 0 0 27.09 50.041 59.569 59.569 0 0 0 27.089-50.04" fill-opacity=".8" fill="#FFF" opacity=".664"/><path d="M92.526 111.525c0 18.73-15.054 33.913-33.621 33.913-18.57 0-33.622-15.183-33.622-33.913" stroke="#FFF" stroke-width="1.2"/><path d="M159.345 111.525c0 18.73-15.053 33.913-33.622 33.913-18.567 0-33.62-15.183-33.62-33.913" stroke="#FFF" stroke-width="1.2"/><g stroke="#FFF" stroke-width="1.2"><path d="M89.562 0v14.765M75.199 17.564L69.776 3.826M52.797 14.765l10.087 10.751M109.348 3.826l-5.423 13.739M126.326 14.765L116.24 25.516"/></g></g></svg>