<svg width="61" height="131" viewBox="0 0 61 131" xmlns="http://www.w3.org/2000/svg"><title>5A31E899-FDB6-4B2C-AE51-EFDBBE76CBF1</title><g fill="none" fill-rule="evenodd"><path d="M30.481 130.38C13.647 130.38 0 116.639 0 99.69 0 82.74 13.647 69 30.481 69c16.835 0 30.482 13.74 30.482 30.69 0 16.949-13.647 30.69-30.482 30.69z" fill="#A9D0E2"/><path d="M47.27 99.115c0 9.676-7.771 17.52-17.359 17.52-9.586 0-17.358-7.844-17.358-17.52" stroke="#FFF" stroke-width="1.2"/><path d="M30.481 90.38C13.647 90.38 0 76.639 0 59.69 0 42.74 13.647 29 30.481 29c16.835 0 30.482 13.74 30.482 30.69 0 16.949-13.647 30.69-30.482 30.69z" fill="#A9D0E2"/><path d="M47.27 59.115c0 9.676-7.771 17.52-17.359 17.52-9.586 0-17.358-7.844-17.358-17.52" stroke="#FFF" stroke-width="1.2"/><path d="M7.36 79.69c5.59 6.545 13.875 10.69 23.121 10.69 9.246 0 17.53-4.145 23.121-10.69C48.012 73.145 39.727 69 30.482 69 21.234 69 12.95 73.145 7.36 79.69z" fill="#FFF" opacity=".389"/><g stroke="#FFF" stroke-width="1.2"><path d="M30.201.516v7.629M22.785 9.59l-2.8-7.097M11.22 8.145l5.207 5.554M40.417 2.493l-2.8 7.098M49.183 8.145l-5.208 5.554"/></g></g></svg>