<svg width="119" height="174" viewBox="0 0 119 174" xmlns="http://www.w3.org/2000/svg"><title>9DEB09DC-4CFE-4D7A-AFF0-A6A80D99065B</title><g fill="none" fill-rule="evenodd"><path d="M118.076 113.954c0 32.865-26.432 59.505-59.037 59.505C26.432 173.46 0 146.82 0 113.954 0 81.09 26.432 54.448 59.039 54.448c32.605 0 59.037 26.642 59.037 59.506" fill="#A9D0E2"/><g stroke="#FFF" stroke-width="1.2"><path d="M59.039 0v14.765M44.665 17.564L39.238 3.826M22.245 14.765l10.096 10.751M78.84 3.826l-5.428 13.739M95.83 14.765L85.738 25.516"/></g><path d="M58.737 166.29V61.617M84.701 159.28L32.776 68.63M103.706 140.122L13.768 87.786M110.663 113.954H6.811M103.706 87.785l-89.938 52.336M84.701 68.629l-51.925 90.65" stroke="#FEFEFE" stroke-width="1.2"/><path d="M107.234 113.954c0-26.996-21.713-48.881-48.497-48.881S10.24 86.958 10.24 113.953c0 26.997 21.713 48.881 48.497 48.881s48.497-21.884 48.497-48.88" fill="#A9D0E2"/><path d="M59.039 113.954l21.988-16.699M59.039 113.954L32.342 96.953" stroke="#FEFEFE" stroke-width="1.2"/></g></svg>