<svg width="61" height="91" viewBox="0 0 61 91" xmlns="http://www.w3.org/2000/svg"><title>EE6FEFA7-8520-42AB-AEFB-C17C7A90F976</title><g fill="none" fill-rule="evenodd"><path d="M60.963 59.388c0 16.979-13.647 30.742-30.48 30.742C13.646 90.13 0 76.367 0 59.388 0 42.41 13.647 28.646 30.482 28.646c16.834 0 30.481 13.764 30.481 30.742" fill="#A9D0E2"/><g stroke="#FFF" stroke-width="1.2"><path d="M30.482.516v7.629M23.06 9.59L20.26 2.494M11.485 8.145l5.213 5.554M40.705 2.493l-2.802 7.098M49.478 8.145l-5.212 5.554"/></g><path d="M30.326 86.426V32.35M43.732 82.804l-26.81-46.832M53.544 72.907L7.108 45.87M57.136 59.388H3.516M53.544 45.869L7.108 72.907M43.732 35.972l-26.81 46.832" stroke="#FEFEFE" stroke-width="1.2"/><path d="M55.365 59.388c0-13.947-11.21-25.253-25.039-25.253S5.287 45.44 5.287 59.388c0 13.947 11.21 25.253 25.04 25.253 13.828 0 25.038-11.306 25.038-25.253" fill="#A9D0E2"/><path d="M30.482 59.388l11.352-8.627M30.482 59.388l-13.784-8.783" stroke="#FEFEFE" stroke-width="1.2"/></g></svg>