<svg width="119" height="173" viewBox="0 0 119 173" xmlns="http://www.w3.org/2000/svg"><title>9325A095-8695-45F6-9772-D83D1ED75A72</title><g fill="none" fill-rule="evenodd"><path d="M59.038 172.165c-32.605 0-59.037-26.597-59.037-59.405 0-32.807 26.432-59.404 59.037-59.404 32.606 0 59.04 26.597 59.04 59.404 0 32.808-26.434 59.405-59.04 59.405z" fill="#A9D0E2"/><path d="M59.038.818v14.739M44.664 18.353L39.237 4.638M22.246 15.558L32.34 26.29M78.839 4.638l-5.427 13.715M95.83 15.558L85.736 26.29M64.491 133.568s-5.138 2.945-10.272 0M61.275 106.29v17.041h-5.249" stroke="#FFF" stroke-width="1.2"/><path d="M34.349 97.848s-1.26-22.456 24.465-22.456c0 0 25.895-1.421 25.878 23.079l.007 25.52s.402 15.576-14.854 22.138c0 0-2.12 1.788-10.498 1.646-8.388-.145-10.69-1.92-10.69-1.92s-7.202-3.848-11.385-11.166M70.485 106.29v5.436M48.797 106.29v5.436M94.778 95.056s-31.997 10.537-51.403-14.224" stroke="#FFF" stroke-width="1.2"/></g></svg>