<svg width="61" height="89" viewBox="0 0 61 89" xmlns="http://www.w3.org/2000/svg"><title>DAE8E615-548E-4890-BA2C-E094315C2AC4</title><g fill="none" fill-rule="evenodd"><path d="M30.482 88.944C13.647 88.944 0 75.204 0 58.254c0-16.948 13.647-30.69 30.482-30.69 16.834 0 30.482 13.742 30.482 30.69 0 16.95-13.648 30.69-30.482 30.69z" fill="#A9D0E2"/><path d="M30.482.423v7.614M23.06 9.482l-2.802-7.086M11.486 8.038l5.211 5.544M40.705 2.396l-2.802 7.086M49.477 8.038l-5.211 5.544M33.297 69.005s-2.653 1.521-5.304 0M31.637 54.912v8.804h-2.71" stroke="#FFF" stroke-width="1.2"/><path d="M17.734 50.55s-.65-11.6 12.632-11.6c0 0 13.37-.735 13.361 11.922l.003 13.184s.208 8.047-7.669 11.438c0 0-1.094.923-5.42.85-4.33-.075-5.52-.991-5.52-.991s-3.718-1.989-5.877-5.77M36.392 54.912v2.808M25.194 54.912v2.808M48.935 49.108s-16.52 5.444-26.54-7.348" stroke="#FFF" stroke-width="1.2"/></g></svg>