<svg width="42" height="42" viewBox="0 0 42 42" xmlns="http://www.w3.org/2000/svg"><title>A946F841-09EA-4368-B78E-B96328FB91AC</title><g stroke="#2F7899" fill="none" fill-rule="evenodd"><path d="M20.547 1.293C9.475 1.293.5 10.268.5 21.339c0 11.072 8.975 20.047 20.047 20.047 4.71 0 9.036-1.628 12.459-4.347l4.372 1.133-.952-4.604a19.952 19.952 0 0 0 4.166-12.229c0-11.071-8.974-20.046-20.045-20.046"/><path d="M22.416 21.34a1.87 1.87 0 1 0-3.74 0 1.87 1.87 0 0 0 3.74 0zM30.382 21.34a1.87 1.87 0 1 0-3.739-.001 1.87 1.87 0 0 0 3.74 0zM13.568 21.34a1.87 1.87 0 1 0-3.74 0 1.87 1.87 0 0 0 3.74 0z"/></g></svg>