<svg width="60" height="28" viewBox="0 0 60 28" xmlns="http://www.w3.org/2000/svg"><title>249A4B56-990A-4F16-AE91-E518F3EF664C</title><g stroke="#2F7899" fill="none" fill-rule="evenodd"><path d="M13.85 24.542c0-1.629-1.288-2.95-2.876-2.95-1.589 0-2.877 1.321-2.877 2.95 0 1.63 1.288 2.95 2.877 2.95 1.588 0 2.875-1.32 2.875-2.95zM51.99 24.542c0-1.629-1.288-2.95-2.876-2.95-1.589 0-2.877 1.321-2.877 2.95 0 1.63 1.288 2.95 2.877 2.95 1.588 0 2.877-1.32 2.877-2.95z"/><path d="M8.097 24.542H1.433V1.444h57.554v23.098h-6.996M13.85 24.542h32.388"/><path d="M52.195 14.293h6.793V4.9h-6.793zM58.987 14.292H1.433M58.987 4.9H1.433M19.298 24.543h6.06V4.9h-6.06z"/></g></svg>