<svg width="18" height="18" viewBox="0 0 18 18" xmlns="http://www.w3.org/2000/svg"><title>593EF27E-CF11-40BC-AEBF-C03DFCC78167</title><path d="M6.18 4.78a.607.607 0 0 0 0-.861L3.434 1.173a.624.624 0 0 0-.862 0l-.407.407a3.988 3.988 0 0 0 0 5.633l8.62 8.62A3.958 3.958 0 0 0 13.602 17a3.955 3.955 0 0 0 2.816-1.167l.408-.407a.61.61 0 0 0 0-.861l-2.746-2.746a.624.624 0 0 0-.862 0l-.577.578a.912.912 0 0 1-1.259 0l-5.78-5.78a.885.885 0 0 1-.26-.63c0-.238.092-.461.26-.63l.578-.577z" stroke="#FFF" fill="none" fill-rule="evenodd"/></svg>