<?xml version="1.0" encoding="utf-8"?>
<!-- Generator: Adobe Illustrator 21.0.0, SVG Export Plug-In . SVG Version: 6.00 Build 0)  -->
<svg version="1.1" id="Layer_1" xmlns="http://www.w3.org/2000/svg" xmlns:xlink="http://www.w3.org/1999/xlink" x="0px" y="0px"
	 viewBox="0 0 40 36" style="enable-background:new 0 0 40 36;" xml:space="preserve">
<style type="text/css">
	.st0{fill:#37809F;}
</style>
<path class="st0" d="M32.3,24c-0.8,0-1.5-0.4-2-1c0-0.1,0-0.2,0-0.2c0.5-1.2,0.9-2.5,1.1-3.8c0-0.1,0.1-0.2,0.2-0.2
	c1.4-0.5,2.9,0.3,3.3,1.7c0.5,1.4-0.3,2.9-1.7,3.3C32.9,24,32.6,24,32.3,24 M32.4,19.2c-0.2,0-0.3,0-0.5,0.1
	c-0.2,1.2-0.6,2.5-1.1,3.6c0.4,0.5,1,0.7,1.6,0.7c1.2,0,2.2-1,2.2-2.2C34.6,20.2,33.6,19.2,32.4,19.2"/>
<path class="st0" d="M20.3,30.2c-6,0-11-5.1-11.5-11.8c0-0.4,0.1-0.7,0.3-1c0.3-0.3,0.7-0.5,1.1-0.5h20.1c0.4,0,0.8,0.2,1.1,0.5
	c0.3,0.3,0.4,0.6,0.3,1C31.3,25.1,26.3,30.2,20.3,30.2 M10.2,17.3c-0.3,0-0.6,0.1-0.8,0.3c-0.2,0.2-0.3,0.4-0.2,0.7
	c0.5,6.5,5.3,11.4,11.1,11.4s10.5-4.9,11.1-11.4c0-0.2-0.1-0.5-0.2-0.7c-0.2-0.2-0.5-0.3-0.8-0.3H10.2z"/>
<path class="st0" d="M16.6,14.8c-0.1,0-0.2-0.1-0.2-0.2s0.1-0.2,0.2-0.2c1.5,0,2.8-1,2.8-2.2s-1-2-2.8-2.2s-2.7-1.1-2.7-2.2
	c0.2-1.4,1.4-2.4,2.7-2.2c0.1,0,0.2,0.1,0.2,0.2s-0.1,0.2-0.2,0.2c-1.1-0.1-2.1,0.7-2.3,1.8c0,1.1,1.2,1.6,2.3,1.8
	c2,0.2,3.2,1.2,3.2,2.6S18.4,14.8,16.6,14.8"/>
<path class="st0" d="M22.8,14.8c-0.1,0-0.2-0.1-0.2-0.2s0.1-0.2,0.2-0.2c1.5,0,2.8-1,2.8-2.2s-1-2-2.8-2.2s-2.7-1.1-2.7-2.2
	c0.2-1.4,1.4-2.4,2.8-2.2c0.1,0,0.2,0.1,0.2,0.2s-0.1,0.2-0.2,0.2c-1.1-0.1-2.1,0.7-2.3,1.8c0,1.1,1.2,1.6,2.3,1.8
	c2,0.2,3.2,1.2,3.2,2.6S24.6,14.8,22.8,14.8"/>
<path class="st0" d="M20.3,32.8c-8.2,0-16.9-1-16.9-2.8c0-0.1,0.1-0.2,0.2-0.2h33.3c0.1,0,0.2,0.1,0.2,0.2
	C37.2,31.8,28.5,32.8,20.3,32.8 M4.1,30.3c0.4,0.3,1.5,0.8,4.4,1.3c7.8,1,15.7,1,23.5,0c2.9-0.5,4-0.9,4.4-1.3l0.1-0.1H4L4.1,30.3z"
	/>
</svg>
