<?xml version="1.0" encoding="utf-8"?>
<!-- Generator: Adobe Illustrator 21.0.0, SVG Export Plug-In . SVG Version: 6.00 Build 0)  -->
<svg version="1.1" id="Layer_1" xmlns="http://www.w3.org/2000/svg" xmlns:xlink="http://www.w3.org/1999/xlink" x="0px" y="0px"
	 viewBox="0 0 32 31" style="enable-background:new 0 0 32 31;" xml:space="preserve">
<style type="text/css">
	.st0{fill:none;stroke:#35809F;stroke-width:0.43;stroke-linecap:round;stroke-linejoin:round;}
	.st1{fill:none;stroke:#35809F;stroke-width:0.43;stroke-miterlimit:22.93;}
</style>
<path class="st0" d="M18,28c1.9-0.2,3.7-1,5.1-2.2c1.7-1.8,2.8-4.2,2.8-6.7v-8.2c-0.2-5.1-4.3-9.1-9.3-9.3h-1.2
	c-5.1,0.2-9.1,4.3-9.3,9.3V19"/>
<path class="st0" d="M5.8,19.2c-2.6-0.4-4.4-2.8-4-5.3c0.3-2.1,1.9-3.8,4-4"/>
<path class="st0" d="M26.2,19.2c2.6-0.4,4.4-2.8,4-5.3c-0.3-2.1-1.9-3.8-4-4"/>
<path class="st0" d="M12.2,18.5c1,2.1,3.5,3,5.6,2c0.9-0.4,1.6-1.1,2-2"/>
<path class="st1" d="M16,30c-1.1,0-2-0.9-2-2s0.9-2,2-2s2,0.9,2,2S17.1,30,16,30"/>
<path class="st0" d="M5.9,10c2.9-0.6,5.4-2.4,6.8-5c3.2,3.3,8.1,4,12.1,1.8"/>
</svg>
