<?xml version="1.0" encoding="utf-8"?>
<!-- Generator: Adobe Illustrator 21.0.0, SVG Export Plug-In . SVG Version: 6.00 Build 0)  -->
<svg version="1.1" id="Layer_1" xmlns="http://www.w3.org/2000/svg" xmlns:xlink="http://www.w3.org/1999/xlink" x="0px" y="0px"
	 viewBox="0 0 247 363" style="enable-background:new 0 0 247 363;" xml:space="preserve">
<style type="text/css">
	.st0{fill:none;stroke:#35809F;stroke-width:0.43;stroke-miterlimit:10;}
	.st1{fill:#FFFFFF;}
	.st2{fill:#35809F;}
</style>
<rect x="11.9" y="56.8" class="st0" width="218.7" height="290.2"/>
<polyline class="st1" points="206.8,11 206.8,301.3 8,347 8,56.8 206.8,11 "/>
<polyline class="st0" points="206.8,11 206.8,301.3 8,347 8,56.8 206.8,11 "/>
<line class="st0" x1="41.1" y1="276.8" x2="168.3" y2="246.2"/>
<path class="st2" d="M104.6,95.4L104.6,95.4c-32.9,10.5-55.9,40.2-57.9,74.7C45.4,193.2,62.9,213,86,214.4c5,0.3,10-0.3,14.7-1.7
	l0,0l3.8-0.9l0,0l4.4-1.4l0,0c30.8-11.7,51.9-40.4,53.9-73.4c0-32.1-26.2-50.7-58.5-41.1 M152.7,166.6l-20.6,5.8
	c3-8.5,4.7-17.4,4.9-26.4l22-6.3c-0.4,9.4-2.7,18.5-6.8,26.9 M105.3,208.6v-25.4l22-6.3c-4.7,11.3-11.4,21.8-19.7,30.8l-2.4,0.8
	 M100.4,209.9c-8.4-4.4-15.3-11.3-19.7-19.6l21.4-6.2v25.3h-1.6 M49,170.8l22.9-6.1c0.1,8.1,1.8,16.1,4.9,23.5L56.3,194
	c-4.3-6.9-6.7-14.9-6.8-23 M56.5,140.1l20.6-5.8c-3.1,8.6-4.9,17.7-5.1,26.8l-22,6.3c0.4-9.5,2.7-18.9,7-27.4 M103.1,98.9v24.7
	l-21.2,6.1c4.7-11.3,11.3-21.8,19.5-30.8l1.6-0.5 M108.5,96.9c8.3,4.3,15.1,11,19.5,19.2l-21.8,6.3V97.5l2.4-0.5 M129.2,119
	c3.4,7.5,5.3,15.6,5.3,23.8L106,151v-25.4L129.2,119z M102.8,126.6v25.4l-28,8c0.3-9.2,2.1-18.3,5.3-26.9L102.8,126.6z M74.8,163
	l28-8v25L80,186.6c-3.3-7.4-5.1-15.4-5.1-23.4 M105.6,179.2v-24.8l28.6-8.2c-0.3,9-2,17.9-5.1,26.4L105.6,179.2z M137.4,142
	c-0.1-8.2-1.8-16.4-5.1-23.9l20.6-5.8c4.5,6.9,7,15,7.1,23.3L137.4,142z M150.5,109.7l-19.4,5.5c-4-7.8-10-14.4-17.4-19.1
	c13.8-2.2,27.8,2.9,36.9,13.6 M95.6,101.2c-7.3,8.8-13.3,18.7-17.6,29.3L58.5,136C66.8,120.7,79.8,108.5,95.6,101.2 M58.3,195.8
	l19.6-5.7c4,8,10.1,14.8,17.7,19.6C81.5,212.2,67.3,206.8,58.3,195.8 M113.8,204.5c7.4-8.9,13.3-18.9,17.6-29.6l19.5-5.5
	C142.5,184.7,129.5,197,113.8,204.5"/>
</svg>
