<?xml version="1.0" encoding="utf-8"?>
<!-- Generator: Adobe Illustrator 21.0.0, SVG Export Plug-In . SVG Version: 6.00 Build 0)  -->
<svg version="1.1" id="Layer_1" xmlns="http://www.w3.org/2000/svg" xmlns:xlink="http://www.w3.org/1999/xlink" x="0px" y="0px"
	 viewBox="0 0 25 35" style="enable-background:new 0 0 25 35;" xml:space="preserve">
<style type="text/css">
	.st0{fill:none;stroke:#35809F;stroke-width:0.43;stroke-miterlimit:10;}
	.st1{fill:none;stroke:#FFFFFF;stroke-miterlimit:10;}
	.st2{fill:#35809F;}
</style>
<rect x="1.7" y="5.5" class="st0" width="21.3" height="28.2"/>
<polygon class="st1" points="20.6,29.3 1.3,33.8 1.3,5.5 20.6,1.1 "/>
<polygon class="st0" points="20.6,29.3 1.3,33.8 1.3,5.5 20.6,1.1 "/>
<line class="st0" x1="4.5" y1="26.9" x2="16.9" y2="24"/>
<path class="st2" d="M10.7,9.3L10.7,9.3c-3.2,1-5.4,3.9-5.6,7.3c-0.1,2.2,1.6,4.2,3.8,4.3c0.5,0,1,0,1.4-0.2l0,0l0.4-0.1l0,0
	l0.4-0.1l0,0c3-1.1,5.1-3.9,5.2-7.1C16.3,10.2,13.8,8.4,10.7,9.3 M15.4,16.2l-2,0.6c0.3-0.8,0.5-1.7,0.5-2.6l2.1-0.6
	C15.9,14.5,15.7,15.4,15.4,16.2 M10.7,20.3v-2.5l2.1-0.6c-0.5,1.1-1.1,2.1-1.9,3L10.7,20.3 M10.3,20.4c-0.8-0.4-1.5-1.1-1.9-1.9
	l2.1-0.6v2.5L10.3,20.4 M5.3,16.6L7.5,16c0,0.8,0.2,1.6,0.5,2.3l-2,0.6C5.5,18.2,5.3,17.4,5.3,16.6 M6,13.6l2-0.6
	c-0.3,0.8-0.5,1.7-0.5,2.6l-2.1,0.6C5.4,15.4,5.6,14.5,6,13.6 M10.5,9.6V12l-2.1,0.6c0.5-1.1,1.1-2.1,1.9-3L10.5,9.6 M11.1,9.4
	c0.8,0.4,1.5,1.1,1.9,1.9l-2.1,0.6V9.5L11.1,9.4 M13.1,11.6c0.3,0.7,0.5,1.5,0.5,2.3l-2.8,0.8v-2.5L13.1,11.6z M10.5,12.3v2.5
	l-2.7,0.8c0-0.9,0.2-1.8,0.5-2.6L10.5,12.3z M7.8,15.9l2.7-0.8v2.4l-2.2,0.6C7.9,17.4,7.8,16.7,7.8,15.9 M10.8,17.4V15l2.8-0.8
	c0,0.9-0.2,1.7-0.5,2.6L10.8,17.4z M13.9,13.8c0-0.8-0.2-1.6-0.5-2.3l2-0.6c0.4,0.7,0.7,1.5,0.7,2.3L13.9,13.8z M15.1,10.7l-1.9,0.5
	c-0.4-0.8-1-1.4-1.7-1.9C12.9,9.1,14.3,9.6,15.1,10.7 M9.8,9.8c-0.7,0.9-1.3,1.8-1.7,2.9l-1.9,0.5C7,11.7,8.3,10.6,9.8,9.8
	 M6.2,19.1l1.9-0.6c0.4,0.8,1,1.4,1.7,1.9C8.4,20.6,7,20.1,6.2,19.1 M11.6,19.9c0.7-0.9,1.3-1.8,1.7-2.9l1.9-0.5
	C14.4,18,13.1,19.2,11.6,19.9"/>
</svg>
