<?xml version="1.0" encoding="utf-8"?>
<!-- Generator: Adobe Illustrator 21.0.0, SVG Export Plug-In . SVG Version: 6.00 Build 0)  -->
<svg version="1.1" id="Layer_1" xmlns="http://www.w3.org/2000/svg" xmlns:xlink="http://www.w3.org/1999/xlink" x="0px" y="0px"
	 viewBox="0 0 33.3 28.4" style="enable-background:new 0 0 33.3 28.4;" xml:space="preserve">
<style type="text/css">
	.st0{fill:none;stroke:#35809F;stroke-width:0.43;stroke-miterlimit:10;}
</style>
<path class="st0" d="M19.2,2C15.7,0,11.5-0.3,7.6,1.1C5.1,1.9,3,3.6,1.6,5.8c-1.3,2-1.7,4.5-1.1,6.9c0.7,2.6,2.3,4.8,4.5,6.2
	c-0.4,1.2-0.8,2.4-1.2,3.6c1.4-0.7,2.7-1.5,4.1-2.2C9.6,20.8,11.3,21,13,21c-0.4-1.3-0.6-2.7-0.3-4.1c0.4-1.9,1.4-3.6,2.9-4.8
	c2.6-2,5.8-2.9,9-2.5C23.9,6.4,22,3.7,19.2,2z"/>
<path class="st0" d="M32.4,15.2c-0.9-1.9-2.4-3.5-4.3-4.4c-3.4-1.7-7.3-1.7-10.7,0c-2.4,1.1-4.1,3.3-4.7,5.8c-0.4,1.9-0.1,3.9,1,5.5
	c1.6,2.4,4.1,4.1,6.9,4.5c2,0.4,4.1,0.2,6.1-0.4c1.2,0.5,2.2,1.2,3.4,1.7c-0.3-1-0.6-2-0.9-2.9c1.3-0.9,2.4-2.1,3.1-3.5
	C33.3,19.6,33.3,17.2,32.4,15.2z"/>
<circle class="st0" cx="19.6" cy="15.4" r="1.4"/>
<circle class="st0" cx="26.5" cy="15.4" r="1.4"/>
<circle class="st0" cx="8.2" cy="7" r="1.8"/>
<circle class="st0" cx="16.6" cy="7" r="1.8"/>
</svg>
