<svg width="355" height="306" viewBox="0 0 355 306" xmlns="http://www.w3.org/2000/svg"><title>9C14D194-7D48-4097-95CA-05F213A6BC9E</title><g fill="#FFF" fill-rule="evenodd"><path d="M174.188 72.163c-8.107.149-14.958 7.054-14.814 14.934.147 8.167 6.868 14.557 15.205 14.456 8.359-.1 14.698-6.557 14.619-14.897-.069-8.186-6.76-14.644-15.01-14.493zM95.282 87.324c.303-7.849-6.498-14.919-14.575-15.156-8.271-.243-15.073 6.078-15.314 14.227-.245 8.26 6.073 14.879 14.403 15.09 8.258.209 15.181-6.119 15.486-14.161zm151.236 13.37c-32.86 1.717-61.435 11.678-84.634 34.184-23.439 22.737-34.139 50.6-31.214 85.139-12.844-1.591-24.543-3.341-36.308-4.332-4.063-.342-8.885.144-12.327 2.086-11.424 6.446-22.376 13.725-35.357 21.839 2.382-10.773 3.923-20.207 6.652-29.28 2.008-6.669 1.078-10.381-5.066-14.724C8.818 167.756-7.81 126.077 4.633 83.167c11.513-39.697 39.785-63.771 78.2-76.321 52.434-17.127 111.359.344 143.243 41.973 11.515 15.037 18.576 31.914 20.442 51.875z"/><path d="M278.255 166.419c-6.427-.045-11.888 5.217-12.15 11.711-.279 6.945 5.119 12.647 11.991 12.665 6.648.022 11.9-5.005 12.141-11.62.258-6.961-5.142-12.708-11.982-12.756zm-76.354 24.459c6.624.006 12.079-5.178 12.33-11.721.264-6.926-5.307-12.736-12.243-12.765-6.867-.031-12.62 5.86-12.381 12.684.225 6.52 5.717 11.794 12.294 11.802zm118.443 114.677c-10.405-4.633-19.95-11.585-30.112-12.646-10.123-1.057-20.764 4.783-31.355 5.866-32.261 3.3-61.163-5.691-84.994-27.73-45.325-41.922-38.848-106.201 13.59-140.556 46.606-30.533 114.956-20.355 147.815 22.011 28.675 36.969 25.305 86.043-9.701 117.1-10.13 8.988-13.775 16.385-7.276 28.234 1.2 2.188 1.337 4.958 2.033 7.721z"/></g></svg>