<?xml version="1.0" standalone="no"?><!DOCTYPE svg PUBLIC "-//W3C//DTD SVG 1.1//EN" "http://www.w3.org/Graphics/SVG/1.1/DTD/svg11.dtd"><svg t="1504752628366" class="icon" style="" viewBox="0 0 1025 1024" version="1.1" xmlns="http://www.w3.org/2000/svg" p-id="1433" xmlns:xlink="http://www.w3.org/1999/xlink" width="200.1953125" height="200"><defs><style type="text/css"></style></defs><path d="M753.808 1024c-65.839 0-150.838-43.863-210.554-80.663-79.97-49.281-166.121-117.452-242.583-191.955l-0.278-0.275-24.28-24.283C201.61 650.361 133.439 564.21 84.157 484.237 47.36 424.525 3.495 339.524 3.495 273.687c0-70.454 50.382-145.236 72.043-174.118 16.903-22.538 75.955-96.074 126.13-96.074 20.601 0 42.792 13.484 71.951 43.725 25.79 26.742 50.54 59.981 66.761 83.155 21.781 31.115 41.926 63.696 56.726 91.738 23.968 45.412 26.74 64.883 26.74 75.579 0 21.588-11.273 40.311-33.505 55.648-14.64 10.099-32.215 17.701-49.211 25.053-11.461 4.957-29.761 12.873-36.743 18.436 2.435 10.316 13.083 35.23 41.851 77.466 26.809 39.361 61.478 82.014 92.795 114.174 32.154 31.315 74.804 65.983 114.167 92.793 42.229 28.762 67.144 39.41 77.462 41.847 5.564-6.982 13.479-25.281 18.438-36.74 7.353-16.997 14.954-34.573 25.057-49.213 15.339-22.231 34.062-33.506 55.65-33.506 10.694 0 30.165 2.772 75.577 26.739 28.042 14.8 60.622 34.947 91.737 56.727 23.173 16.222 56.411 40.972 83.156 66.762 30.238 29.157 43.724 51.348 43.724 71.949 0 50.177-73.535 109.228-96.073 126.131C899.044 973.618 824.264 1024 753.808 1024zM342.864 708.362c73.352 71.453 155.736 136.676 232.004 183.676 73.946 45.569 139.167 71.704 178.939 71.704 35.427 0 85.938-21.637 135.112-57.875 21.563-15.888 41.184-33.581 55.251-49.823 13.205-15.241 18.029-25.184 19.258-29.203-5.1-10.958-35.406-45.229-106.14-94.023-27.745-19.14-56.43-36.729-80.772-49.525-30.567-16.069-43.301-18.843-46.22-19.3-1.13 0.774-4.464 3.561-9.52 12.042-5.665 9.502-11.11 22.087-16.375 34.258-6.483 14.986-13.186 30.481-21.407 42.986-13.373 20.341-29.791 30.656-48.797 30.665-0.345 0.002-0.703-0.005-1.066-0.013-9.252-0.198-37.412-0.8-113.855-52.865-42.209-28.747-88.039-66.027-122.591-99.722l-0.537-0.538c-33.694-34.559-70.971-80.385-99.718-122.587-52.071-76.45-52.672-104.607-52.868-113.858-0.415-19.351 9.794-36.061 30.344-49.664 12.563-8.316 28.188-15.074 43.298-21.609 12.17-5.263 24.754-10.707 34.255-16.37 8.479-5.054 11.268-8.389 12.043-9.519-0.458-2.918-3.231-15.652-19.299-46.217-12.797-24.342-30.386-53.028-49.524-80.772C245.882 99.474 211.61 69.168 200.652 64.066c-4.02 1.229-13.959 6.053-29.203 19.257-16.242 14.071-33.935 33.692-49.822 55.251-36.238 49.178-57.874 99.686-57.874 135.113 0 39.771 26.135 104.992 71.703 178.938 47 76.27 112.225 158.653 183.678 232.005L342.864 708.362z" p-id="1434" fill="#ffffff"></path></svg>