<?xml version="1.0" encoding="utf-8"?>
<!-- Generator: Adobe Illustrator 21.0.0, SVG Export Plug-In . SVG Version: 6.00 Build 0)  -->
<svg version="1.1" id="Layer_1" xmlns="http://www.w3.org/2000/svg" xmlns:xlink="http://www.w3.org/1999/xlink" x="0px" y="0px"
	 viewBox="0 0 460.8 443.3" style="enable-background:new 0 0 460.8 443.3;" xml:space="preserve">
<style type="text/css">
	.st0{clip-path:url(#SVGID_2_);}
	.st1{clip-path:url(#SVGID_4_);fill:none;stroke:#35809F;stroke-width:0.43;stroke-miterlimit:10;}
	.st2{clip-path:url(#SVGID_4_);fill:#231F20;}
	.st3{clip-path:url(#SVGID_4_);fill:#FFFFFF;}
	.st4{clip-path:url(#SVGID_4_);fill:#35809F;}
	.st5{clip-path:url(#SVGID_4_);fill:#37809F;}
	.st6{clip-path:url(#SVGID_4_);}
	.st7{fill:none;stroke:#35809F;stroke-width:0.43;stroke-linecap:round;stroke-linejoin:round;}
	.st8{fill:none;stroke:#35809F;stroke-width:0.43;stroke-miterlimit:22.93;}
	.st9{clip-path:url(#SVGID_4_);fill:#95C5DA;}
	.st10{clip-path:url(#SVGID_4_);fill:none;stroke:#35809F;stroke-width:0.43;stroke-linecap:round;stroke-linejoin:round;}
	.st11{clip-path:url(#SVGID_4_);fill:none;stroke:#35809F;stroke-width:0.43;stroke-miterlimit:22.93;}
</style>
<g id="Layer_2">
	<defs>
		<rect id="SVGID_1_" x="-231.8" y="-57.7" width="841.9" height="595.3"/>
	</defs>
	<clipPath id="SVGID_2_">
		<use xlink:href="#SVGID_1_"  style="overflow:visible;"/>
	</clipPath>
	<g class="st0">
		<defs>
			<rect id="SVGID_3_" x="-231.8" y="-57.7" width="841.9" height="595.3"/>
		</defs>
		<clipPath id="SVGID_4_">
			<use xlink:href="#SVGID_3_"  style="overflow:visible;"/>
		</clipPath>
		<path class="st1" d="M295.1,202.6c-3.5-1.9-7.8-2.3-11.6-0.9c-2.5,0.9-4.6,2.5-6.1,4.8c-1.3,2-1.7,4.5-1.1,6.9
			c0.7,2.6,2.3,4.8,4.5,6.2c-0.4,1.2-0.8,2.4-1.2,3.6c1.4-0.7,2.7-1.5,4.1-2.2c1.6,0.5,3.4,0.8,5.1,0.7c-0.4-1.3-0.6-2.7-0.3-4.1
			c0.4-1.9,1.4-3.6,2.9-4.8c2.6-2,5.8-2.9,9-2.5C299.7,207.1,297.8,204.3,295.1,202.6z"/>
		<path class="st1" d="M308.3,215.8c-0.9-1.9-2.4-3.5-4.3-4.4c-3.4-1.7-7.3-1.7-10.7,0c-2.4,1.1-4.1,3.3-4.7,5.8
			c-0.4,1.9-0.1,3.9,1,5.5c1.6,2.4,4.1,4.1,6.9,4.5c2,0.4,4.1,0.2,6.1-0.4c1.2,0.5,2.2,1.2,3.4,1.7c-0.3-1-0.6-2-0.9-2.9
			c1.3-0.9,2.4-2.1,3.1-3.5C309.1,220.2,309.2,217.9,308.3,215.8z"/>
		<circle class="st1" cx="295.5" cy="216.1" r="1.4"/>
		<circle class="st1" cx="302.4" cy="216.1" r="1.4"/>
		<circle class="st1" cx="284" cy="207.6" r="1.8"/>
		<circle class="st1" cx="292.5" cy="207.6" r="1.8"/>
		<rect x="282.2" y="286.7" class="st1" width="21.9" height="29"/>
		<rect x="286" y="291.7" class="st1" width="4.8" height="4.8"/>
		<rect x="286" y="298.8" class="st1" width="4.8" height="4.8"/>
		<rect x="286" y="306" class="st1" width="4.8" height="4.8"/>
		<polyline class="st1" points="286.9,294.2 288.2,295.8 290.8,291.7 		"/>
		<line class="st1" x1="292.4" y1="296.4" x2="300.8" y2="296.4"/>
		<line class="st1" x1="292.4" y1="303.6" x2="300.8" y2="303.6"/>
		<line class="st1" x1="292.4" y1="310.7" x2="300.8" y2="310.7"/>
		<circle class="st1" cx="357.9" cy="292.5" r="4.6"/>
		<circle class="st1" cx="374.8" cy="300.9" r="4.6"/>
		<circle class="st1" cx="357.9" cy="309.3" r="4.6"/>
		<line class="st1" x1="362.1" y1="293.8" x2="370.7" y2="298.4"/>
		<line class="st1" x1="362.1" y1="307.3" x2="370.7" y2="302.7"/>
		<path class="st2" d="M278.5,151.1c0,0.5,0,1,0,1.5h1.6v0.3l-0.1,1.4c0,0.6-0.1,1.2-0.3,1.8c-0.1,0.3-0.4,0.5-0.7,0.6
			c-0.3,0-0.5,0-0.8,0l-0.1-0.4c0,0,0-0.1,0-0.1c0.3,0.1,0.5,0.1,0.8,0.1c0.3-0.1,0.3-0.3,0.3-0.5c0.2-0.8,0.2-1.7,0.2-2.5h-1
			c0,1-0.2,1.9-0.7,2.8c-0.2,0.3-0.4,0.6-0.6,0.9c-0.2-0.1-0.3-0.3-0.5-0.4c0.5-0.5,0.8-1.1,1-1.7c0.2-0.8,0.2-1.5,0.2-2.3v-1.3
			h-0.9v-0.5h3.4v0.5L278.5,151.1z M278.8,150.5c-0.2-0.5-0.5-0.9-0.9-1.2c0.1-0.1,0.3-0.2,0.4-0.3c0.5,0.3,0.8,0.7,1,1.2
			C279.2,150.3,279,150.4,278.8,150.5 M281.3,150.8c-0.2,0.5-0.5,1-0.9,1.5l-0.5-0.3c0.7-0.8,1.1-1.7,1.2-2.7V149l0.5,0.2
			c0,0.4-0.1,0.7-0.2,1.1h2.9v0.5H281.3z M284.2,156.8c-0.2-0.1-0.3-0.2-0.4-0.3c-0.9-0.7-1.4-1.8-1.5-2.9c0-0.4-0.1-0.9-0.1-1.3
			l-0.8,0.1v3.6l1.1-0.5v0.6c-0.5,0.2-1,0.5-1.6,0.8l-0.3-0.4c0.1-0.1,0.2-0.3,0.3-0.4v-4c0.9,0,1.7-0.3,2.5-0.6l0.4-0.2l0.4,0.4
			c-0.4,0.3-0.9,0.5-1.4,0.6c0,0.5,0,1,0.1,1.5c0,0,0,0,0.1,0c0.4-0.2,0.8-0.6,1-1l0.4,0.3c-0.3,0.5-0.7,0.9-1.2,1.1l-0.1,0.1
			c0.2,0.8,0.6,1.5,1.3,1.9c0.1,0.1,0.2,0.2,0.4,0.2L284.2,156.8z"/>
		<path class="st2" d="M285.8,156.8l-0.4-0.3c0.1-0.1,0.1-0.2,0.2-0.3c0.5-0.9,0.9-1.9,1-3l0.5,0.2
			C286.9,154.7,286.5,155.8,285.8,156.8 M286.8,152.7c-0.3-0.5-0.8-0.9-1.4-1.1l0.3-0.4c0.6,0.2,1.1,0.6,1.4,1.1L286.8,152.7z
			 M286.8,150.9c-0.3-0.5-0.8-0.9-1.3-1.1l0.3-0.4c0.6,0.2,1.1,0.6,1.4,1.1L286.8,150.9z M290.6,150.9c-0.2,0.4-0.5,0.9-0.8,1.2
			l-0.4-0.3c0.2-0.2,0.3-0.4,0.5-0.6h-1.5v1.3h1.5c-0.1,1.2-0.2,2.3-0.4,3.4c0,0.3-0.2,0.5-0.4,0.6c-0.3,0.1-0.7,0.1-1,0l-0.2-0.6
			c0.3,0.1,0.5,0.1,0.8,0.1c0.1,0,0.1,0,0.2-0.1c0.1-0.3,0.2-0.7,0.2-1l0.1-0.6l0.1-1.5h-1c0,1-0.2,2.1-0.8,3
			c-0.2,0.3-0.4,0.6-0.6,0.8l-0.4-0.4c0.7-0.8,1.1-1.8,1.2-2.9c0-0.8,0.1-1.6,0.1-2.5h-0.6v-0.5h2.7v0.4c0.4-0.6,0.6-1.3,0.7-2.1
			l0.5,0.2c-0.1,0.4-0.1,0.7-0.3,1.1h2.1v0.5L290.6,150.9z M288.5,150.7c-0.1-0.5-0.3-0.9-0.7-1.3l0.4-0.3c0.3,0.4,0.6,0.8,0.7,1.3
			L288.5,150.7z M291.7,154.3v1.9c0,0.3-0.2,0.6-0.5,0.6c0,0-0.1,0-0.1,0h-0.8l-0.2-0.5h0.7c0.2,0,0.2-0.1,0.2-0.2v-1.8h-1.3v-0.5
			h1.3v-0.7c0.4-0.2,0.7-0.5,0.9-0.9h-1.9v-0.5h2.5v0.5c-0.3,0.4-0.6,0.8-1,1.2v0.5h1.4v0.5L291.7,154.3z"/>
		<path class="st2" d="M295,150v3c0.2,1.3-0.1,2.7-0.8,3.8l-0.4-0.4c0.6-1,0.9-2.2,0.8-3.4v-3.4h3.2v0.5L295,150z M295.8,156.3
			l-0.3-0.5v-0.1v-5h2c0,0.6,0,1.5,0,1.8c0,0.5,0,0.9-0.2,1.3c-0.1,0.2-0.3,0.3-0.5,0.3c-0.2,0-0.3,0-0.5-0.1
			c-0.1-0.2-0.1-0.4-0.2-0.5c0.2,0,0.5,0.2,0.6,0.1c0.3-0.1,0.3-0.5,0.3-0.7c0-0.5,0-1.2,0-1.8H296v4.4c0.5-0.2,1.2-0.6,1.8-0.9v0.5
			C297.1,155.5,296.6,155.9,295.8,156.3 M299.6,154.6c-0.3,1-1,1.8-1.9,2.2l-0.3-0.4c0.3-0.2,0.6-0.4,0.9-0.6c1.2-0.9,1-2.6,1-4h0.5
			C299.8,152.7,299.7,153.7,299.6,154.6 M299.8,150c-0.1,0.3-0.2,0.6-0.4,0.8h1.5v4h-0.5v-3.5h-1.9v3.6h-0.4v-4.1h0.9
			c0.2-0.3,0.3-0.5,0.4-0.8h-1.5v-0.5h3.6v0.5L299.8,150z M301.1,156.7c-0.3-0.6-0.8-1.2-1.3-1.6l0.4-0.3c0.6,0.4,1,1,1.4,1.6
			L301.1,156.7z"/>
		<path class="st2" d="M303,150.6h0.5v6.2H303V150.6z M305,150.8c-0.3-0.4-0.8-0.8-1.3-1.1l0.3-0.4c0.5,0.3,0.9,0.6,1.3,1L305,150.8
			z M307.2,154.8v-0.3h-2v0.5h-0.5v-3.4h3v3.2H307.2z M307.2,152.2h-1.9v1.8h1.9L307.2,152.2z M309,156.7h-0.9l-0.2-0.5h0.9
			c0.1,0,0.1-0.1,0.2-0.1v-6h-3v-0.5h3.6v6.5C309.5,156.3,309.3,156.6,309,156.7"/>
		<path class="st2" d="M273,331.9l-0.4-0.3c0.6-0.9,1.2-1.8,1.5-2.9l0.4,0.2C274.2,330,273.7,331.1,273,331.9 M273.9,327.8
			c-0.3-0.4-0.7-0.7-1.1-1l0.2-0.3c0.5,0.2,0.9,0.6,1.2,1L273.9,327.8z M274.2,326c-0.3-0.4-0.7-0.8-1.1-1l0.3-0.3
			c0.5,0.2,0.9,0.6,1.2,1L274.2,326z M278.5,327.1v0.7h1.4v3.5c0,0.2-0.1,0.4-0.2,0.5c-0.2,0.2-0.4,0.2-0.9,0.2l-0.2-0.5h0.6
			c0.1,0,0.2,0,0.2-0.2v-1.2l-0.3,0.3c-0.2-0.3-0.5-0.6-0.9-0.8c-0.2,0.6-0.6,1.1-1,1.5l-0.4-0.3c0.3-0.2,0.5-0.5,0.7-0.8
			c-0.2-0.2-0.4-0.4-0.7-0.6c-0.2,0.6-0.5,1.2-1,1.7l-0.3-0.3v1.4H275v-4.3h1.6v-0.7h-1.8v-0.5h5.4v0.5L278.5,327.1z M278.6,325.7
			v0.7h-0.5v-0.7h-1.3v0.7h-0.5v-0.7h-1.5v-0.5h1.5v-0.7h0.5v0.7h1.3v-0.7h0.5v0.7h1.5v0.5L278.6,325.7z M275.5,328.3v2.3
			c0.6-0.6,1-1.4,1-2.3L275.5,328.3z M277,328.3c0,0.2,0,0.4-0.1,0.5c0.3,0.2,0.6,0.4,0.8,0.6c0.1-0.4,0.2-0.8,0.2-1.2H277z
			 M278,327.2h-0.9v0.7h0.9V327.2z M279.5,328.3h-0.9c0,0.3-0.1,0.6-0.1,0.9c0.4,0.2,0.7,0.5,1,0.9L279.5,328.3z"/>
		<path class="st2" d="M281.4,331.7l-0.3-0.5c0.6-0.1,1.1-0.5,1.5-0.9l0.3,0.3C282.6,331.2,282.1,331.5,281.4,331.7 M281.3,327.1
			v-0.5h2.5c0-0.1-0.2-0.2-0.2-0.3c-0.2-0.2-0.3-0.3-0.5-0.4l0.4-0.3h-1.6v-0.5h2.7c-0.2-0.2-0.4-0.4-0.6-0.5l0.5-0.3
			c0.3,0.2,0.5,0.5,0.7,0.8h2.7v0.5h-1.7l0.4,0.1c-0.1,0.3-0.3,0.6-0.5,0.8h2.4v0.5H281.3z M284.8,330c0.4,0.2,0.7,0.4,1,0.7
			l-0.4,0.4c-0.3-0.3-0.6-0.6-1-0.8l0.3-0.3h-2.1v-2.3h4.8v2.3L284.8,330z M286.8,328.1h-3.7v0.5h3.7V328.1z M286.8,328.9h-3.7v0.5
			h3.7V328.9z M286.1,331.9h-0.3H284c-0.2,0-0.5-0.2-0.5-0.4c-0.1-0.4-0.1-0.7-0.1-1.1h0.5v0.8c0,0.1,0.1,0.2,0.2,0.2h1.8
			c0.2,0,0.3-0.4,0.4-0.7l0.5,0.2C286.7,331.2,286.6,331.7,286.1,331.9 M283.6,325.7c0.3,0.2,0.6,0.6,0.8,0.9h1.1
			c0.3-0.3,0.5-0.6,0.7-0.9H283.6z M288.4,331.7c-0.3-0.5-0.8-0.9-1.3-1.1l0.4-0.3c0.5,0.2,1,0.6,1.3,1.1L288.4,331.7z"/>
		<path class="st2" d="M290.9,325.9v2.8c0.1,1.1-0.1,2.1-0.6,3.1c-0.1,0.2-0.2,0.3-0.3,0.4c-0.2-0.1-0.3-0.2-0.5-0.4
			c0.4-0.5,0.6-1.1,0.7-1.7c0.1-0.5,0.1-1.1,0.1-1.6v-1.5c0-0.5,0-1.1,0-1.7h3.2c-0.2-0.3-0.4-0.5-0.7-0.7l0.5-0.3
			c0.3,0.3,0.6,0.6,0.8,0.9h2.9v0.5L290.9,325.9z M297,332.2c-1.1-0.1-2.1-0.4-3.1-0.8c-0.3,0.1-0.5,0.2-0.8,0.4
			c-0.6,0.2-1.3,0.4-2,0.5l-0.4-0.5c0.9-0.1,1.8-0.3,2.7-0.7c-0.5-0.4-1-0.8-1.4-1.4h-0.6v-0.5h4.7v0.5c-0.1,0.2-0.3,0.4-0.5,0.5
			c-0.3,0.3-0.7,0.6-1.1,0.9c0.3,0.1,0.7,0.2,1,0.3c0.6,0.1,1.2,0.2,1.8,0.3C297.2,331.9,297.1,332,297,332.2 M295.5,327.4v1.2h-3.2
			v-1.2h-1.1v-0.5h1.2v-0.7h0.6v0.7h2.1v-0.7h0.5v0.7h1.4v0.5H295.5z M292.6,329.6c0.2,0.3,0.5,0.7,0.9,0.9c0.1,0.1,0.2,0.2,0.4,0.2
			c0.6-0.3,1.1-0.7,1.5-1.1L292.6,329.6z M292.9,327.4v0.7h2v-0.7H292.9z"/>
		<path class="st2" d="M299.5,331.7l-0.3-0.5c0.2-0.1,0.3-0.3,0.3-0.4v-3.3h-1.1V327h1.7v3.8l0.9-0.5v0.5L299.5,331.7z M299.9,326.1
			c-0.2-0.5-0.6-0.8-1-1.2l0.4-0.3c0.4,0.3,0.8,0.7,1,1.1L299.9,326.1z M304.7,332.1H304l-0.2-0.5c0.3,0,0.6,0,0.9,0
			c0.2,0,0.3-0.1,0.3-0.3c0,0,0,0,0,0v-5.9h-3.2v2.4c0,0.9,0,1.9-0.1,2.8c-0.1,0.6-0.4,1.2-0.8,1.8l-0.4-0.3
			c0.4-0.5,0.7-1.1,0.8-1.8c0.1-0.8,0.1-1.7,0.1-2.5v-2.8h4.3v6.4c0,0.4-0.2,0.8-0.6,0.8C304.8,332.1,304.8,332.1,304.7,332.1
			 M302,328.3v-0.5h1.2v-0.8h-1v-0.5h1v-0.8h0.5v0.8h1v0.5h-1v0.8h1.2v0.5H302z M302.3,328.7h2.1v2.2h-2.1V328.7z M303.9,329.1h-1.1
			v1.3h1.1V329.1z"/>
		<path class="st2" d="M314.2,328.6c-1.2-0.7-2.4-1.5-3.3-2.5h-0.1v1.6h-0.6v-1.6c-0.5,0.7-1.1,1.3-1.9,1.8h4.5v2.8H308v-2.6
			c-0.3,0.2-0.6,0.4-1,0.6h-0.1l-0.4-0.4c1.2-0.5,2.2-1.3,3-2.2h-2.7v-0.5h3.3v-1h0.5v1h3.3v0.5h-2.5c0.9,0.9,1.9,1.6,3.1,2.1
			L314.2,328.6z M306.8,331.7v-0.5h7.3v0.5H306.8z M312.3,328.4h-3.8v0.7h3.8V328.4z M312.3,329.5h-3.8v0.7h3.8V329.5z"/>
		<path class="st2" d="M342.5,326.5c0,0.5,0,1,0,1.5h1.6v0.3l-0.1,1.4c0,0.6-0.1,1.2-0.3,1.8c-0.1,0.3-0.4,0.5-0.7,0.6
			c-0.3,0-0.5,0-0.8,0l-0.1-0.5c0,0,0-0.1,0-0.1c0.3,0.1,0.5,0.1,0.8,0.1c0.3-0.1,0.3-0.3,0.3-0.5c0.1-0.8,0.2-1.7,0.2-2.5h-1
			c0,1-0.2,1.9-0.7,2.8c-0.2,0.3-0.4,0.6-0.7,0.9c-0.2-0.1-0.3-0.3-0.5-0.4c0.5-0.5,0.8-1.1,1-1.7c0.2-0.8,0.2-1.5,0.2-2.3v-1.3
			h-0.8V326h3.4v0.5L342.5,326.5z M342.8,325.9c-0.2-0.5-0.5-0.9-0.9-1.2c0.1-0.1,0.3-0.2,0.4-0.3c0.5,0.3,0.8,0.7,1,1.2
			C343.2,325.7,343,325.8,342.8,325.9 M345.3,326.1c-0.2,0.5-0.5,1-0.9,1.5l-0.5-0.3c0.7-0.8,1.1-1.7,1.2-2.7v-0.2l0.5,0.2
			c0,0.4-0.1,0.7-0.2,1.1h2.9v0.5H345.3z M348.2,332.2c-0.2-0.1-0.3-0.2-0.4-0.3c-0.9-0.7-1.4-1.8-1.5-2.9c0-0.4-0.1-0.9-0.1-1.3
			l-0.8,0.1v3.5l1.1-0.5v0.6c-0.5,0.2-1,0.5-1.6,0.8l-0.3-0.4c0.1-0.1,0.2-0.3,0.3-0.4v-4c0.9,0,1.7-0.3,2.5-0.6l0.4-0.2l0.4,0.4
			c-0.4,0.3-0.9,0.5-1.4,0.6c0,0.5,0,1,0.1,1.5c0,0,0,0,0.1,0c0.4-0.2,0.8-0.6,1-1l0.4,0.3c-0.3,0.5-0.7,0.9-1.2,1.1l-0.1,0.1
			c0.2,0.8,0.6,1.5,1.3,2c0.1,0.1,0.2,0.2,0.4,0.2L348.2,332.2z"/>
		<path class="st2" d="M357,331.9h-3.7c-0.9-0.1-1.8-0.5-2.4-1.1c-0.4,0.4-0.8,0.8-1.3,1.1l-0.3-0.4c0.5-0.3,0.9-0.8,1.3-1.2v-2.2
			h-1.2v-0.5h1.6v2.8c0.5,0.7,1.3,1.1,2.2,1.1c1,0,2.2,0,3.9-0.1L357,331.9z M350.8,326.6c-0.3-0.5-0.6-0.9-1-1.3l0.4-0.3
			c0.4,0.4,0.8,0.8,1.1,1.3L350.8,326.6z M352,330.6l-0.4-0.5c0.7-0.2,1.2-0.7,1.6-1.3l0.4,0.4C353.2,329.8,352.6,330.3,352,330.6
			 M356.6,327.1c-0.3-0.1-0.6-0.2-0.9-0.4v0.4h-1.2v0.9h2v0.5h-2v2c0,0.3-0.2,0.6-0.5,0.6c0,0,0,0-0.1,0h-0.8l-0.2-0.6
			c0.3,0,0.5,0,0.8,0s0.3,0,0.3-0.2v-1.8H352v-0.5h2.1v-0.9h-1.3v-0.4c-0.2,0.1-0.5,0.3-0.7,0.4l-0.4-0.5c1.1-0.4,2-1.2,2.5-2.2
			l0.5,0.3l-0.1,0.1c0.6,0.9,1.4,1.5,2.4,1.8L356.6,327.1z M354.3,325.3c-0.4,0.5-0.9,1-1.4,1.3h2.8
			C355.1,326.3,354.6,325.8,354.3,325.3 M356.3,330.6c-0.3-0.6-0.8-1.1-1.5-1.4l0.4-0.4c0.6,0.3,1.1,0.8,1.5,1.4L356.3,330.6z"/>
		<path class="st2" d="M358.4,332.1l-0.4-0.3c0.4-0.3,0.7-0.6,0.9-1c0.1-0.2,0.2-0.4,0.3-0.6c0.1,0.1,0.3,0.2,0.4,0.2
			C359.4,331.1,358.9,331.7,358.4,332.1 M360.3,329.7v-0.5h-1.2v0.5h-0.5V325h2.2v4.7L360.3,329.7z M360.3,327.4h-1.2v1.3h1.2
			L360.3,327.4z M360.3,325.6h-1.2v1.3h1.2L360.3,325.6z M361.1,332c-0.1-0.5-0.4-1.1-0.8-1.5l-0.1-0.1c0.2-0.1,0.3-0.1,0.5-0.2
			c0.4,0.4,0.7,1,0.8,1.5L361.1,332z M364.8,326.7c-0.1,0.2-0.3,0.4-0.5,0.5c-0.2,0-0.4,0-0.7,0l-0.4-0.1l-0.1-0.5
			c0.3,0.1,0.7,0.2,1,0.2c0.2-0.1,0.2-0.4,0.3-0.5c0.1-0.2,0.1-0.5,0.1-0.8h-1.4c-0.1,0.4-0.2,0.8-0.4,1.1c-0.3,0.5-0.9,0.9-1.5,1.1
			l-0.3-0.5c0.6-0.1,1.1-0.4,1.4-0.9c0.2-0.3,0.2-0.6,0.3-0.9h-1.2v-0.5h3.7C365,325.5,364.9,326.2,364.8,326.7 M364.8,330.1h-0.5
			v-0.5h-2.1v0.5h-0.5v-2.4h3.2L364.8,330.1z M363.1,332.1c-0.1-0.4-0.3-0.8-0.6-1.2c-0.1-0.1-0.2-0.3-0.4-0.4l0.5-0.2
			c0.4,0.4,0.7,1,0.9,1.5C363.4,331.9,363.2,332,363.1,332.1 M364.2,328.1h-2v1h2V328.1z M365,332.2c-0.2-0.7-0.6-1.2-1.2-1.7
			c0.2-0.1,0.3-0.2,0.5-0.2c0.5,0.5,0.8,1,1.1,1.6C365.3,332,365.2,332.1,365,332.2"/>
		<path class="st2" d="M368.5,327.3v1.6h3.7v3.3h-0.5v-2.8h-3.2c0,0.6-0.2,1.2-0.5,1.8c-0.3,0.4-0.7,0.8-1.1,1.1l-0.4-0.4
			c0.8-0.4,1.3-1.2,1.4-2.1v-0.7v-4h0.5v1.7h2.2v-2.3h0.5v2.3h2.5v0.5H368.5z"/>
		<path class="st2" d="M375.4,328.1l-0.4-0.4c1.2-0.5,2.2-1.5,2.7-2.8l0.5,0.3C377.6,326.5,376.6,327.5,375.4,328.1 M380.7,329.9
			c0,0.4-0.1,0.9-0.2,1.3c-0.1,0.3-0.3,0.6-0.6,0.7c-0.4,0.1-0.9,0-1.3-0.1l-0.3,0l-0.2-0.6c0.5,0.1,0.9,0.2,1.4,0.3
			c0.1,0,0.2,0,0.3-0.1c0.1-0.2,0.2-0.5,0.2-0.8c0.1-0.7,0.2-1.5,0.2-2.2h-1.8c-0.1,1.1-0.5,2.1-1.2,2.9c-0.5,0.5-1.1,0.9-1.8,1.1
			l-0.4-0.5c1.1-0.3,2-1.1,2.5-2.1c0.2-0.5,0.3-0.9,0.4-1.4h-1.5v-0.5h4.4C380.9,328.5,380.8,329.2,380.7,329.9 M382.1,328.1
			c-1.2-0.7-2.1-1.7-2.6-2.9l0.5-0.3c0.5,1.2,1.4,2.1,2.5,2.7L382.1,328.1z"/>
		<path class="st2" d="M387.6,330.6v1c0,0.4-0.2,0.5-0.5,0.5h-0.9l-0.2-0.6c0.3,0,0.7,0,1,0c0.1,0,0.2-0.1,0.2-0.2v-0.8h-3.5v-0.5
			h3.5v-0.4c0.6-0.1,1.2-0.3,1.8-0.6h-4.4v-0.5h5.2v0.5c-0.7,0.4-1.4,0.8-2.2,0.9v0.1h3.3v0.5L387.6,330.6z M383.8,325.7v-0.5h3.2
			c-0.1-0.1-0.1-0.2-0.2-0.3c-0.1-0.1-0.3-0.2-0.4-0.3l0.5-0.3c0.3,0.2,0.5,0.5,0.7,0.9h3.1v0.5L383.8,325.7z M384.9,328v-1.8h4.7
			v1.8L384.9,328z M389,326.8h-3.6v0.8h3.6V326.8z"/>
		<path class="st2" d="M356.8,154.3c-0.7-0.3-1.3-0.6-2-1v0.4h-3v-0.4c-0.6,0.4-1.3,0.7-2,0.8c-0.1-0.1-0.2-0.3-0.3-0.5
			c1.2-0.2,2.3-0.8,3.2-1.7c0.2-0.2,0.4-0.4,0.6-0.6l-0.3-0.3c0.3-0.3,0.6-0.6,0.8-1c0.2-0.3,0.3-0.7,0.4-1l0.4,0.2
			c-0.1,0.2-0.2,0.5-0.2,0.7h2.7v0.5h-1.5c0.3,0.2,0.5,0.5,0.6,0.8l-0.5,0.2c-0.2-0.4-0.5-0.7-0.8-1h-0.7c-0.2,0.3-0.4,0.5-0.6,0.8
			l0.3,0.2l-0.2,0.2c0.9,1.1,2.2,1.8,3.5,2.2L356.8,154.3z M351.9,150.5c0.3,0.3,0.5,0.6,0.6,0.9l-0.5,0.2c-0.2-0.4-0.4-0.8-0.8-1.2
			H351c-0.3,0.5-0.6,0.9-1.1,1.2l-0.4-0.4c0.8-0.6,1.3-1.4,1.6-2.3l0.4,0.2c-0.1,0.3-0.2,0.5-0.3,0.7h2.1v0.5H351.9z M349.6,156.4
			v-0.5h4.5c0.5-0.6,0.8-1.3,1.1-2l0.5,0.3c-0.3,0.6-0.6,1.1-1,1.7h2.3v0.5L349.6,156.4z M351.7,155.7c-0.2-0.5-0.6-1-1-1.4l0.4-0.2
			c0.4,0.4,0.8,0.9,1,1.4L351.7,155.7z M353.4,152c-0.4,0.5-0.9,0.9-1.4,1.2h2.7C354.2,152.9,353.8,152.5,353.4,152 M353.3,155.7
			c-0.2-0.6-0.6-1.1-1-1.6l0.5-0.2c0.4,0.5,0.8,1,1,1.6L353.3,155.7z"/>
		<path class="st2" d="M358.9,156.2c-0.1-0.2-0.2-0.3-0.3-0.4c0.1-0.1,0.2-0.2,0.3-0.4v-3H358v-0.5h1.4v3.5c0.3-0.2,0.8-0.4,1.1-0.6
			v0.6C360,155.7,359.6,155.9,358.9,156.2 M359.6,150.8c-0.3-0.4-0.7-0.7-1.2-1l0.4-0.4c0.4,0.3,0.8,0.6,1.2,1L359.6,150.8z
			 M360,156.5v-0.5h1v-4.1h0.5v4.1h1.3v-5.7h-2.2v-0.5h4.6c0,0.2,0,0.3,0,0.5h-1.9v2.3h1.7v0.5h-1.7v2.9h2.2v0.5L360,156.5z"/>
		<path class="st2" d="M366.7,152.9l-0.2-0.5c0.8-0.1,1.7-0.4,2.3-0.9l0.2,0.5C368.3,152.5,367.5,152.8,366.7,152.9 M368.7,150.9
			c-0.6-0.5-1.3-0.8-2-0.8l0.3-0.5c0.7,0,1.4,0.3,2,0.8L368.7,150.9z M372.1,156.8v-0.6h-3.8v0.6h-0.5v-3.2h4.9v3.1H372.1z
			 M373.6,153.5c-1-0.1-1.9-0.6-2.5-1.4c-0.6,0.8-1.6,1.3-2.6,1.5l-0.3-0.6c0.9,0,1.8-0.5,2.4-1.2c0.3-0.4,0.4-0.8,0.4-1.3h-0.8
			c-0.2,0.4-0.4,0.8-0.8,1.2l-0.5-0.3c0.6-0.6,1-1.4,1-2.3l0.5,0.1c0,0.3-0.1,0.5-0.1,0.8h3.1c-0.1,0.6-0.2,1.1-0.5,1.7l-0.5-0.1
			c0.2-0.3,0.3-0.7,0.4-1h-1.3c0,0.3-0.1,0.7-0.2,1c0.6,0.9,1.5,1.4,2.5,1.4L373.6,153.5z M372.1,154.2h-3.8v1.5h3.8L372.1,154.2z"
			/>
		<path class="st2" d="M376.4,156.7l-0.3-0.5c0.1-0.1,0.2-0.3,0.2-0.4v-3.7h-1.2v-0.5h1.7v4.3l1.2-0.7v0.6L376.4,156.7z
			 M376.6,150.7c-0.2-0.5-0.6-0.9-1-1.2l0.4-0.3c0.5,0.3,0.8,0.7,1.1,1.2L376.6,150.7z M381.9,155.3c-0.1,0.5,0,1.3-0.7,1.4
			c-0.3,0.1-0.7,0.1-1,0l-0.2-0.6c0.3,0.1,0.6,0.1,0.9,0.1c0.4,0,0.4-0.6,0.5-0.9c0.2-1.6,0.3-3.1,0.2-4.7H379
			c-0.1,0.3-0.3,0.7-0.5,1h2.3v4h-0.5v-0.6h-1.4v0.6h-0.5V152c-0.2,0.2-0.4,0.4-0.6,0.6l-0.4-0.3c0.9-0.8,1.4-1.9,1.5-3.1l0.5,0.1
			c-0.1,0.3-0.1,0.6-0.2,0.9h3C382.1,152.1,382,154.1,381.9,155.3 M380.3,152.1h-1.4v0.9h1.4V152.1z M380.3,153.6h-1.4v1h1.4V153.6z
			"/>
		<path class="st2" d="M267.4,239.9c-0.2,0.4-0.3,0.7-0.5,1.1h3.7v0.5c-0.5,0.6-1.2,1.2-1.6,1.7c0.4,0.3,0.8,0.6,1.2,0.9l-0.4,0.4
			c-0.2-0.2-0.4-0.4-0.6-0.5c-0.8-0.6-1.8-1.1-2.8-1.4l0.3-0.4c0.6,0.2,1.1,0.4,1.7,0.7c0.4-0.4,1-1,1.4-1.4h-3.5V241
			c0.3-0.3,0.5-0.7,0.6-1.1h-2.5v-0.5h2.7c0.1-0.3,0.2-0.7,0.3-1h-2.5v-0.5h2.5c0.1-0.4,0.1-0.7,0.1-1.1l0.5,0.1
			c0,0.3-0.1,0.6-0.1,0.9h2.9v0.5h-3c-0.1,0.3-0.1,0.7-0.3,1h4.1v0.5H267.4z"/>
		<path class="st2" d="M274.1,243.9l-0.3-0.5c0.1-0.1,0.2-0.3,0.2-0.4v-2.9h-1.2v-0.5h1.8v3.5l1.2-0.7v0.6L274.1,243.9z
			 M274.6,238.7c-0.2-0.5-0.6-0.9-1-1.2l0.4-0.3c0.5,0.3,0.8,0.7,1.1,1.2L274.6,238.7z M279.9,244.5c-0.8-0.3-1.5-0.7-2.1-1.2
			c-0.6,0.5-1.3,0.9-2.1,1.2l-0.4-0.4c0.7-0.3,1.4-0.6,2-1.1c-0.5-0.6-0.9-1.2-1.1-1.9h-0.4v-0.5h3.6c-0.2,0.9-0.6,1.8-1.3,2.4
			c0.7,0.5,1.4,0.9,2.2,1.1L279.9,244.5z M279.1,239.9c-0.3,0-0.6-0.2-0.6-0.5c0,0,0-0.1,0-0.1v-1.4H277v0.9c0,0.5-0.2,1.1-0.6,1.4
			c-0.2,0.2-0.4,0.3-0.6,0.4l-0.4-0.4c0.7-0.2,1.2-1,1.1-1.7v-1.1h2.6v1.9c0,0.1,0,0.2,0.2,0.2h0.9v0.5L279.1,239.9z M276.8,241.1
			c0.2,0.6,0.5,1.1,0.9,1.5c0.4-0.4,0.8-1,1-1.5H276.8z"/>
		<path class="st2" d="M282.6,240.2v4.5h-0.5v-3.8c-0.2,0.2-0.4,0.4-0.7,0.6l-0.5-0.3c0.8-0.6,1.4-1.3,1.9-2.2l0.4,0.3
			C283.1,239.5,282.9,239.8,282.6,240.2 M281.5,239.1l-0.4-0.3c0.7-0.5,1.2-1.2,1.6-1.9l0.4,0.2
			C282.8,237.9,282.2,238.5,281.5,239.1 M285.2,243.6l-0.4-0.3c0.2-0.2,0.3-0.5,0.2-0.7v-0.7h-0.9c0,0.4,0,0.8-0.1,1.2
			c-0.1,0.5-0.4,1-0.8,1.4l-0.4-0.4c0.3-0.3,0.6-0.7,0.7-1.1c0.1-0.3,0.1-0.6,0.1-0.9v-0.7h1.9v1.4l0.9-0.5v0.5L285.2,243.6z
			 M288.5,244.4c-0.5-0.5-0.9-1-1.2-1.6c-0.4,0.6-0.8,1.2-1.3,1.6l-0.4-0.4c0.6-0.5,1.1-1.1,1.5-1.9c-0.2-0.6-0.4-1.2-0.5-1.9
			l-0.4,0.6l-0.2-0.2h-2.8v-0.5h2.7c0.6-1.1,0.9-2.3,0.9-3.5l0.5,0.1c0,0.5-0.1,1.1-0.1,1.6h1.5v0.5h-0.4c0,1.1-0.3,2.2-0.7,3.3
			c0.3,0.7,0.8,1.3,1.4,1.8L288.5,244.4z M283.4,239.7v-2.1h0.5v1.6h0.5v-2.4h0.5v2.4h0.5v-1.6h0.5v2.1H283.4z M286.9,239l-0.1,0.4
			c0,0.7,0.2,1.5,0.4,2.2c0.3-0.8,0.4-1.7,0.5-2.5L286.9,239z"/>
		<path class="st2" d="M291.3,238.8v5.8h-0.5v-4.9c-0.2,0.4-0.5,0.9-0.8,1.2l-0.5-0.3c0.4-0.5,0.8-1,1.1-1.6l0.1-0.1
			c0.3-0.6,0.6-1.3,0.8-2l0.5,0.2C291.8,237.6,291.6,238.2,291.3,238.8 M291.8,238.6v-0.5h2.7c-0.3-0.4-0.6-0.7-1-1l0.4-0.3h0.1
			c0.4,0.3,0.7,0.6,1,1l-0.2,0.3h2.6v0.5L291.8,238.6z M292.3,239.4h4.3v0.5h-4.3V239.4z M292.3,240.6h4.3v0.5h-4.3V240.6z
			 M295.9,244.5V244h-3v0.5h-0.5V242h4v2.5L295.9,244.5z M295.9,242.5h-3v1h3V242.5z"/>
		<path class="st2" d="M305.4,244.5c-1.2-0.3-2.4-0.9-3.4-1.7l0,0c-1,0.8-2.1,1.4-3.3,1.7l-0.3-0.5c1.1-0.2,2.1-0.7,3-1.3l0.3-0.3
			c-0.5-0.6-0.9-1.2-1.2-1.9l0.5-0.2c0.3,0.6,0.6,1.2,1.1,1.8l0,0c0.5-0.6,0.8-1.2,1.1-1.9l0.5,0.3c-0.3,0.7-0.7,1.4-1.2,2
			c1,0.8,2.1,1.3,3.4,1.6L305.4,244.5z M299.6,240.6c-0.2,0.1-0.4,0.3-0.7,0.4l-0.4-0.4c0.9-0.4,1.6-0.9,2.2-1.7l0.4,0.3
			C300.7,239.8,300.2,240.2,299.6,240.6 M298.6,238.6v-0.5h3.3c-0.2-0.3-0.4-0.6-0.7-0.8l-0.3-0.2l0.4-0.3c0.2,0.1,0.3,0.2,0.4,0.3
			c0.3,0.2,0.5,0.4,0.7,0.7l-0.3,0.2h3.3v0.5L298.6,238.6z M304.8,241.1c-0.5-0.8-1.3-1.5-2.2-1.8l0.5-0.3c0.9,0.4,1.6,1,2.2,1.8
			L304.8,241.1z"/>
		<path class="st2" d="M307.9,240.6c-0.3-0.6-0.8-1-1.4-1.2l0.4-0.4c0.6,0.2,1.1,0.7,1.4,1.2L307.9,240.6z M307.2,244.3l-0.5-0.4
			c0.8-0.7,1.2-1.6,1.4-2.7l0-0.3l0.5,0.2C308.5,242.4,308,243.5,307.2,244.3 M308.3,238.5c-0.3-0.5-0.7-0.8-1.3-1l0.4-0.4
			c0.5,0.2,1,0.5,1.3,1L308.3,238.5z M309.4,243.9c-0.3,0.3-0.6,0.5-0.9,0.6l-0.4-0.5c0.4-0.1,0.7-0.4,1-0.7c0.4-0.6,0.6-1.3,0.5-2
			v-0.5h0.5C310.1,242,310.1,243.1,309.4,243.9 M311.3,238.3c-0.3,0.6-0.7,1.2-1.3,1.7h0.3l2.5-0.3c-0.2-0.2-0.5-0.4-0.8-0.5
			l0.5-0.3c0.1,0,0.1,0,0.2,0.1c0.5,0.3,1,0.8,1.2,1.3l-0.5,0.3c-0.1-0.2-0.2-0.4-0.3-0.5l-1.3,0.1l-1.7,0.2l-0.9,0.1
			c-0.1-0.2-0.3-0.3-0.4-0.5c0.5-0.2,0.9-0.5,1.2-0.9c0.2-0.3,0.5-0.6,0.6-1h-1.9v-0.5h2.4c-0.3-0.3-0.6-0.6-1-0.8l0.4-0.3
			c0.4,0.2,0.8,0.5,1,0.9l-0.3,0.2h2.6v0.5L311.3,238.3z M310.9,240.9h0.5v3.5h-0.5V240.9z M314.1,243.8c-0.1,0.2-0.3,0.4-0.5,0.5
			c-0.3,0-0.8,0.1-1-0.2c-0.1-0.1-0.1-0.2-0.2-0.3v-2.9h0.5v2.6c0,0.1,0,0.2,0.1,0.2c0.1,0.1,0.2,0,0.4,0c0.1,0,0.2,0,0.2-0.1
			c0.1-0.3,0.2-0.7,0.2-1l0.5,0.2C314.3,243.2,314.3,243.5,314.1,243.8"/>
		<path class="st2" d="M321.2,242.3v2.1h-0.5v-2.1h-1.7v-0.5h1.7v-1.3h-1.1V240h1.1v-1.3h-1.3v0.3h-0.5v1.5h-2
			c-0.1,0.2-0.2,0.5-0.3,0.7h2.2v3.3h-0.6c0-0.2,0-0.3,0-0.5h-1.6v0.5H316v-2.4c-0.2,0.2-0.4,0.5-0.7,0.6c-0.2-0.1-0.3-0.3-0.4-0.4
			c0.5-0.3,0.9-0.8,1.1-1.3c0.1-0.2,0.2-0.4,0.3-0.6h-0.7V240h0.8c0.1-0.3,0.1-0.7,0.1-1h-1.4v-0.5h1.4c0-0.3,0-0.6,0-0.9h-1v-0.5
			h3.2v1.4h0.5v-0.3h1.1c-0.1-0.3-0.3-0.6-0.5-0.9c-0.1-0.1-0.3-0.3-0.4-0.4l0.4-0.3c0.2,0.2,0.4,0.4,0.6,0.6l0.4,0.6
			c-0.1,0.1-0.3,0.2-0.4,0.3h0.6c0.4-0.4,0.7-1,0.8-1.6c0.2,0.1,0.3,0.2,0.5,0.3c-0.1,0.5-0.3,0.9-0.6,1.3h0.9v0.5h-1.4v1.3h1.1v0.5
			h-1.1v1.3h1.6v0.5L321.2,242.3z M318.2,241.7h-1.6v1.8h1.6L318.2,241.7z M317.1,239c0,0.3,0,0.6-0.1,0.9h1.3v-1L317.1,239z
			 M318.3,237.6h-1.2v0.9h1.2V237.6z"/>
		<path class="st2" d="M347.1,240.5v4h-0.5v-3.4c-0.3,0.3-0.7,0.5-1,0.7c-0.2-0.1-0.3-0.3-0.5-0.4c1-0.7,1.9-1.5,2.6-2.6l0.4,0.3
			C347.8,239.6,347.5,240.1,347.1,240.5 M345.7,239.3C345.7,239.3,345.7,239.3,345.7,239.3l-0.4-0.4c0.9-0.6,1.6-1.4,2.1-2.2
			l0.4,0.3C347.2,237.9,346.5,238.7,345.7,239.3 M351.2,240v3.8c0,0.2-0.1,0.5-0.3,0.6c-0.2,0.1-0.4,0.1-0.5,0.1h-0.9
			c0-0.2-0.1-0.4-0.2-0.5c0.4,0,0.8,0,1.2,0c0.1,0,0.2-0.1,0.3-0.3V240h-2.2v-0.5h4.4v0.5L351.2,240z M348.5,237.3h3.6v0.5h-3.6
			L348.5,237.3z"/>
		<path class="st2" d="M353.9,238.5V238h2.3c-0.2-0.4-0.6-0.8-1-1l0.5-0.3c0.4,0.4,0.8,0.8,1,1.3h1.5c0.4-0.4,0.7-0.8,0.8-1.4
			l0.5,0.3c-0.2,0.4-0.4,0.8-0.7,1.1h2.4v0.5L353.9,238.5z M356.8,244.3h-0.8l-0.2-0.5h0.9c0.1,0,0.2,0,0.2-0.2v-1.1h-1.8v1.9h-0.5
			v-5h2.8v4.3C357.5,244,357.2,244.3,356.8,244.3C356.8,244.3,356.8,244.3,356.8,244.3 M356.9,239.8h-1.8v0.8h1.8V239.8z
			 M356.9,241.2h-1.8v0.9h1.8V241.2z M358.4,239.6h0.5v3.3h-0.5V239.6z M359.8,244.5H359l-0.2-0.5c0.3,0,0.5,0,0.8,0
			c0.2,0,0.2-0.1,0.2-0.3V239h0.5v4.7C360.4,244.1,360.2,244.4,359.8,244.5C359.8,244.4,359.8,244.4,359.8,244.5"/>
		<path class="st2" d="M363.5,243.8l-0.3-0.5c0.1-0.1,0.2-0.3,0.2-0.4v-3h-1.1v-0.5h1.6v3.6l1.2-0.6v0.6L363.5,243.8z M364,238.6
			c-0.2-0.5-0.6-0.9-1-1.2l0.4-0.3c0.5,0.3,0.8,0.7,1.1,1.2L364,238.6z M369.3,243.8c-0.1,0.2-0.3,0.3-0.6,0.3h-0.6
			c-0.4,0-0.7-0.3-0.8-0.6v-2.2h-0.7c0.1,1.2-0.6,2.4-1.6,3c-0.1,0.1-0.3,0.1-0.4,0.2l-0.3-0.5c0.8-0.3,1.4-0.9,1.6-1.7
			c0.1-0.3,0.2-0.7,0.2-1h-0.9v-2.6h3.6v2.6h-1v2.1c0,0.1,0.1,0.2,0.2,0.3c0,0,0,0,0,0h0.4c0.1,0,0.3-0.1,0.3-0.2
			c0.1-0.3,0.2-0.7,0.3-1l0.5,0.3C369.6,243.1,369.5,243.5,369.3,243.8 M366.3,238.5c-0.2-0.6-0.5-1.1-1-1.5l0.4-0.2
			c0.5,0.4,0.8,0.9,1,1.5L366.3,238.5z M368.3,239.3h-2.5v1.6h2.5V239.3z M367.9,238.6l-0.5-0.2c0.4-0.5,0.8-1,1-1.6l0.4,0.2
			C368.6,237.5,368.3,238.1,367.9,238.6"/>
		<path class="st2" d="M373.2,242.6v-0.5h-1.5v0.6h-0.5v-4.9h2.5v4.9L373.2,242.6z M371.8,238.2v1.4h1.5v-1.4L371.8,238.2z
			 M373.2,240.1h-1.5v1.5h1.5V240.1z M377.8,243.7c-0.1,0.3-0.3,0.5-0.6,0.6c-0.3,0-0.6,0-0.9,0l-0.2-0.5c0.3,0,0.6,0,0.9,0
			c0.1,0,0.2-0.1,0.2-0.2v-1.9h-2.1c-0.1,1-0.6,1.9-1.3,2.5c-0.1,0.1-0.2,0.2-0.4,0.3c-0.2-0.1-0.3-0.3-0.4-0.4
			c0.6-0.3,1-0.8,1.3-1.4c0,0,0,0,0-0.1c0.3-0.7,0.4-1.4,0.3-2.2v-3.2h3.1L377.8,243.7z M377.2,237.7h-2v1.5h2V237.7z M377.2,239.7
			h-2.1v1.5h2.1L377.2,239.7z"/>
		<path class="st2" d="M386.4,241c-1.4-0.9-2.6-2-3.5-3.2c-0.4,0.7-1,1.3-1.6,1.9h3.3v0.5h-3.3v-0.4c-0.5,0.5-1.1,0.9-1.7,1.3
			l-0.4-0.4c0.6-0.3,1.1-0.7,1.6-1.1c0.8-0.8,1.6-1.7,2.1-2.7l0.5,0.2c0,0.1-0.1,0.2-0.2,0.3c0.8,1,1.7,2,2.7,2.7l0.9,0.6L386.4,241
			z M385.7,244.3c-0.1-0.2-0.3-0.3-0.5-0.5l-3.4,0.4l-1.3,0.2l-0.4-0.7c0.9-0.6,1.7-1.3,2.5-2.1h-2.9v-0.5h6.3v0.5h-3.3l0.4,0.3
			c-0.7,0.7-1.4,1.4-2.2,1.9l3.8-0.5c-0.3-0.2-0.6-0.4-0.9-0.5l0.3-0.3c0.4,0.2,0.7,0.4,1,0.6c0.3,0.2,0.6,0.5,0.9,0.8L385.7,244.3z
			"/>
		<rect x="355.3" y="110.8" class="st1" width="21.3" height="28.2"/>
		<polygon class="st3" points="374.3,134.6 354.9,139.1 354.9,110.8 374.3,106.4 		"/>
		<polygon class="st1" points="374.3,134.6 354.9,139.1 354.9,110.8 374.3,106.4 		"/>
		<line class="st1" x1="358.2" y1="132.2" x2="370.5" y2="129.3"/>
		<path class="st4" d="M364.3,114.6L364.3,114.6c-3.2,1-5.4,3.9-5.6,7.3c-0.1,2.2,1.6,4.2,3.8,4.3c0.5,0,1,0,1.4-0.2l0,0l0.4-0.1
			l0,0l0.4-0.1l0,0c3-1.1,5.1-3.9,5.2-7.1C370,115.5,367.4,113.7,364.3,114.6 M369,121.5l-2,0.6c0.3-0.8,0.5-1.7,0.5-2.6l2.1-0.6
			C369.6,119.8,369.4,120.7,369,121.5 M364.4,125.6v-2.5l2.1-0.6c-0.5,1.1-1.1,2.1-1.9,3L364.4,125.6 M363.9,125.7
			c-0.8-0.4-1.5-1.1-1.9-1.9l2.1-0.6v2.5L363.9,125.7 M358.9,121.9l2.2-0.6c0,0.8,0.2,1.6,0.5,2.3l-2,0.6
			C359.2,123.5,359,122.7,358.9,121.9 M359.7,118.9l2-0.6c-0.3,0.8-0.5,1.7-0.5,2.6l-2.1,0.6C359.1,120.7,359.3,119.8,359.7,118.9
			 M364.2,114.9v2.4l-2.1,0.6c0.5-1.1,1.1-2.1,1.9-3L364.2,114.9 M364.7,114.7c0.8,0.4,1.5,1.1,1.9,1.9l-2.1,0.6v-2.4L364.7,114.7
			 M366.7,116.9c0.3,0.7,0.5,1.5,0.5,2.3l-2.8,0.8v-2.5L366.7,116.9z M364.2,117.6v2.5l-2.7,0.8c0-0.9,0.2-1.8,0.5-2.6L364.2,117.6z
			 M361.4,121.2l2.7-0.8v2.4l-2.2,0.6C361.6,122.7,361.4,122,361.4,121.2 M364.4,122.7v-2.4l2.8-0.8c0,0.9-0.2,1.7-0.5,2.6
			L364.4,122.7z M367.5,119.1c0-0.8-0.2-1.6-0.5-2.3l2-0.6c0.4,0.7,0.7,1.5,0.7,2.3L367.5,119.1z M368.8,116l-1.9,0.5
			c-0.4-0.8-1-1.4-1.7-1.9C366.6,114.4,367.9,114.9,368.8,116 M363.5,115.1c-0.7,0.9-1.3,1.8-1.7,2.9l-1.9,0.5
			C360.7,117.1,361.9,115.9,363.5,115.1 M359.8,124.4l1.9-0.6c0.4,0.8,1,1.4,1.7,1.9C362.1,125.9,360.7,125.4,359.8,124.4
			 M365.2,125.2c0.7-0.9,1.3-1.8,1.7-2.9l1.9-0.5C368,123.3,366.8,124.5,365.2,125.2"/>
		<path class="st5" d="M377,218.3c-0.8,0-1.5-0.4-2-1c0-0.1,0-0.2,0-0.2c0.5-1.2,0.9-2.5,1.1-3.8c0-0.1,0.1-0.2,0.2-0.2
			c1.4-0.5,2.9,0.3,3.3,1.7c0.5,1.4-0.3,2.9-1.7,3.3C377.6,218.3,377.3,218.3,377,218.3 M377,213.5c-0.2,0-0.3,0-0.5,0.1
			c-0.2,1.2-0.6,2.5-1.1,3.6c0.4,0.5,1,0.7,1.6,0.7c1.2,0,2.2-1,2.2-2.2C379.2,214.5,378.3,213.5,377,213.5"/>
		<path class="st5" d="M365,224.5c-6,0-11-5.1-11.5-11.8c0-0.4,0.1-0.7,0.3-1c0.3-0.3,0.7-0.5,1.1-0.5H375c0.4,0,0.8,0.2,1.1,0.5
			c0.3,0.3,0.4,0.6,0.3,1C375.9,219.4,371,224.5,365,224.5 M354.9,211.6c-0.3,0-0.6,0.1-0.8,0.3c-0.2,0.2-0.3,0.4-0.2,0.7
			c0.5,6.5,5.3,11.4,11.1,11.4s10.5-4.9,11.1-11.4c0-0.2-0.1-0.5-0.2-0.7c-0.2-0.2-0.5-0.3-0.8-0.3H354.9z"/>
		<path class="st5" d="M361.3,209.1c-0.1,0-0.2-0.1-0.2-0.2s0.1-0.2,0.2-0.2c1.5,0,2.8-1,2.8-2.2s-1-2-2.8-2.2s-2.7-1.1-2.7-2.2
			c0.2-1.4,1.4-2.4,2.8-2.2c0.1,0,0.2,0.1,0.2,0.2s-0.1,0.2-0.2,0.2c-1.1-0.1-2.1,0.7-2.3,1.8c0,1.1,1.2,1.6,2.3,1.8
			c2,0.2,3.2,1.2,3.2,2.6S363.1,209.1,361.3,209.1"/>
		<path class="st5" d="M367.5,209.1c-0.1,0-0.2-0.1-0.2-0.2s0.1-0.2,0.2-0.2c1.5,0,2.8-1,2.8-2.2s-1-2-2.8-2.2s-2.7-1.1-2.7-2.2
			c0.2-1.4,1.4-2.4,2.8-2.2c0.1,0,0.2,0.1,0.2,0.2s-0.1,0.2-0.2,0.2c-1.1-0.1-2.1,0.7-2.3,1.8c0,1.1,1.2,1.6,2.3,1.8
			c2,0.2,3.2,1.2,3.2,2.6S369.3,209.1,367.5,209.1"/>
		<path class="st5" d="M365,227.1c-8.2,0-16.9-1-16.9-2.8c0-0.1,0.1-0.2,0.2-0.2h33.3c0.1,0,0.2,0.1,0.2,0.2
			C381.8,226.1,373.1,227.1,365,227.1 M348.8,224.6c0.4,0.3,1.5,0.8,4.4,1.3c7.8,1,15.7,1,23.5,0c2.9-0.5,4-0.9,4.4-1.3l0.1-0.1
			h-32.6L348.8,224.6z"/>
		<g class="st6">
			<path class="st7" d="M294.7,136.3c1.9-0.2,3.7-1,5.1-2.2c1.7-1.8,2.8-4.2,2.8-6.7v-8.2c-0.2-5.1-4.3-9.1-9.3-9.3h-1.2
				c-5.1,0.2-9.1,4.3-9.3,9.3v8.2"/>
			<path class="st7" d="M282.4,127.5c-2.6-0.4-4.4-2.8-4-5.3c0.3-2.1,1.9-3.8,4-4"/>
			<path class="st7" d="M302.8,127.5c2.6-0.4,4.4-2.8,4-5.3c-0.3-2.1-1.9-3.8-4-4"/>
			<path class="st7" d="M288.8,126.8c1,2.1,3.5,3,5.6,2c0.9-0.4,1.6-1.1,2-2"/>
			<circle class="st8" cx="292.6" cy="136.3" r="2"/>
			<path class="st7" d="M282.6,118.3c2.9-0.6,5.4-2.4,6.8-5c3.2,3.3,8.1,4,12.1,1.8"/>
		</g>
		<rect x="-69.8" class="st9" width="241.3" height="443.3"/>
		<path class="st1" d="M20.4,202.6c-3.5-1.9-7.8-2.3-11.6-0.9c-2.5,0.9-4.6,2.5-6.1,4.8c-1.3,2-1.7,4.5-1.1,6.9
			c0.7,2.6,2.3,4.8,4.6,6.2c-0.4,1.2-0.8,2.4-1.2,3.6c1.4-0.7,2.7-1.5,4.1-2.2c1.6,0.5,3.4,0.8,5.1,0.7c-0.4-1.3-0.6-2.7-0.4-4.1
			c0.4-1.9,1.4-3.6,2.9-4.8c2.6-2,5.8-2.9,9-2.5C25.1,207.1,23.2,204.3,20.4,202.6z"/>
		<path class="st1" d="M33.6,215.8c-0.9-1.9-2.4-3.5-4.3-4.4c-3.4-1.7-7.3-1.7-10.6,0c-2.4,1.1-4.1,3.3-4.7,5.8
			c-0.4,1.9-0.1,3.9,0.9,5.5c1.6,2.4,4.1,4.1,6.9,4.5c2,0.4,4.1,0.2,6.1-0.4c1.2,0.5,2.2,1.2,3.4,1.7c-0.3-1-0.6-2-0.9-2.9
			c1.3-0.9,2.4-2.1,3.1-3.5C34.4,220.2,34.5,217.9,33.6,215.8z"/>
		<circle class="st1" cx="20.8" cy="216.1" r="1.4"/>
		<circle class="st1" cx="27.7" cy="216.1" r="1.4"/>
		<circle class="st1" cx="9.4" cy="207.6" r="1.8"/>
		<circle class="st1" cx="17.8" cy="207.6" r="1.8"/>
		<rect x="7.6" y="286.7" class="st1" width="21.8" height="29"/>
		<rect x="11.3" y="291.7" class="st1" width="4.8" height="4.8"/>
		<rect x="11.3" y="298.8" class="st1" width="4.8" height="4.8"/>
		<rect x="11.3" y="306" class="st1" width="4.8" height="4.8"/>
		<polyline class="st1" points="12.3,294.2 13.6,295.8 16.1,291.7 		"/>
		<line class="st1" x1="17.8" y1="296.4" x2="26.1" y2="296.4"/>
		<line class="st1" x1="17.8" y1="303.6" x2="26.1" y2="303.6"/>
		<line class="st1" x1="17.8" y1="310.7" x2="26.1" y2="310.7"/>
		<circle class="st1" cx="83.2" cy="292.5" r="4.6"/>
		<circle class="st1" cx="100.2" cy="300.9" r="4.6"/>
		<circle class="st1" cx="83.2" cy="309.3" r="4.6"/>
		<line class="st1" x1="87.5" y1="293.8" x2="96" y2="298.4"/>
		<line class="st1" x1="87.5" y1="307.3" x2="96" y2="302.7"/>
		<path class="st3" d="M3.8,151.1c0,0.5,0,1,0,1.5h1.6v0.3l-0.1,1.4c0,0.6-0.1,1.2-0.3,1.8c-0.1,0.3-0.4,0.5-0.7,0.6
			c-0.3,0-0.5,0-0.8,0l-0.1-0.4c0,0,0-0.1,0-0.1c0.3,0.1,0.5,0.1,0.8,0.1c0.2-0.1,0.3-0.3,0.3-0.5c0.2-0.8,0.2-1.7,0.2-2.5h-1
			c0,1-0.2,1.9-0.7,2.8c-0.2,0.3-0.4,0.6-0.6,0.9c-0.2-0.1-0.3-0.3-0.5-0.4c0.5-0.5,0.8-1.1,1-1.7c0.2-0.8,0.2-1.5,0.2-2.3v-1.3H2.4
			v-0.5h3.4v0.5L3.8,151.1z M4.2,150.5c-0.2-0.5-0.5-0.9-0.9-1.2c0.1-0.1,0.3-0.2,0.4-0.3c0.5,0.3,0.8,0.7,1,1.2
			C4.5,150.3,4.4,150.4,4.2,150.5 M6.7,150.8c-0.2,0.5-0.5,1-0.9,1.5l-0.4-0.3c0.7-0.8,1.1-1.7,1.2-2.7V149l0.5,0.2
			c0,0.4-0.1,0.7-0.2,1.1h2.9v0.5H6.7z M9.5,156.8c-0.2-0.1-0.3-0.2-0.4-0.3c-0.9-0.7-1.4-1.8-1.4-2.9c0-0.4-0.1-0.9-0.1-1.3
			l-0.8,0.1v3.6l1.1-0.5v0.6c-0.5,0.2-1,0.5-1.6,0.8l-0.3-0.4c0.1-0.1,0.2-0.3,0.2-0.4v-4c0.9,0,1.7-0.3,2.5-0.6l0.4-0.2l0.4,0.4
			C9,151.8,8.5,152,8,152.1c0,0.5,0,1,0.1,1.5c0,0,0.1,0,0.1,0c0.4-0.2,0.8-0.6,1-1l0.4,0.3c-0.3,0.5-0.7,0.9-1.2,1.1l-0.1,0.1
			c0.2,0.8,0.6,1.5,1.3,1.9c0.1,0.1,0.2,0.2,0.4,0.2L9.5,156.8z"/>
		<path class="st3" d="M11.2,156.8l-0.4-0.3c0.1-0.1,0.1-0.2,0.2-0.3c0.5-0.9,0.9-1.9,1-3l0.4,0.2C12.3,154.7,11.9,155.8,11.2,156.8
			 M12.2,152.7c-0.3-0.5-0.8-0.9-1.4-1.1l0.3-0.4c0.6,0.2,1.1,0.6,1.4,1.1L12.2,152.7z M12.2,150.9c-0.3-0.5-0.8-0.9-1.3-1.1
			l0.3-0.4c0.6,0.2,1.1,0.6,1.4,1.1L12.2,150.9z M16,150.9c-0.2,0.4-0.5,0.9-0.8,1.2l-0.4-0.3c0.2-0.2,0.3-0.4,0.5-0.6h-1.5v1.3h1.5
			c-0.1,1.2-0.2,2.3-0.4,3.4c0,0.3-0.2,0.5-0.4,0.6c-0.3,0.1-0.7,0.1-1,0l-0.2-0.6c0.3,0.1,0.5,0.1,0.8,0.1c0.1,0,0.1,0,0.2-0.1
			c0.1-0.3,0.2-0.7,0.2-1l0.1-0.6l0.1-1.5h-1c0,1-0.2,2.1-0.8,3c-0.2,0.3-0.4,0.6-0.6,0.8l-0.4-0.4c0.7-0.8,1.1-1.8,1.2-2.9
			c0.1-0.8,0.1-1.6,0.1-2.5h-0.6v-0.5h2.7v0.4c0.4-0.6,0.6-1.3,0.7-2.1l0.5,0.2c0,0.4-0.1,0.7-0.2,1.1h2.1v0.5L16,150.9z
			 M13.8,150.7c-0.1-0.5-0.3-1-0.7-1.4l0.4-0.3c0.3,0.4,0.6,0.8,0.7,1.3L13.8,150.7z M17,154.4v1.9c0,0.3-0.2,0.6-0.5,0.6
			c0,0-0.1,0-0.1,0h-0.8l-0.2-0.5h0.7c0.2,0,0.2-0.1,0.2-0.2v-1.9h-1.4v-0.5h1.3v-0.7c0.4-0.2,0.7-0.5,0.9-0.9h-1.9v-0.5H18v0.5
			c-0.3,0.4-0.6,0.8-1,1.2v0.5h1.4v0.5L17,154.4z"/>
		<path class="st3" d="M20.3,150v3c0.2,1.3-0.1,2.7-0.9,3.8l-0.4-0.4c0.6-1,0.9-2.2,0.8-3.4v-3.4H23v0.5L20.3,150z M21.1,156.3
			l-0.3-0.5v-0.1v-5h2c0,0.6,0,1.5,0,1.8c0,0.5,0,0.9-0.2,1.3c-0.1,0.2-0.3,0.3-0.5,0.3c-0.2,0-0.3,0-0.5-0.1
			c-0.1-0.2-0.1-0.4-0.1-0.5c0.2,0,0.5,0.2,0.6,0.1c0.3-0.1,0.3-0.5,0.3-0.7c0-0.5,0-1.2,0-1.8h-1.1v4.4c0.5-0.2,1.2-0.6,1.8-0.9
			v0.5C22.5,155.5,21.9,155.9,21.1,156.3 M24.9,154.6c-0.3,1-1,1.8-1.9,2.2l-0.3-0.4c0.3-0.2,0.6-0.4,0.9-0.6c1.2-0.9,1-2.6,1-4h0.6
			C25.2,152.7,25.1,153.7,24.9,154.6 M25.3,150c-0.1,0.3-0.2,0.6-0.4,0.8h1.5v4h-0.5v-3.5H24v3.6h-0.5v-4.1h0.9
			c0.2-0.3,0.3-0.5,0.4-0.8h-1.6v-0.5h3.6v0.5L25.3,150z M26.5,156.7c-0.3-0.6-0.8-1.2-1.4-1.6l0.4-0.3c0.6,0.4,1,1,1.4,1.6
			L26.5,156.7z"/>
		<path class="st3" d="M28.3,150.6h0.5v6.2h-0.5V150.6z M30.3,150.8c-0.3-0.4-0.8-0.8-1.3-1.1l0.3-0.4c0.5,0.3,0.9,0.6,1.3,1
			L30.3,150.8z M32.5,154.8v-0.3h-2v0.5H30v-3.4h3v3.2H32.5z M32.5,152.2h-1.9v1.8h1.9V152.2z M34.3,156.7h-0.9l-0.2-0.5h0.9
			c0.1,0,0.1-0.1,0.2-0.1v-6h-3v-0.5h3.6v6.5C34.9,156.3,34.7,156.6,34.3,156.7"/>
		<path class="st3" d="M-1.6,331.9l-0.4-0.3c0.6-0.9,1.2-1.8,1.5-2.9l0.4,0.2C-0.4,330-0.9,331.1-1.6,331.9 M-0.8,327.8
			c-0.3-0.4-0.7-0.7-1.1-1l0.2-0.3c0.5,0.2,0.9,0.6,1.2,1L-0.8,327.8z M-0.4,326c-0.3-0.4-0.7-0.8-1.1-1l0.3-0.3
			c0.5,0.2,0.9,0.6,1.2,1L-0.4,326z M3.9,327.1v0.7h1.4v3.5c0,0.2-0.1,0.4-0.2,0.5C4.8,332,4.6,332,4.1,332L4,331.5h0.6
			c0.1,0,0.2,0,0.2-0.2v-1.2l-0.3,0.3c-0.2-0.3-0.5-0.6-0.9-0.8c-0.2,0.6-0.6,1.1-1,1.5l-0.4-0.3c0.3-0.2,0.5-0.5,0.7-0.8
			c-0.2-0.2-0.4-0.4-0.7-0.6c-0.2,0.6-0.5,1.2-1,1.7l-0.3-0.3v1.4H0.3v-4.3h1.6v-0.7H0.1v-0.5h5.5v0.5L3.9,327.1z M4,325.7v0.7H3.4
			v-0.7H2.2v0.7H1.6v-0.7H0.2v-0.5h1.5v-0.7h0.5v0.7h1.3v-0.7H4v0.7h1.5v0.5L4,325.7z M0.8,328.3v2.3c0.6-0.6,1-1.4,1-2.3L0.8,328.3
			z M2.4,328.3c0,0.2,0,0.4-0.1,0.5c0.3,0.2,0.6,0.4,0.8,0.6c0.1-0.4,0.2-0.8,0.2-1.2H2.4z M3.4,327.2H2.4v0.7h0.9V327.2z
			 M4.8,328.3H3.9c0,0.3-0.1,0.6-0.1,0.9c0.4,0.2,0.7,0.5,1,0.9L4.8,328.3z"/>
		<path class="st3" d="M6.8,331.7l-0.3-0.5c0.6-0.1,1.1-0.5,1.6-0.9l0.4,0.3C7.9,331.2,7.4,331.5,6.8,331.7 M6.7,327.1v-0.5h2.5
			c0-0.1-0.1-0.2-0.2-0.3c-0.2-0.2-0.3-0.3-0.5-0.4l0.4-0.3H7.2v-0.5h2.7c-0.2-0.2-0.4-0.4-0.6-0.5l0.5-0.3c0.3,0.2,0.5,0.5,0.7,0.8
			h2.7v0.5h-1.7l0.4,0.1c-0.1,0.3-0.3,0.6-0.6,0.8h2.4v0.5H6.7z M10.1,330c0.4,0.2,0.7,0.4,1,0.7l-0.4,0.4c-0.3-0.3-0.6-0.6-1.1-0.8
			L10,330H7.9v-2.3h4.8v2.3L10.1,330z M12.1,328.1H8.4v0.5h3.8L12.1,328.1z M12.1,328.9H8.4v0.5h3.8L12.1,328.9z M11.5,331.9h-0.3
			H9.3c-0.2,0-0.5-0.2-0.6-0.4c-0.1-0.4-0.1-0.7-0.1-1.1h0.5v0.8c0,0.1,0.1,0.2,0.2,0.2h1.8c0.2,0,0.3-0.4,0.4-0.7l0.5,0.2
			C12,331.2,11.9,331.7,11.5,331.9 M8.9,325.7c0.3,0.2,0.6,0.6,0.8,0.9h1.1c0.3-0.3,0.5-0.6,0.6-0.9H8.9z M13.7,331.7
			c-0.3-0.5-0.8-0.9-1.3-1.1l0.4-0.3c0.5,0.2,1,0.6,1.4,1.1L13.7,331.7z"/>
		<path class="st3" d="M16.2,325.9v2.8c0.1,1.1-0.1,2.1-0.6,3.1c-0.1,0.2-0.2,0.3-0.3,0.4c-0.2-0.1-0.3-0.2-0.5-0.4
			c0.4-0.5,0.6-1.1,0.7-1.7c0.1-0.5,0.1-1.1,0.1-1.6v-1.5c0-0.5,0-1.1,0-1.7h3.2c-0.2-0.3-0.4-0.5-0.7-0.7l0.5-0.3
			c0.3,0.3,0.6,0.6,0.8,0.9h2.9v0.5L16.2,325.9z M22.3,332.2c-1.1-0.1-2.1-0.4-3.1-0.8c-0.3,0.1-0.5,0.2-0.8,0.4
			c-0.6,0.2-1.3,0.4-2,0.5l-0.4-0.5c0.9-0.1,1.8-0.3,2.7-0.7c-0.5-0.4-1-0.8-1.4-1.4h-0.6v-0.5h4.7v0.5c-0.1,0.2-0.3,0.4-0.5,0.5
			c-0.3,0.3-0.7,0.6-1.1,0.9c0.3,0.1,0.7,0.2,1,0.3c0.6,0.1,1.2,0.2,1.8,0.3C22.5,331.9,22.4,332,22.3,332.2 M20.8,327.4v1.2h-3.1
			v-1.2h-1.2v-0.5h1.2v-0.7h0.5v0.7h2.1v-0.7h0.6v0.7h1.4v0.5H20.8z M18,329.6c0.2,0.3,0.5,0.7,0.9,0.9c0.1,0.1,0.2,0.2,0.4,0.2
			c0.6-0.3,1.1-0.7,1.6-1.1L18,329.6z M18.2,327.4v0.7h2v-0.7H18.2z"/>
		<path class="st3" d="M24.9,331.7l-0.3-0.5c0.2-0.1,0.3-0.3,0.3-0.4v-3.3h-1.1V327h1.7v3.8l0.9-0.5v0.5L24.9,331.7z M25.2,326.1
			c-0.2-0.5-0.6-0.8-1-1.2l0.4-0.3c0.4,0.3,0.8,0.7,1,1.1L25.2,326.1z M30.1,332.1h-0.8l-0.2-0.5c0.3,0,0.6,0,0.9,0
			c0.2,0,0.3-0.1,0.3-0.3c0,0,0,0,0,0v-5.9h-3.2v2.4c0,0.9,0,1.9-0.1,2.8c-0.1,0.6-0.4,1.2-0.8,1.8l-0.4-0.3
			c0.4-0.5,0.7-1.1,0.8-1.8c0.1-0.8,0.1-1.7,0.1-2.5v-2.8h4.3v6.4c0,0.4-0.2,0.8-0.6,0.8C30.2,332.1,30.1,332.1,30.1,332.1
			 M27.3,328.3v-0.5h1.2V327h-1v-0.5h1v-0.8H29v0.8h1v0.5h-1v0.8h1.2v0.5H27.3z M27.7,328.7h2.1v2.2h-2.1L27.7,328.7z M29.2,329.2
			h-1.1v1.3h1.1L29.2,329.2z"/>
		<path class="st3" d="M39.5,328.6c-1.2-0.7-2.4-1.5-3.3-2.5h-0.1v1.6h-0.5v-1.6c-0.5,0.7-1.1,1.3-1.9,1.8h4.5v2.8h-4.8v-2.6
			c-0.3,0.2-0.6,0.4-1,0.6h-0.1l-0.4-0.4c1.2-0.5,2.2-1.3,3-2.2h-2.6v-0.5h3.3v-1h0.5v1h3.3v0.5h-2.5c0.9,0.9,1.9,1.6,3.1,2.1
			L39.5,328.6z M32.2,331.7v-0.5h7.3v0.5H32.2z M37.7,328.4h-3.8v0.7h3.8V328.4z M37.7,329.5h-3.8v0.7h3.8V329.5z"/>
		<path class="st3" d="M67.8,326.5c0,0.5,0,1,0,1.5h1.6v0.3l-0.1,1.4c0,0.6-0.1,1.2-0.3,1.8c-0.1,0.3-0.4,0.5-0.7,0.6
			c-0.3,0-0.5,0-0.8,0l-0.1-0.5c0,0,0-0.1,0-0.1c0.3,0.1,0.5,0.1,0.8,0.1c0.3-0.1,0.3-0.3,0.3-0.5c0.1-0.8,0.2-1.7,0.2-2.5h-1
			c0,1-0.2,1.9-0.7,2.8c-0.2,0.3-0.4,0.6-0.6,0.9c-0.2-0.1-0.3-0.3-0.5-0.4c0.5-0.5,0.8-1.1,1-1.7c0.2-0.8,0.2-1.5,0.2-2.3v-1.3
			h-0.9V326h3.4v0.5L67.8,326.5z M68.2,325.9c-0.2-0.5-0.5-0.9-0.9-1.2c0.1-0.1,0.3-0.2,0.4-0.3c0.5,0.3,0.8,0.7,1,1.2
			C68.5,325.7,68.4,325.8,68.2,325.9 M70.7,326.1c-0.2,0.5-0.5,1-0.9,1.5l-0.5-0.3c0.7-0.8,1.1-1.7,1.2-2.7v-0.2l0.5,0.2
			c0,0.4-0.1,0.7-0.2,1.1h2.9v0.5H70.7z M73.5,332.2c-0.2-0.1-0.3-0.2-0.4-0.3c-0.9-0.7-1.4-1.8-1.5-2.9c0-0.4-0.1-0.9-0.1-1.3
			l-0.8,0.1v3.5l1.1-0.5v0.6c-0.5,0.2-1,0.5-1.6,0.8l-0.3-0.4c0.1-0.1,0.2-0.2,0.2-0.4v-4c0.9,0,1.7-0.3,2.5-0.6l0.4-0.2l0.4,0.4
			c-0.4,0.3-0.9,0.5-1.4,0.6c0,0.5,0,1,0.1,1.5c0,0,0,0,0.1,0c0.4-0.2,0.8-0.6,1-1l0.4,0.3c-0.3,0.5-0.7,0.9-1.2,1.1l-0.1,0.1
			c0.2,0.8,0.6,1.5,1.3,2c0.1,0.1,0.2,0.2,0.4,0.2L73.5,332.2z"/>
		<path class="st3" d="M82.4,331.9h-3.7c-0.9-0.1-1.8-0.5-2.4-1.1c-0.4,0.4-0.8,0.8-1.3,1.1l-0.4-0.4c0.5-0.3,0.9-0.8,1.3-1.2v-2.2
			h-1.2v-0.5h1.7v2.8c0.5,0.7,1.3,1.1,2.2,1.1c1,0,2.2,0,3.9-0.1L82.4,331.9z M76.1,326.6c-0.3-0.5-0.6-0.9-1-1.3l0.4-0.3
			c0.4,0.4,0.8,0.8,1.1,1.3L76.1,326.6z M77.3,330.6l-0.4-0.5c0.7-0.2,1.2-0.7,1.6-1.3l0.4,0.4C78.5,329.8,78,330.3,77.3,330.6
			 M82,327.1c-0.3-0.1-0.6-0.2-0.9-0.4v0.4h-1.1v0.9h2v0.5h-2v2c0,0.3-0.2,0.6-0.5,0.6c0,0,0,0-0.1,0h-0.8l-0.2-0.6
			c0.3,0,0.5,0,0.8,0s0.3,0,0.3-0.2v-1.8h-2.1v-0.5h2.1v-0.9h-1.3v-0.4c-0.2,0.1-0.5,0.3-0.7,0.4l-0.4-0.5c1.1-0.4,2-1.2,2.5-2.2
			l0.5,0.3l-0.1,0.1c0.6,0.9,1.4,1.5,2.4,1.8L82,327.1z M79.6,325.3c-0.4,0.5-0.9,1-1.4,1.3H81C80.4,326.3,80,325.8,79.6,325.3
			 M81.7,330.6c-0.3-0.6-0.8-1.1-1.5-1.4l0.4-0.4c0.6,0.3,1.1,0.8,1.5,1.4L81.7,330.6z"/>
		<path class="st3" d="M83.8,332.1l-0.4-0.3c0.4-0.3,0.7-0.6,0.9-1c0.1-0.2,0.2-0.4,0.3-0.6c0.1,0.1,0.3,0.2,0.4,0.2
			C84.7,331.1,84.3,331.7,83.8,332.1 M85.6,329.7v-0.5h-1.2v0.5h-0.5V325h2.2v4.7L85.6,329.7z M85.6,327.4h-1.2v1.3h1.2V327.4z
			 M85.6,325.6h-1.2v1.3h1.2L85.6,325.6z M86.4,332c-0.1-0.5-0.4-1.1-0.8-1.5l-0.1-0.1c0.2-0.1,0.3-0.1,0.5-0.2
			c0.4,0.4,0.7,1,0.8,1.5L86.4,332z M90.1,326.7c-0.1,0.2-0.3,0.4-0.5,0.5c-0.2,0-0.4,0-0.6,0l-0.4-0.1l-0.1-0.5
			c0.3,0.1,0.7,0.2,1,0.2c0.2-0.1,0.2-0.4,0.3-0.5c0.1-0.2,0.1-0.5,0.1-0.8h-1.3c-0.1,0.4-0.2,0.8-0.4,1.1c-0.3,0.5-0.9,0.9-1.5,1.1
			l-0.3-0.5c0.6-0.1,1.1-0.4,1.4-0.9c0.2-0.3,0.2-0.6,0.3-0.9h-1.2v-0.5h3.7C90.4,325.5,90.3,326.2,90.1,326.7 M90.1,330.1h-0.5
			v-0.5h-2.1v0.5H87v-2.4h3.1L90.1,330.1z M88.4,332.1c-0.1-0.4-0.3-0.8-0.6-1.2c-0.1-0.1-0.2-0.3-0.4-0.4l0.5-0.2
			c0.4,0.4,0.7,1,0.9,1.5C88.8,331.9,88.6,332,88.4,332.1 M89.6,328.1h-2v1h2V328.1z M90.4,332.2c-0.2-0.7-0.6-1.2-1.1-1.7
			c0.2-0.1,0.3-0.2,0.5-0.2c0.5,0.5,0.9,1,1.1,1.6C90.7,332,90.6,332.1,90.4,332.2"/>
		<path class="st3" d="M93.8,327.3v1.6h3.7v3.3H97v-2.8h-3.2c0,0.6-0.2,1.2-0.5,1.8c-0.3,0.4-0.7,0.8-1.1,1.1l-0.4-0.4
			c0.8-0.4,1.3-1.2,1.4-2.1v-0.7v-4h0.5v1.7H96v-2.3h0.5v2.3H99v0.5H93.8z"/>
		<path class="st3" d="M100.7,328.1l-0.4-0.4c1.2-0.5,2.2-1.5,2.7-2.8l0.5,0.3C102.9,326.5,102,327.5,100.7,328.1 M106.1,329.9
			c0,0.4-0.1,0.9-0.2,1.3c-0.1,0.3-0.3,0.6-0.6,0.7c-0.4,0.1-0.9,0-1.3-0.1l-0.3,0l-0.2-0.6c0.5,0.1,0.9,0.2,1.4,0.3
			c0.1,0,0.2,0,0.3-0.1c0.1-0.2,0.2-0.5,0.2-0.8c0.1-0.7,0.2-1.5,0.2-2.2h-1.8c-0.1,1.1-0.5,2.1-1.2,2.9c-0.5,0.5-1.1,0.9-1.8,1.1
			l-0.4-0.5c1.1-0.3,2-1.1,2.5-2.1c0.2-0.5,0.3-0.9,0.4-1.4h-1.5v-0.5h4.4C106.2,328.5,106.1,329.2,106.1,329.9 M107.4,328.1
			c-1.2-0.7-2.1-1.7-2.6-2.9l0.5-0.3c0.5,1.2,1.4,2.1,2.5,2.7L107.4,328.1z"/>
		<path class="st3" d="M112.9,330.6v1c0,0.4-0.2,0.5-0.5,0.5h-0.9l-0.2-0.6c0.3,0,0.7,0,1,0c0.1,0,0.2-0.1,0.2-0.2v-0.8h-3.5v-0.5
			h3.5v-0.4c0.6-0.1,1.2-0.3,1.8-0.6h-4.3v-0.5h5.2v0.5c-0.7,0.4-1.4,0.8-2.2,0.9v0.1h3.3v0.5L112.9,330.6z M109.2,325.7v-0.5h3.2
			c-0.1-0.1-0.1-0.2-0.2-0.3c-0.1-0.1-0.3-0.2-0.4-0.3l0.5-0.3c0.3,0.2,0.5,0.5,0.7,0.9h3.1v0.5L109.2,325.7z M110.2,328v-1.8h4.7
			v1.8L110.2,328z M114.4,326.8h-3.6v0.8h3.6L114.4,326.8z"/>
		<path class="st3" d="M82.2,154.3c-0.7-0.3-1.3-0.6-2-1v0.4h-3v-0.4c-0.6,0.4-1.3,0.7-2,0.8c-0.1-0.1-0.2-0.3-0.3-0.5
			c1.2-0.2,2.3-0.8,3.2-1.7c0.2-0.2,0.4-0.4,0.6-0.6l-0.3-0.3c0.3-0.3,0.6-0.6,0.9-1c0.2-0.3,0.3-0.7,0.4-1l0.4,0.2
			c-0.1,0.2-0.2,0.5-0.2,0.7h2.7v0.5h-1.5c0.3,0.2,0.5,0.5,0.6,0.8l-0.5,0.2c-0.2-0.4-0.5-0.7-0.8-1h-0.7c-0.2,0.3-0.4,0.5-0.6,0.8
			l0.4,0.2l-0.2,0.2c0.9,1.1,2.2,1.8,3.5,2.2L82.2,154.3z M77.3,150.5c0.3,0.3,0.5,0.6,0.6,0.9l-0.5,0.2c-0.2-0.4-0.4-0.8-0.8-1.2
			h-0.4c-0.3,0.5-0.7,0.9-1.1,1.2l-0.4-0.4c0.8-0.6,1.3-1.4,1.6-2.3l0.4,0.2c-0.1,0.3-0.2,0.5-0.4,0.7h2.1v0.5H77.3z M75,156.4v-0.5
			h4.5c0.5-0.6,0.8-1.3,1.1-2l0.5,0.3c-0.3,0.6-0.6,1.1-1,1.7h2.3v0.5L75,156.4z M77.1,155.7c-0.2-0.5-0.6-1-1-1.4l0.4-0.2
			c0.4,0.4,0.8,0.9,1,1.4L77.1,155.7z M78.8,152c-0.4,0.5-0.9,0.9-1.4,1.2h2.7C79.6,152.9,79.1,152.5,78.8,152 M78.7,155.7
			c-0.2-0.6-0.6-1.1-1-1.6l0.5-0.2c0.5,0.5,0.8,1,1,1.6L78.7,155.7z"/>
		<path class="st3" d="M84.3,156.2c-0.1-0.2-0.2-0.3-0.3-0.4c0.1-0.1,0.2-0.2,0.3-0.4v-3h-0.8v-0.5h1.4v3.5c0.4-0.2,0.8-0.4,1.1-0.6
			v0.6C85.3,155.7,84.9,155.9,84.3,156.2 M85,150.8c-0.3-0.4-0.7-0.7-1.2-1l0.4-0.4c0.4,0.3,0.8,0.6,1.2,1L85,150.8z M85.4,156.5
			v-0.5h1v-4.1h0.5v4.1h1.3v-5.7h-2.2v-0.5h4.7c0,0.2,0,0.3,0,0.5h-1.9v2.3h1.7v0.5h-1.7v2.9h2.2v0.5L85.4,156.5z"/>
		<path class="st3" d="M92,152.9l-0.2-0.5c0.8-0.1,1.7-0.4,2.4-0.9l0.2,0.5C93.6,152.5,92.9,152.8,92,152.9 M94.1,150.9
			c-0.6-0.5-1.3-0.8-2-0.8l0.3-0.5c0.7,0,1.4,0.3,2,0.8L94.1,150.9z M97.5,156.8v-0.6h-3.8v0.6h-0.5v-3.2H98v3.1H97.5z M98.9,153.5
			c-1-0.1-1.8-0.7-2.4-1.5c-0.6,0.8-1.6,1.3-2.6,1.5l-0.3-0.6c0.9,0,1.8-0.5,2.4-1.2c0.3-0.4,0.4-0.8,0.4-1.3h-0.8
			c-0.2,0.4-0.4,0.8-0.8,1.2l-0.5-0.3c0.6-0.6,1-1.4,1-2.3l0.5,0.1c0,0.3-0.1,0.5-0.1,0.8h3.1c-0.1,0.6-0.2,1.1-0.5,1.7l-0.5-0.1
			c0.2-0.3,0.3-0.7,0.4-1h-1.3c0,0.3-0.1,0.7-0.2,1c0.6,0.9,1.5,1.4,2.5,1.4L98.9,153.5z M97.5,154.2h-3.8v1.5h3.8V154.2z"/>
		<path class="st3" d="M101.7,156.7l-0.3-0.5c0.1-0.1,0.2-0.3,0.2-0.4v-3.7h-1.2v-0.5h1.7v4.3l1.2-0.7v0.6L101.7,156.7z
			 M101.9,150.7c-0.2-0.5-0.6-0.9-1-1.2l0.4-0.3c0.5,0.3,0.8,0.7,1.1,1.2L101.9,150.7z M107.2,155.3c-0.1,0.5,0,1.3-0.7,1.4
			c-0.3,0.1-0.7,0.1-1,0l-0.2-0.6c0.3,0.1,0.6,0.1,0.9,0.1c0.4,0,0.4-0.6,0.5-0.9c0.2-1.6,0.3-3.1,0.3-4.7h-2.6
			c-0.1,0.3-0.3,0.7-0.5,1h2.3v4h-0.5v-0.6h-1.4v0.6h-0.5V152c-0.2,0.2-0.4,0.4-0.6,0.6l-0.4-0.3c0.9-0.8,1.4-1.9,1.5-3.1l0.5,0.1
			c-0.1,0.3-0.1,0.6-0.2,0.9h3C107.5,152.1,107.4,154.1,107.2,155.3 M105.6,152.1h-1.4v0.9h1.4V152.1z M105.6,153.6h-1.4v1h1.4
			V153.6z"/>
		<path class="st3" d="M-0.6,243.9l-0.3-0.5c0.1-0.1,0.2-0.3,0.2-0.4v-2.9h-1.2v-0.5h1.8v3.5l1.2-0.7v0.6L-0.6,243.9z M0,238.7
			c-0.2-0.5-0.6-0.9-1-1.2l0.4-0.3c0.5,0.3,0.8,0.7,1.1,1.2L0,238.7z M5.2,244.5c-0.7-0.3-1.4-0.7-2.1-1.1c-0.6,0.5-1.3,0.9-2.1,1.2
			l-0.4-0.4c0.7-0.3,1.4-0.6,2-1.1c-0.5-0.6-0.9-1.2-1.1-1.9H1.2v-0.5h3.6c-0.2,0.9-0.6,1.8-1.3,2.4c0.7,0.5,1.4,0.9,2.2,1.1
			L5.2,244.5z M4.4,239.9c-0.3,0-0.6-0.2-0.6-0.5c0,0,0-0.1,0-0.1v-1.4H2.3v0.9c0,0.5-0.2,1.1-0.6,1.4c-0.2,0.2-0.4,0.3-0.6,0.4
			l-0.4-0.4c0.7-0.2,1.2-1,1.1-1.7v-1.1h2.6v1.9c0,0.1,0,0.2,0.2,0.2h0.9v0.5L4.4,239.9z M2.2,241.1c0.2,0.6,0.5,1.1,0.9,1.5
			c0.4-0.4,0.8-1,1-1.5H2.2z"/>
		<path class="st3" d="M8,240.2v4.5H7.5v-3.8c-0.2,0.2-0.4,0.4-0.7,0.6l-0.5-0.3c0.8-0.6,1.4-1.3,1.9-2.2l0.4,0.3
			C8.4,239.5,8.2,239.8,8,240.2 M6.9,239.1l-0.4-0.3c0.7-0.5,1.2-1.2,1.6-1.9l0.4,0.2C8.1,237.9,7.6,238.5,6.9,239.1 M10.5,243.6
			l-0.4-0.3c0.2-0.2,0.3-0.5,0.2-0.7v-0.7H9.5c0,0.4,0,0.8-0.1,1.2c-0.1,0.5-0.4,1-0.8,1.4l-0.4-0.4c0.3-0.3,0.6-0.7,0.7-1.1
			c0.1-0.3,0.1-0.6,0.1-0.9v-0.7h1.9v1.4l0.9-0.5v0.5L10.5,243.6z M13.8,244.4c-0.5-0.5-0.9-1-1.2-1.6c-0.4,0.6-0.8,1.2-1.3,1.6
			l-0.4-0.4c0.6-0.5,1.1-1.1,1.5-1.9c-0.2-0.6-0.4-1.2-0.5-1.9l-0.4,0.6l-0.2-0.2H8.4v-0.5h2.7c0.6-1.1,0.9-2.3,0.9-3.5l0.5,0.1
			c0,0.5,0,1.1-0.1,1.6h1.5v0.5h-0.4c0,1.1-0.3,2.2-0.7,3.3c0.3,0.7,0.8,1.3,1.4,1.8L13.8,244.4z M8.7,239.7v-2.1h0.5v1.6h0.5v-2.4
			h0.5v2.4h0.5v-1.6h0.5v2.1H8.7z M12.3,239l-0.1,0.4c0,0.7,0.2,1.5,0.4,2.2c0.3-0.8,0.4-1.7,0.4-2.5L12.3,239z"/>
		<path class="st3" d="M16.7,238.8v5.8h-0.5v-4.9c-0.2,0.4-0.5,0.9-0.8,1.2l-0.5-0.3c0.4-0.5,0.8-1,1.1-1.6l0.1-0.1
			c0.3-0.6,0.6-1.3,0.8-2l0.5,0.2C17.1,237.6,16.9,238.2,16.7,238.8 M17.2,238.6v-0.5h2.7c-0.3-0.4-0.6-0.7-1-1l0.4-0.3h0.1
			c0.4,0.3,0.7,0.6,1,1l-0.3,0.3h2.6v0.5L17.2,238.6z M17.7,239.4H22v0.5h-4.3V239.4z M17.7,240.6h4.3v0.5h-4.3V240.6z M21.3,244.5
			V244h-3v0.5h-0.5V242h4v2.5L21.3,244.5z M21.3,242.5h-3v1h3V242.5z"/>
		<path class="st3" d="M30.7,244.5c-1.2-0.3-2.4-0.9-3.4-1.7l0,0c-1,0.8-2.1,1.4-3.3,1.7l-0.4-0.5c1.1-0.2,2.1-0.7,3-1.3l0.3-0.3
			c-0.5-0.6-0.9-1.2-1.2-1.9l0.5-0.2c0.3,0.6,0.6,1.2,1.1,1.8l0,0c0.5-0.6,0.8-1.2,1.1-1.9l0.5,0.3c-0.3,0.7-0.7,1.4-1.2,2
			c1,0.8,2.1,1.3,3.4,1.6L30.7,244.5z M24.9,240.6c-0.2,0.1-0.4,0.3-0.6,0.4l-0.4-0.4c0.9-0.4,1.6-0.9,2.2-1.7l0.4,0.3
			C26,239.8,25.5,240.2,24.9,240.6 M23.9,238.6v-0.5h3.3c-0.2-0.3-0.4-0.6-0.7-0.7l-0.3-0.2l0.4-0.3c0.2,0.1,0.3,0.2,0.4,0.3
			c0.3,0.2,0.5,0.4,0.7,0.7l-0.3,0.2h3.3v0.5L23.9,238.6z M30.2,241.1c-0.5-0.8-1.3-1.5-2.2-1.8l0.5-0.3c0.9,0.4,1.6,1,2.2,1.8
			L30.2,241.1z"/>
		<path class="st3" d="M33.2,240.6c-0.3-0.6-0.8-1-1.4-1.2l0.4-0.4c0.6,0.2,1.1,0.7,1.4,1.2L33.2,240.6z M32.5,244.4L32,244
			c0.8-0.7,1.2-1.6,1.4-2.7l0-0.3l0.5,0.2C33.8,242.4,33.3,243.5,32.5,244.4 M33.6,238.6c-0.3-0.5-0.7-0.8-1.3-1l0.4-0.4
			c0.5,0.2,1,0.5,1.3,1L33.6,238.6z M34.7,243.9c-0.3,0.3-0.6,0.5-0.9,0.6l-0.4-0.5c0.4-0.1,0.7-0.4,1-0.7c0.4-0.6,0.6-1.3,0.5-2
			v-0.5h0.5C35.4,242.1,35.4,243.2,34.7,243.9 M36.6,238.2c-0.3,0.6-0.7,1.2-1.3,1.7h0.3l2.5-0.3c-0.2-0.2-0.5-0.4-0.8-0.5l0.5-0.3
			c0.1,0,0.1,0,0.2,0.1c0.5,0.3,1,0.8,1.2,1.3l-0.5,0.3c-0.1-0.2-0.2-0.4-0.3-0.5l-1.3,0.1l-1.7,0.2l-0.9,0.1
			c-0.1-0.2-0.3-0.3-0.4-0.5c0.5-0.2,0.9-0.5,1.2-0.9c0.2-0.3,0.5-0.6,0.6-1h-1.8v-0.5h2.3c-0.3-0.3-0.6-0.6-1-0.8l0.4-0.3
			c0.4,0.2,0.8,0.5,1,0.9l-0.3,0.2h2.6v0.5L36.6,238.2z M36.2,240.8h0.5v3.5h-0.5V240.8z M39.5,243.6c-0.1,0.2-0.3,0.4-0.5,0.5
			c-0.4,0-0.8,0.1-1-0.2c-0.1-0.1-0.1-0.2-0.2-0.3v-2.9h0.5v2.6c0,0.1,0,0.2,0.1,0.2c0.1,0.1,0.2,0,0.4,0c0.1,0,0.2,0,0.2-0.1
			c0.1-0.3,0.2-0.7,0.2-1l0.5,0.2C39.7,243,39.6,243.4,39.5,243.6"/>
		<path class="st3" d="M46.6,242.3v2.1H46v-2.1h-1.7v-0.5H46v-1.3h-1.1V240H46v-1.3h-1.3v0.3h-0.5v1.5h-2c-0.1,0.2-0.2,0.5-0.3,0.7
			H44v3.3h-0.5c0-0.2,0-0.3,0-0.5h-1.6v0.5h-0.5v-2.4c-0.2,0.2-0.4,0.5-0.7,0.6c-0.1-0.1-0.3-0.3-0.4-0.4c0.5-0.3,0.9-0.8,1.1-1.3
			c0.1-0.2,0.2-0.4,0.3-0.6h-0.7V240h0.8c0.1-0.3,0.1-0.7,0.1-1h-1.4v-0.5h1.4c0-0.3,0-0.6,0-0.9h-1v-0.5h3.3v1.4h0.5v-0.3h1.1
			c-0.1-0.3-0.3-0.6-0.5-0.9c-0.1-0.1-0.3-0.3-0.4-0.4l0.4-0.3c0.2,0.2,0.4,0.4,0.6,0.6l0.4,0.6c-0.1,0.1-0.3,0.2-0.4,0.3h0.6
			c0.4-0.4,0.7-1,0.8-1.6c0.2,0.1,0.3,0.2,0.5,0.3c-0.1,0.5-0.3,0.9-0.6,1.3H48v0.5h-1.4v1.3h1.1v0.5h-1.1v1.3h1.6v0.5L46.6,242.3z
			 M43.5,241.7h-1.6v1.8h1.6V241.7z M42.4,239c0,0.3,0,0.6-0.1,0.9h1.3v-1L42.4,239z M43.6,237.6h-1.2v0.9h1.2V237.6z"/>
		<path class="st3" d="M72.4,240.5v4h-0.5v-3.4c-0.3,0.3-0.7,0.5-1,0.7c-0.2-0.1-0.3-0.3-0.5-0.4c1-0.7,1.9-1.5,2.6-2.6l0.4,0.3
			C73.2,239.6,72.8,240.1,72.4,240.5 M71,239.3C71,239.3,71,239.3,71,239.3l-0.4-0.4c0.9-0.6,1.6-1.4,2.1-2.2l0.4,0.3
			C72.5,237.9,71.8,238.7,71,239.3 M76.5,240v3.8c0,0.2-0.1,0.5-0.4,0.6c-0.2,0.1-0.4,0.1-0.5,0.1h-0.9c0-0.2-0.1-0.4-0.2-0.5
			c0.4,0,0.8,0,1.1,0c0.1,0,0.2-0.1,0.3-0.3V240h-2.2v-0.5h4.4v0.5L76.5,240z M73.9,237.3h3.6v0.5h-3.6V237.3z"/>
		<path class="st3" d="M79.2,238.5V238h2.3c-0.2-0.4-0.6-0.8-1-1l0.5-0.3c0.4,0.4,0.8,0.8,1,1.3h1.4c0.4-0.4,0.7-0.8,0.9-1.4
			l0.5,0.3c-0.2,0.4-0.4,0.8-0.7,1.1h2.3v0.5L79.2,238.5z M82.2,244.3h-0.8l-0.2-0.5h0.9c0.1,0,0.2,0,0.2-0.2v-1.1h-1.8v1.9H80v-5
			h2.8v4.3C82.9,244,82.6,244.3,82.2,244.3C82.2,244.3,82.2,244.3,82.2,244.3 M82.3,239.8h-1.8v0.8h1.8V239.8z M82.3,241.2h-1.8v0.9
			h1.8V241.2z M83.8,239.6h0.5v3.3h-0.5V239.6z M85.2,244.5h-0.8l-0.2-0.5c0.3,0,0.5,0,0.8,0c0.2,0,0.2-0.1,0.2-0.3V239h0.5v4.7
			C85.9,244.1,85.6,244.4,85.2,244.5C85.2,244.4,85.2,244.4,85.2,244.5"/>
		<path class="st3" d="M88.9,243.8l-0.3-0.5c0.1-0.1,0.2-0.3,0.2-0.4v-3h-1.1v-0.5h1.6v3.6l1.2-0.7v0.6L88.9,243.8z M89.4,238.6
			c-0.2-0.5-0.6-0.9-1-1.2l0.4-0.3c0.5,0.3,0.8,0.7,1.1,1.2L89.4,238.6z M94.7,243.8c-0.1,0.2-0.3,0.3-0.6,0.3h-0.6
			c-0.4,0-0.7-0.3-0.8-0.6v-2.2h-0.7c0.1,1.2-0.6,2.4-1.6,3c-0.1,0.1-0.3,0.1-0.4,0.2l-0.4-0.5c0.8-0.3,1.4-0.9,1.6-1.7
			c0.1-0.3,0.2-0.7,0.2-1h-0.9v-2.6h3.6v2.6h-1v2.1c0,0.1,0.1,0.2,0.2,0.3c0,0,0,0,0,0h0.4c0.1,0,0.3-0.1,0.3-0.2
			c0.1-0.3,0.2-0.7,0.3-1l0.5,0.3C94.9,243.1,94.8,243.5,94.7,243.8 M91.6,238.5c-0.2-0.6-0.5-1.1-1-1.5l0.4-0.2
			c0.5,0.4,0.8,0.9,1,1.5L91.6,238.5z M93.6,239.3h-2.5v1.6h2.5L93.6,239.3z M93.2,238.6l-0.5-0.2c0.4-0.5,0.8-1,1-1.6l0.4,0.2
			C94,237.5,93.6,238.1,93.2,238.6"/>
		<path class="st3" d="M98.6,242.6v-0.5h-1.4v0.6h-0.5v-4.9h2.5v4.9L98.6,242.6z M97.2,238.2v1.4h1.5v-1.4L97.2,238.2z M98.6,240.1
			h-1.5v1.5h1.5V240.1z M103.1,243.8c-0.1,0.3-0.3,0.5-0.6,0.6c-0.3,0-0.6,0-0.9,0l-0.2-0.5c0.3,0,0.6,0,0.9,0
			c0.1,0,0.2-0.1,0.2-0.2v-1.9h-2.1c-0.1,1-0.6,1.9-1.4,2.5c-0.1,0.1-0.2,0.2-0.4,0.3c-0.1-0.1-0.3-0.3-0.4-0.4
			c0.6-0.3,1-0.8,1.3-1.4c0,0,0,0,0-0.1c0.3-0.7,0.4-1.4,0.3-2.2v-3.2h3.2L103.1,243.8z M102.6,237.8h-2v1.5h2V237.8z M102.6,239.7
			h-2.1v1.5h2.1V239.7z"/>
		<path class="st3" d="M111.8,241c-1.4-0.9-2.6-2-3.5-3.2c-0.4,0.7-1,1.3-1.5,1.9h3.3v0.5h-3.3v-0.4c-0.5,0.5-1.1,0.9-1.7,1.3
			l-0.4-0.4c0.6-0.3,1.1-0.7,1.6-1.1c0.8-0.8,1.6-1.7,2.1-2.7l0.5,0.2c0,0.1-0.1,0.2-0.2,0.3c0.8,1,1.7,2,2.7,2.7l0.9,0.6L111.8,241
			z M111,244.3c-0.1-0.2-0.3-0.3-0.5-0.5l-3.4,0.4l-1.3,0.2l-0.4-0.7c0.9-0.6,1.7-1.3,2.5-2.1h-2.9v-0.5h6.3v0.5h-3.3l0.4,0.3
			c-0.7,0.7-1.4,1.4-2.2,1.9l3.8-0.5c-0.3-0.2-0.6-0.4-0.9-0.5l0.3-0.3c0.4,0.2,0.7,0.4,1,0.6c0.3,0.2,0.6,0.5,0.9,0.8L111,244.3z"
			/>
		<rect x="80.7" y="110.8" class="st1" width="21.3" height="28.2"/>
		<polygon class="st9" points="99.6,134.6 80.3,139.1 80.3,110.8 99.6,106.4 		"/>
		<polygon class="st1" points="99.6,134.6 80.3,139.1 80.3,110.8 99.6,106.4 		"/>
		<line class="st1" x1="83.5" y1="132.2" x2="95.9" y2="129.3"/>
		<path class="st4" d="M89.7,114.6L89.7,114.6c-3.2,1-5.4,3.9-5.6,7.3c-0.1,2.2,1.6,4.2,3.8,4.3c0.5,0,1,0,1.4-0.2l0,0l0.4-0.1l0,0
			l0.4-0.1l0,0c3-1.1,5.1-3.9,5.2-7.1C95.3,115.5,92.8,113.7,89.7,114.6 M94.4,121.5l-2,0.6c0.3-0.8,0.5-1.7,0.5-2.6l2.1-0.6
			C94.9,119.8,94.7,120.7,94.4,121.5 M89.7,125.6v-2.5l2.1-0.6c-0.5,1.1-1.1,2.1-1.9,3L89.7,125.6 M89.3,125.7
			c-0.8-0.4-1.5-1.1-1.9-1.9l2.1-0.6v2.5L89.3,125.7 M84.3,121.9l2.1-0.6c0,0.8,0.2,1.6,0.5,2.3l-2,0.6
			C84.5,123.5,84.2,122.7,84.3,121.9 M84.9,118.9l2-0.6c-0.3,0.8-0.5,1.7-0.5,2.6l-2.1,0.6C84.3,120.7,84.5,119.7,84.9,118.9
			 M89.4,114.9v2.4l-2.1,0.6c0.5-1.1,1.1-2.1,1.9-3L89.4,114.9 M90,114.7c0.8,0.4,1.5,1.1,1.9,1.9l-2.1,0.6v-2.4L90,114.7 M92,116.9
			c0.3,0.7,0.5,1.5,0.5,2.3l-2.8,0.8v-2.5L92,116.9z M89.4,117.6v2.5l-2.7,0.8c0-0.9,0.2-1.8,0.5-2.6L89.4,117.6z M86.7,121.2
			l2.7-0.8v2.4l-2.2,0.6C86.9,122.7,86.7,122,86.7,121.2 M89.7,122.7v-2.4l2.8-0.8c0,0.9-0.2,1.7-0.5,2.6L89.7,122.7z M92.8,119.1
			c0-0.8-0.2-1.6-0.5-2.3l2-0.6c0.4,0.7,0.7,1.5,0.7,2.3L92.8,119.1z M94,116l-1.9,0.5c-0.4-0.8-1-1.4-1.7-1.9
			C91.8,114.4,93.2,114.9,94,116 M88.7,115.1C88,116,87.4,117,87,118l-1.9,0.5C85.9,117.1,87.2,115.9,88.7,115.1 M85.2,124.4
			l1.9-0.6c0.4,0.8,1,1.4,1.7,1.9C87.4,126,86,125.5,85.2,124.4 M90.6,125.3c0.7-0.9,1.3-1.8,1.7-2.9l1.9-0.5
			C93.4,123.3,92.1,124.5,90.6,125.3"/>
		<path class="st5" d="M102.3,218.3c-0.8,0-1.5-0.4-2-1c0-0.1,0-0.2,0-0.2c0.5-1.2,0.9-2.5,1.1-3.8c0-0.1,0.1-0.2,0.1-0.2
			c1.4-0.5,2.9,0.3,3.3,1.7c0.5,1.4-0.3,2.9-1.7,3.3C102.9,218.3,102.7,218.3,102.3,218.3 M102.4,213.5c-0.2,0-0.3,0-0.5,0.1
			c-0.2,1.2-0.6,2.5-1.1,3.6c0.4,0.5,1,0.7,1.6,0.7c1.2,0,2.2-1,2.2-2.2C104.6,214.5,103.6,213.5,102.4,213.5"/>
		<path class="st5" d="M90.3,224.5c-6,0-11-5.1-11.5-11.8c0-0.4,0.1-0.7,0.4-1c0.3-0.3,0.7-0.5,1.1-0.5h20.1c0.4,0,0.8,0.2,1.1,0.5
			c0.3,0.3,0.4,0.6,0.4,1C101.3,219.4,96.3,224.5,90.3,224.5 M80.2,211.6c-0.3,0-0.6,0.1-0.8,0.3c-0.2,0.2-0.3,0.4-0.2,0.7
			c0.5,6.5,5.3,11.4,11.1,11.4s10.5-4.9,11.1-11.4c0-0.2-0.1-0.5-0.2-0.7c-0.2-0.2-0.5-0.3-0.8-0.3H80.2z"/>
		<path class="st5" d="M86.6,209.1c-0.1,0-0.2-0.1-0.2-0.2s0.1-0.2,0.2-0.2c1.5,0,2.8-1,2.8-2.2s-1-2-2.8-2.2s-2.7-1.1-2.7-2.2
			c0.2-1.4,1.4-2.4,2.8-2.2c0.1,0,0.2,0.1,0.2,0.2s-0.1,0.2-0.2,0.2c-1.1-0.1-2.1,0.7-2.3,1.8c0,1.1,1.2,1.6,2.3,1.8
			c2,0.2,3.2,1.2,3.2,2.6S88.4,209.1,86.6,209.1"/>
		<path class="st5" d="M92.8,209.1c-0.1,0-0.2-0.1-0.2-0.2s0.1-0.2,0.2-0.2c1.5,0,2.8-1,2.8-2.2s-1-2-2.8-2.2s-2.7-1.1-2.7-2.2
			c0.2-1.4,1.4-2.4,2.8-2.2c0.1,0,0.2,0.1,0.2,0.2s-0.1,0.2-0.2,0.2c-1.1-0.1-2.1,0.7-2.3,1.8c0,1.1,1.2,1.6,2.3,1.8
			c2,0.2,3.2,1.2,3.2,2.6S94.6,209.1,92.8,209.1"/>
		<path class="st5" d="M90.3,227.1c-8.2,0-16.9-1-16.9-2.8c0-0.1,0.1-0.2,0.2-0.2l0,0h33.3c0.1,0,0.2,0.1,0.2,0.2l0,0
			C107.2,226.1,98.5,227.1,90.3,227.1 M74.2,224.6c0.4,0.3,1.5,0.8,4.4,1.3c7.8,1,15.7,1,23.5,0c2.9-0.5,4-0.9,4.4-1.3l0.1-0.1H74
			L74.2,224.6z"/>
		<path class="st10" d="M20,136.3c1.9-0.2,3.7-1,5.1-2.2c1.7-1.8,2.8-4.2,2.8-6.7v-8.2c-0.2-5.1-4.3-9.1-9.3-9.3h-1.2
			c-5.1,0.2-9.1,4.3-9.3,9.3v8.2"/>
		<path class="st10" d="M7.8,127.5c-2.6-0.4-4.4-2.8-4-5.3c0.3-2.1,1.9-3.8,4-4"/>
		<path class="st10" d="M28.2,127.5c2.6-0.4,4.4-2.8,4-5.3c-0.3-2.1-1.9-3.8-4-4"/>
		<path class="st10" d="M14.2,126.8c1,2.1,3.5,3,5.6,2c0.9-0.4,1.6-1.1,2-2"/>
		<circle class="st11" cx="18" cy="136.3" r="2"/>
		<path class="st10" d="M7.9,118.3c2.9-0.6,5.4-2.4,6.8-5c3.2,3.3,8.1,4,12.1,1.8"/>
	</g>
</g>
</svg>
